<?xml version="1.0" encoding="UTF-8" standalone="no"?>
<!-- Generator: Adobe Illustrator 16.0.0, SVG Export Plug-In . SVG Version: 6.00 Build 0)  -->

<svg
   version="1.1"
   id="Capa_1"
   x="0px"
   y="0px"
   width="46"
   height="45"
   viewBox="0 0 46.000006 45.000013"
   xml:space="preserve"
   sodipodi:docname="about-me.svg"
   inkscape:version="1.1.1 (3bf5ae0d25, 2021-09-20)"
   xmlns:inkscape="http://www.inkscape.org/namespaces/inkscape"
   xmlns:sodipodi="http://sodipodi.sourceforge.net/DTD/sodipodi-0.dtd"
   xmlns="http://www.w3.org/2000/svg"
   xmlns:svg="http://www.w3.org/2000/svg"><defs
   id="defs39">
	
</defs><sodipodi:namedview
   id="namedview37"
   pagecolor="#080e17"
   bordercolor="#666666"
   borderopacity="1.0"
   inkscape:pageshadow="2"
   inkscape:pageopacity="0"
   inkscape:pagecheckerboard="0"
   showgrid="false"
   inkscape:zoom="6.3234634"
   inkscape:cx="53.847074"
   inkscape:cy="11.465236"
   inkscape:window-width="1366"
   inkscape:window-height="708"
   inkscape:window-x="0"
   inkscape:window-y="312"
   inkscape:window-maximized="1"
   inkscape:current-layer="Capa_1"
   height="41.89899px"
   width="101.89899px" />

<g
   id="g6">
</g>
<g
   id="g8">
</g>
<g
   id="g10">
</g>
<g
   id="g12">
</g>
<g
   id="g14">
</g>
<g
   id="g16">
</g>
<g
   id="g18">
</g>
<g
   id="g20">
</g>
<g
   id="g22">
</g>
<g
   id="g24">
</g>
<g
   id="g26">
</g>
<g
   id="g28">
</g>
<g
   id="g30">
</g>
<g
   id="g32">
</g>
<g
   id="g34">
</g>
<g
   id="g855"
   transform="matrix(0.7996003,0,0,0.77981782,4.9909647,3.4186953)"><path
     style="fill:none;stroke:#e1faff;stroke-width:1.00675;stroke-linecap:round;stroke-linejoin:round;stroke-miterlimit:4;stroke-dasharray:none;stroke-opacity:1"
     d="M 31.089588,27.139186 C 30.87733,25.682069 30.334635,22.23336 27.229035,21.127719 l -1.905464,2.367379 c -0.809155,-1.28959 -1.888301,-2.525087 -4.157385,-3.522206 l -1.039344,1.270303 -0.92386,-0.923852 c -4.316882,1.34321 -4.675394,5.058111 -5.184092,7.387476"
     id="path8259"
     inkscape:connector-curvature="0"
     sodipodi:nodetypes="ccccccc" /><g
     id="g8267"
     transform="matrix(0.49185219,0,0,0.49185219,-71.781413,6.6032088)"><path
       sodipodi:nodetypes="cccsscssscssscssscccc"
       inkscape:connector-curvature="0"
       id="path8261"
       d="m 193.26198,17.951936 c -1.74536,2.213222 -3.99514,4.196576 -8.81888,3.639255 -9.84998,-1.750578 -8.46212,-10.736621 -8.56985,-12.9134728 -0.0192,-1.8431525 0.33868,-4.1508615 1.80087,-6.0619047 0.73109,-0.9555217 1.68465,-1.94020907 3.11243,-2.46141277 0.63247,-0.2308794 0,0 1.39424,-0.5199098 0.79919,0.1793268 0.82642,0.3239644 1.81334,0.6997515 0.98691,0.3757871 2.91659,1.22158037 3.69329,1.61311637 0.90993,0.4586943 2.33431,1.1022198 3.31135,1.7857266 0.72878,0.509838 2.08932,1.3646522 2.96758,2.3619258 0.52616,-0.4074974 0.71054,-0.5249234 1.18815,-0.8176645 0.37367,-0.2290271 0.7207,-0.417227 1.32307,-0.7604321 0.54243,-0.3090516 1.07104,-0.5600737 1.77385,-0.8916382 0.73866,-0.3484738 1.58333,-0.7888063 2.62821,-1.1164787 0.55117,-0.1741051 1.64836,-0.4523282 2.06058,-0.5145227 0.51036,-0.077002 0.9449,0.3935716 1.38915,0.7112952 0.44425,0.3177236 0.87602,0.727134 1.31433,1.2614157 0.43831,0.5342816 0.88315,1.1934346 1.35353,2.0106433 2.01578,4.016524 -0.0872,9.6744318 -1.05656,10.9177638 -2.00118,2.715359 -4.80285,4.048725 -7.98288,3.991419 -1.91216,0.06239 -3.40812,-1.123821 -4.6958,-2.934876 z"
       style="fill:#e1fbff;fill-opacity:0.4;stroke:none;stroke-width:0.464861px;stroke-linecap:butt;stroke-linejoin:miter;stroke-opacity:1" /><ellipse
       ry="4.0004606"
       rx="3.1703508"
       cy="10.713887"
       cx="190.17194"
       id="ellipse8263"
       style="fill:#0a121f;fill-opacity:1;stroke:#0a121f;stroke-width:1.17865;stroke-linejoin:round;stroke-miterlimit:4;stroke-dasharray:none;stroke-opacity:1" /><ellipse
       ry="3.1349037"
       rx="2.6783435"
       cy="13.307969"
       cx="195.92046"
       id="ellipse8265"
       style="fill:#0a121f;fill-opacity:1;stroke:#0a121f;stroke-width:0.959011;stroke-linejoin:round;stroke-miterlimit:4;stroke-dasharray:none;stroke-opacity:1" /></g><path
     style="font-variation-settings:normal;vector-effect:none;fill:#9ed1fb;fill-opacity:0.984314;stroke:none;stroke-width:0.130136px;stroke-linecap:butt;stroke-linejoin:miter;stroke-miterlimit:4;stroke-dasharray:none;stroke-dashoffset:0;stroke-opacity:1;-inkscape-stroke:none;stop-color:#000000"
     d="m 17.384685,5.5938488 5.69003,2.77366 0.228661,-0.390438 -5.151946,-3.792119 z"
     id="path8269"
     sodipodi:nodetypes="ccccc" /><path
     style="font-variation-settings:normal;vector-effect:none;fill:#9ed1fb;fill-opacity:0.984314;stroke:none;stroke-width:0.130136px;stroke-linecap:butt;stroke-linejoin:miter;stroke-miterlimit:4;stroke-dasharray:none;stroke-dashoffset:0;stroke-opacity:1;-inkscape-stroke:none;stop-color:#000000"
     d="m 23.941462,7.9784258 3.287566,-3.00244 0.870554,1.26314 -3.922931,2.135971 z"
     id="path8271"
     sodipodi:nodetypes="ccccc" /><path
     style="fill:none;stroke:#e1faff;stroke-width:1.00675;stroke-linecap:round;stroke-linejoin:round;stroke-miterlimit:4;stroke-dasharray:none;stroke-opacity:1"
     d="M 31.089588,27.139186 C 30.87733,25.682069 30.334635,21.192277 27.229035,20.08663 l -1.905464,2.367382 c -0.809155,-1.28959 -1.888301,-2.525087 -4.157385,-3.522206 l -1.039344,1.270303 -0.92386,-0.923852 c -4.316882,1.343206 -4.675394,6.099197 -5.184092,8.428562"
     id="path8281"
     inkscape:connector-curvature="0"
     sodipodi:nodetypes="ccccccc" /></g><g
   id="g861"><path
     d="M 9.5219056,1.713 H 36.528777 c 4.143183,0 7.501905,3.3223133 7.501905,7.420596 v 26.714143 c 0,4.098283 -3.358722,7.420596 -7.501905,7.420596 H 9.5219056 C 5.3787175,43.268335 2.02,39.946022 2.02,35.847739 V 9.133596 C 2.02,5.0353133 5.3787175,1.713 9.5219056,1.713 Z"
     id="path861"
     style="fill:none;stroke:#ffffff;stroke-width:1.39;stroke-miterlimit:4;stroke-dasharray:none"
     sodipodi:nodetypes="sssssssss" /><g
     id="g829"
     transform="translate(-123.7962,32.547415)"><text
       xml:space="preserve"
       style="font-size:25.549px;line-height:1.25;font-family:'UKIJ Qolyazma Tuz';-inkscape-font-specification:'UKIJ Qolyazma Tuz';text-decoration-color:#000000;letter-spacing:0px;word-spacing:0px;fill:#ffffff;fill-opacity:1;stroke-width:0.598802;-inkscape-stroke:none;stop-color:#000000"
       x="132.6891"
       y="8.3016167"
       id="text8705"
       transform="scale(0.99260272,1.0074524)"><tspan
         sodipodi:role="line"
         id="tspan8703"
         x="132.6891"
         y="8.3016167"
         style="font-style:normal;font-variant:normal;font-weight:normal;font-stretch:normal;font-family:Mallanna;-inkscape-font-specification:Mallanna;fill:#ffffff;fill-opacity:1;stroke-width:0.598802">me</tspan></text></g></g></svg>
