<?xml version="1.0" encoding="UTF-8" standalone="no"?>
<svg
   width="427.08661"
   height="555.59058"
   viewBox="0 0 113 147"
   version="1.1"
   id="svg918"
   inkscape:version="1.1.1 (3bf5ae0d25, 2021-09-20)"
   sodipodi:docname="angrybee-bg.svg"
   inkscape:export-filename="/home/vissol/eclipse-workspace/angrybeewebsite/src/main/website/pictures/angrybee-blue.png"
   inkscape:export-xdpi="96"
   inkscape:export-ydpi="96"
   xmlns:inkscape="http://www.inkscape.org/namespaces/inkscape"
   xmlns:sodipodi="http://sodipodi.sourceforge.net/DTD/sodipodi-0.dtd"
   xmlns="http://www.w3.org/2000/svg"
   xmlns:svg="http://www.w3.org/2000/svg"
   xmlns:rdf="http://www.w3.org/1999/02/22-rdf-syntax-ns#"
   xmlns:cc="http://creativecommons.org/ns#"
   xmlns:dc="http://purl.org/dc/elements/1.1/">
  <defs
     id="defs912" />
  <sodipodi:namedview
     id="base"
     pagecolor="#122036"
     bordercolor="#666666"
     borderopacity="1.0"
     inkscape:pageopacity="0"
     inkscape:pageshadow="2"
     inkscape:zoom="0.98994949"
     inkscape:cx="386.38335"
     inkscape:cy="246.9823"
     inkscape:document-units="mm"
     inkscape:current-layer="layer1"
     inkscape:document-rotation="0"
     showgrid="false"
     inkscape:window-width="1366"
     inkscape:window-height="700"
     inkscape:window-x="0"
     inkscape:window-y="0"
     inkscape:window-maximized="1"
     inkscape:pagecheckerboard="0"
     units="px" />
  <metadata
     id="metadata915">
    <rdf:RDF>
      <cc:Work
         rdf:about="">
        <dc:format>image/svg+xml</dc:format>
        <dc:type
           rdf:resource="http://purl.org/dc/dcmitype/StillImage" />
      </cc:Work>
    </rdf:RDF>
  </metadata>
  <g
     inkscape:label="Layer 1"
     inkscape:groupmode="layer"
     id="layer1">
    <path
       style="font-variation-settings:normal;opacity:0.3;vector-effect:none;fill:#0f1c2e;fill-opacity:0.984314;stroke:none;stroke-width:0.264583px;stroke-linecap:butt;stroke-linejoin:miter;stroke-miterlimit:4;stroke-dasharray:none;stroke-dashoffset:0;stroke-opacity:1;-inkscape-stroke:none;stop-color:#000000"
       d="m 51.04724,121.65153 4.7997,24.90096 5.15271,-24.74479 z"
       id="path31962"
       sodipodi:nodetypes="cccc" />
    <path
       style="font-variation-settings:normal;opacity:0.3;vector-effect:none;fill:#0f1c2e;fill-opacity:0.984314;stroke:#0f1c2e;stroke-width:0.264583px;stroke-linecap:butt;stroke-linejoin:miter;stroke-miterlimit:4;stroke-dasharray:none;stroke-dashoffset:0;stroke-opacity:0.984314;-inkscape-stroke:none;stop-color:#000000"
       d="m 26.17574,113.09749 -0.0203,-79.34842 c -0.0151,-13.493266 60.10762,-14.031638 59.91603,-0.0308 l 0.0174,79.32553 c 0.16829,12.65941 -60.05114,12.30455 -59.91313,0.0537 z"
       id="path1013"
       sodipodi:nodetypes="cccccc" />
    <path
       id="path15869"
       style="opacity:0.3;fill:#0f1c2e;fill-opacity:0.984314;stroke:none;stroke-width:3.49827;stroke-linejoin:round;stroke-miterlimit:4;stroke-dasharray:none;stroke-opacity:1"
       d="M 362.81641 199.78711 C 360.47138 199.7837 358.20057 199.96514 356.03906 200.35938 C 341.50542 203.01007 333.89013 206.25797 325.24805 218.18555 C 325.30659 231.83992 325.41824 244.14429 325.46875 256.33008 C 325.38062 256.46239 325.29343 256.5901 325.20508 256.72461 C 325.24868 267.97302 325.32096 278.24411 325.37305 288.35352 C 325.33882 291.21525 325.30067 294.09544 325.24805 297.05859 C 325.30399 297.09257 325.36188 297.12438 325.41797 297.1582 C 325.45686 309.61037 325.42582 321.99245 325.20703 335.58203 C 349.12577 351.60784 388.24713 349.70354 403.91406 325.85352 C 411.85125 313.77062 415.40013 298.7157 413.86328 284.7168 C 429.21677 260.95462 426.85522 227.45826 401.41406 212.00391 C 390.28186 205.2416 375.47954 199.8055 362.81641 199.78711 z "
       transform="scale(0.26458333)" />
    <path
       id="path15891"
       style="opacity:0.3;fill:#0f1c2e;fill-opacity:0.984314;stroke:none;stroke-width:3.49827;stroke-linejoin:round;stroke-miterlimit:4;stroke-dasharray:none;stroke-opacity:1"
       d="M 60.667969 198.92383 C 48.004806 198.94222 33.202583 204.38027 22.070312 211.14258 C -3.4231945 226.62862 -5.743019 260.23117 9.7148438 284.00195 C 8.2190766 297.95896 11.770354 312.95183 19.679688 324.99219 C 35.346661 348.84225 74.468016 350.74651 98.386719 334.7207 C 98.167571 321.10765 98.138582 308.7044 98.177734 296.23047 C 98.196876 296.21887 98.217204 296.20888 98.236328 296.19727 C 98.217842 295.15633 98.207514 294.16603 98.191406 293.13867 C 98.238757 281.23232 98.336807 269.19672 98.388672 255.86328 C 98.264057 255.67358 98.139798 255.49198 98.015625 255.30664 C 98.06649 243.17301 98.178046 230.91681 98.236328 217.32227 C 89.594287 205.39467 81.978919 202.14875 67.445312 199.49805 C 65.283807 199.10381 63.012999 198.92042 60.667969 198.92383 z "
       transform="scale(0.26458333)" />
    <path
       style="opacity:0.3;fill:none;stroke:#0f1c2e;stroke-width:1.87116;stroke-linecap:round;stroke-linejoin:round;stroke-miterlimit:4;stroke-dasharray:none;stroke-opacity:0.984314"
       d="M 34.23496,3.328873 41.27872,0.98097138 56.42278,23.168662 61.35341,4.8550102 l 2.7001,5.5175758"
       id="path18319"
       inkscape:connector-curvature="0" />
    <path
       style="fill:none;stroke:#122036;stroke-width:2.04686;stroke-linecap:round;stroke-linejoin:round;stroke-miterlimit:4;stroke-dasharray:none;stroke-opacity:1"
       d="M 73.32301,79.085668 C 72.89147,76.123165 71.78808,69.111486 65.474,66.863566 l -3.87406,4.813194 c -1.64512,-2.621898 -3.83917,-5.133828 -8.45251,-7.161103 l -2.11312,2.58269 -1.87833,-1.878311 c -8.77679,2.730919 -9.50569,10.283805 -10.53994,15.019697"
       id="path15895"
       inkscape:connector-curvature="0"
       sodipodi:nodetypes="ccccccc" />
    <path
       sodipodi:nodetypes="cccsscssscssscssscccc"
       inkscape:connector-curvature="0"
       id="path16232"
       d="m 57.43478,55.28527 c -1.74536,2.213222 -3.99514,4.196576 -8.81888,3.639255 -9.84998,-1.750578 -8.46212,-10.736621 -8.56985,-12.913473 -0.0192,-1.843152 0.33868,-4.150861 1.80087,-6.061904 0.73109,-0.955522 1.68465,-1.94021 3.11243,-2.461413 0.63247,-0.23088 0,0 1.39424,-0.51991 0.79919,0.179327 0.82642,0.323964 1.81334,0.699751 0.98691,0.375788 2.91659,1.221581 3.69329,1.613117 0.90993,0.458694 2.33431,1.10222 3.31135,1.785726 0.72878,0.509838 2.08932,1.364653 2.96758,2.361926 0.52616,-0.407497 0.71054,-0.524923 1.18815,-0.817664 0.37367,-0.229027 0.7207,-0.417227 1.32307,-0.760432 0.54243,-0.309052 1.07104,-0.560074 1.77385,-0.891639 0.73866,-0.348473 1.58333,-0.788806 2.62821,-1.116478 0.55117,-0.174105 1.64836,-0.452329 2.06058,-0.514523 0.51036,-0.077 0.9449,0.393572 1.38915,0.711295 0.44425,0.317724 0.87602,0.727134 1.31433,1.261416 0.43831,0.534281 0.88315,1.193435 1.35353,2.010643 2.01578,4.016524 -0.0872,9.674432 -1.05656,10.917764 -2.00118,2.715359 -4.80285,4.048725 -7.98288,3.991419 -1.91216,0.06239 -3.40812,-1.123821 -4.6958,-2.934876 z"
       style="fill:#122036;fill-opacity:1;stroke:none;stroke-width:0.464861px;stroke-linecap:butt;stroke-linejoin:miter;stroke-opacity:1" />
    <ellipse
       ry="4.0004606"
       rx="3.1703508"
       cy="48.047222"
       cx="54.344734"
       id="ellipse16234"
       style="opacity:0.5;fill:#0f1c2e;fill-opacity:1;stroke:#122036;stroke-width:1.17865;stroke-linejoin:round;stroke-miterlimit:4;stroke-dasharray:none;stroke-opacity:0.997279" />
    <ellipse
       ry="3.1349037"
       rx="2.6783435"
       cy="50.641304"
       cx="60.093254"
       id="ellipse16236"
       style="opacity:0.5;fill:#0f1c2e;fill-opacity:1;stroke:#122036;stroke-width:0.959011;stroke-linejoin:round;stroke-miterlimit:4;stroke-dasharray:none;stroke-opacity:0.997279" />
    <path
       style="font-variation-settings:normal;vector-effect:none;fill:#122036;fill-opacity:1;stroke:none;stroke-width:0.264583px;stroke-linecap:butt;stroke-linejoin:miter;stroke-miterlimit:4;stroke-dasharray:none;stroke-dashoffset:0;stroke-opacity:1;-inkscape-stroke:none;stop-color:#000000"
       d="m 45.45914,35.281177 11.56858,5.639212 0.46488,-0.793812 -10.47459,-7.70988 z"
       id="path20300"
       sodipodi:nodetypes="ccccc" />
    <path
       style="font-variation-settings:normal;vector-effect:none;fill:#122036;fill-opacity:1;stroke:none;stroke-width:0.264583px;stroke-linecap:butt;stroke-linejoin:miter;stroke-miterlimit:4;stroke-dasharray:none;stroke-dashoffset:0;stroke-opacity:1;-inkscape-stroke:none;stop-color:#000000"
       d="m 58.78993,40.129333 6.68405,-6.104356 1.76995,2.568126 -7.97583,4.342713 z"
       id="path20302"
       sodipodi:nodetypes="ccccc" />
    <path
       style="fill:none;stroke:#122036;stroke-width:2.04686;stroke-linecap:round;stroke-linejoin:round;stroke-miterlimit:4;stroke-dasharray:none;stroke-opacity:1"
       d="M 73.32301,79.085668 C 72.89147,76.123165 71.78808,66.994818 65.474,64.746898 l -3.87406,4.813194 c -1.64512,-2.621898 -3.83917,-5.133828 -8.45251,-7.161103 l -2.11312,2.58269 -1.87833,-1.878311 c -8.77679,2.730919 -9.50569,12.400473 -10.53994,17.136365"
       id="path52412"
       inkscape:connector-curvature="0"
       sodipodi:nodetypes="ccccccc" />
  </g>
</svg>
