<?xml version="1.0" encoding="UTF-8" standalone="no"?>
<svg
   width="70"
   height="70"
   viewBox="0 0 18.520834 18.520833"
   version="1.1"
   id="svg918"
   inkscape:version="1.1.1 (3bf5ae0d25, 2021-09-20)"
   sodipodi:docname="angrybee-b&amp;w.svg"
   inkscape:export-filename="/home/vissol/eclipse-workspace/angrybeewebsite/src/main/website/pictures/angrybee-blue.png"
   inkscape:export-xdpi="96"
   inkscape:export-ydpi="96"
   xmlns:inkscape="http://www.inkscape.org/namespaces/inkscape"
   xmlns:sodipodi="http://sodipodi.sourceforge.net/DTD/sodipodi-0.dtd"
   xmlns="http://www.w3.org/2000/svg"
   xmlns:svg="http://www.w3.org/2000/svg"
   xmlns:rdf="http://www.w3.org/1999/02/22-rdf-syntax-ns#"
   xmlns:cc="http://creativecommons.org/ns#"
   xmlns:dc="http://purl.org/dc/elements/1.1/">
  <defs
     id="defs912" />
  <sodipodi:namedview
     id="base"
     pagecolor="#000000"
     bordercolor="#666666"
     borderopacity="1.0"
     inkscape:pageopacity="0"
     inkscape:pageshadow="2"
     inkscape:zoom="11.2"
     inkscape:cx="31.205357"
     inkscape:cy="39.6875"
     inkscape:document-units="mm"
     inkscape:current-layer="layer1"
     inkscape:document-rotation="0"
     showgrid="false"
     inkscape:window-width="1920"
     inkscape:window-height="1056"
     inkscape:window-x="0"
     inkscape:window-y="0"
     inkscape:window-maximized="1"
     inkscape:pagecheckerboard="0"
     units="px"
     width="70px" />
  <metadata
     id="metadata915">
    <rdf:RDF>
      <cc:Work
         rdf:about="">
        <dc:format>image/svg+xml</dc:format>
        <dc:type
           rdf:resource="http://purl.org/dc/dcmitype/StillImage" />
      </cc:Work>
    </rdf:RDF>
  </metadata>
  <g
     inkscape:label="Layer 1"
     inkscape:groupmode="layer"
     id="layer1">
    <path
       style="font-variation-settings:normal;fill:none;fill-opacity:1;stroke:#ffffff;stroke-width:0.08546042;stroke-linecap:butt;stroke-linejoin:miter;stroke-miterlimit:4;stroke-dasharray:none;stroke-dashoffset:0;stroke-opacity:1;stop-color:#000000"
       d="m 6.4519166,15.4373 0.6067587,3.083534 0.6513848,-3.064196 z"
       id="path31962"
       sodipodi:nodetypes="cccc" />
    <path
       style="font-variation-settings:normal;fill:none;fill-opacity:0.984314;stroke:#ffffff;stroke-width:0.08625417;stroke-linecap:butt;stroke-linejoin:miter;stroke-miterlimit:4;stroke-dasharray:none;stroke-dashoffset:0;stroke-opacity:1;stop-color:#000000"
       d="M 3.3077621,14.291588 3.3051958,4.2606807 c -0.00191,-1.7057642 7.5985622,-1.773823 7.5743422,-0.00389 l 0.0022,10.0280133 c 0.02127,1.600352 -7.5914226,1.555492 -7.5739759,0.0068 z"
       id="path1013"
       sodipodi:nodetypes="cccccc" />
    <path
       sodipodi:nodetypes="cssscc"
       inkscape:connector-curvature="0"
       id="path15869"
       d="m 10.876116,11.218684 c 0.800024,0.536024 2.108521,0.472305 2.632542,-0.32542 C 14.032677,10.095542 13.985299,8.9104216 13.185279,8.3743962 12.78527,8.106384 12.229012,7.9006261 11.809602,7.985 c -0.440632,0.088641 -0.67152,0.1972068 -0.933531,0.5960719 0.0037,0.9522268 0.01496,1.7111461 4.5e-5,2.6376121 z"
       style="fill:none;fill-opacity:1;stroke:#ffffff;stroke-width:0.117009;stroke-linejoin:round;stroke-miterlimit:4;stroke-dasharray:none;stroke-opacity:1" />
    <path
       sodipodi:nodetypes="cssscc"
       inkscape:connector-curvature="0"
       id="path15871"
       d="m 10.877511,9.9301738 c 0.882603,0.5361352 2.326162,0.4724042 2.904271,-0.3254873 0.57811,-0.7978914 0.525841,-1.9832618 -0.356756,-2.5193997 -0.441298,-0.2680685 -1.054973,-0.4738696 -1.517674,-0.3894782 -0.486115,0.088659 -0.740834,0.1972491 -1.029891,0.5961972 0.0041,0.9524286 0.01651,1.7115075 5e-5,2.638168 z"
       style="fill:none;fill-opacity:1;stroke:#ffffff;stroke-width:0.122913;stroke-linejoin:round;stroke-miterlimit:4;stroke-dasharray:none;stroke-opacity:1" />
    <path
       sodipodi:nodetypes="cssscc"
       inkscape:connector-curvature="0"
       id="path15891"
       d="M 3.2895455,11.189845 C 2.4895234,11.725869 1.1810209,11.662152 0.6569989,10.864425 0.13297441,10.066704 0.18035384,8.8815829 0.98037725,8.3455583 1.3803889,8.0775452 1.9366495,7.8717873 2.356061,7.9561622 c 0.4406317,0.08864 0.6715203,0.1972067 0.9335313,0.5960709 -0.0037,0.9522277 -0.014961,1.7111469 -4.68e-5,2.6376119 z"
       style="fill:none;fill-opacity:1;stroke:#ffffff;stroke-width:0.117009;stroke-linejoin:round;stroke-miterlimit:4;stroke-dasharray:none;stroke-opacity:1" />
    <path
       sodipodi:nodetypes="cssscc"
       inkscape:connector-curvature="0"
       id="path15893"
       d="M 3.2844763,9.9013362 C 2.4018754,10.437472 0.95830881,10.373741 0.38019725,9.5758478 -0.19791684,8.7779562 -0.14564763,7.5925868 0.73695573,7.056449 1.1782562,6.7883806 1.7919348,6.5825793 2.2546362,6.6669707 c 0.4861136,0.088659 0.7408355,0.1972483 1.0298906,0.5961972 -0.00408,0.9524286 -0.016507,1.7115068 -5.05e-5,2.6381683 z"
       style="fill:none;stroke:#ffffff;stroke-width:0.122913;stroke-linejoin:round;stroke-miterlimit:4;stroke-dasharray:none;stroke-opacity:1" />
    <path
       style="fill:none;stroke:#ffffff;stroke-width:0.236544;stroke-linecap:round;stroke-linejoin:round;stroke-miterlimit:4;stroke-dasharray:none;stroke-opacity:1"
       d="M 4.3265761,0.41508226 5.2170198,0.11827002 7.1314707,2.9231482 7.754781,0.60801036 8.0961167,1.30552"
       id="path18319"
       inkscape:connector-curvature="0" />
    <path
       style="font-variation-settings:normal;vector-effect:none;fill:none;fill-opacity:1;stroke:#ffffff;stroke-width:0.0334475px;stroke-linecap:butt;stroke-linejoin:miter;stroke-miterlimit:4;stroke-dasharray:none;stroke-dashoffset:0;stroke-opacity:1;-inkscape-stroke:none;stop-color:#000000"
       d="M 3.3077621,14.291588 3.3235615,4.2150277 C 3.316596,3.9441315 4.8462784,3.9908794 6.5378479,3.9896188 c 0.8457847,-6.321e-4 1.8377593,0.011964 2.4811357,0.039487 0.659842,0.028227 1.0572584,0.4605519 1.0578134,0.8297386 l -2.53e-4,9.4089396 c 0.0048,0.275886 0.03153,0.809789 -0.3268673,0.893169 C 9.0447674,15.324945 8.0516714,15.457559 7.1023836,15.456398 6.1530958,15.455261 5.1644624,15.343157 4.3887386,15.154477 3.685809,14.983501 3.3023818,14.559438 3.3077254,14.291589 Z"
       id="path7993"
       sodipodi:nodetypes="ccssccssscc" />
    <path
       style="fill:none;stroke:#ffffff;stroke-width:0.258756;stroke-linecap:round;stroke-linejoin:round;stroke-miterlimit:4;stroke-dasharray:none;stroke-opacity:0.99607843"
       d="M 9.2679295,9.9919502 C 9.2133759,9.6174426 9.0738898,8.7310544 8.2756893,8.4468815 L 7.7859463,9.055346 C 7.5779769,8.7238963 7.300614,8.4063482 6.7174142,8.1500683 L 6.4502821,8.4765615 6.2128312,8.2391131 C 5.1033048,8.5843448 5.0111602,9.5391501 4.8804145,10.137842"
       id="path15895"
       inkscape:connector-curvature="0"
       sodipodi:nodetypes="ccccccc" />
    <path
       sodipodi:nodetypes="cccsscssscssscssscccc"
       inkscape:connector-curvature="0"
       id="path16232"
       d="M 7.2594037,6.9832001 C 7.0387624,7.2629867 6.7543543,7.5137143 6.1445566,7.44326 4.8993619,7.221959 5.0748095,6.0859798 5.0611907,5.810791 5.0587636,5.5777871 5.1040053,5.2860558 5.2888494,5.0444695 5.3812709,4.9236763 5.5018161,4.7991961 5.6823103,4.7333076 c 0.079954,-0.029187 0,0 0.1762542,-0.065725 0.1010303,0.02267 0.1044726,0.040954 0.2292351,0.08846 0.1247612,0.047505 0.3687035,0.1544272 0.4668908,0.2039236 0.1150297,0.057986 0.295094,0.1393382 0.4186075,0.2257444 0.092129,0.064452 0.2641234,0.1725138 0.3751494,0.2985851 0.066515,-0.051514 0.089824,-0.066359 0.1502012,-0.1033659 0.047238,-0.028953 0.091108,-0.052744 0.1672571,-0.096131 0.068572,-0.039069 0.1353966,-0.070802 0.224243,-0.1127173 0.093378,-0.044053 0.2001582,-0.099718 0.3322477,-0.1411407 0.069677,-0.02201 0.208379,-0.057182 0.2604902,-0.065044 0.064518,-0.00973 0.1194504,0.049754 0.1756107,0.089919 0.05616,0.040165 0.1107429,0.091921 0.1661523,0.159463 0.055409,0.067542 0.1116442,0.1508692 0.1711078,0.2541774 0.2548267,0.5077532 -0.011023,1.223003 -0.1335661,1.38018 C 8.6092101,7.1929009 8.2550343,7.3614597 7.8530278,7.3542153 7.6113003,7.3621024 7.422187,7.2121464 7.2594037,6.9832001 Z"
       style="fill:none;fill-opacity:0.4;stroke:#ffffff;stroke-width:0.11165417;stroke-linecap:butt;stroke-linejoin:miter;stroke-opacity:1;stroke-miterlimit:4;stroke-dasharray:none" />
    <ellipse
       ry="0.50572205"
       rx="0.40078294"
       cy="6.0681953"
       cx="6.868773"
       id="ellipse16234"
       style="fill:#ffffff;fill-opacity:0.99607843;stroke:#ffffff;stroke-width:0.149;stroke-linejoin:round;stroke-miterlimit:4;stroke-dasharray:none;stroke-opacity:0.99607843" />
    <ellipse
       ry="0.39630187"
       rx="0.33858538"
       cy="6.3961287"
       cx="7.5954776"
       id="ellipse16236"
       style="fill:#ffffff;fill-opacity:0.99607843;stroke:#ffffff;stroke-width:0.121234;stroke-linejoin:round;stroke-miterlimit:4;stroke-dasharray:none;stroke-opacity:0.99607843" />
    <path
       style="font-variation-settings:normal;vector-effect:none;fill:#ffffff;fill-opacity:0.984314;stroke:none;stroke-width:0.0334475px;stroke-linecap:butt;stroke-linejoin:miter;stroke-miterlimit:4;stroke-dasharray:none;stroke-dashoffset:0;stroke-opacity:1;-inkscape-stroke:none;stop-color:#000000"
       d="M 5.7454916,4.4543635 7.2079447,5.1672499 7.266713,5.0668994 5.9425576,4.0922475 Z"
       id="path20300"
       sodipodi:nodetypes="ccccc" />
    <path
       style="font-variation-settings:normal;vector-effect:none;fill:#ffffff;fill-opacity:0.984314;stroke:none;stroke-width:0.0334475px;stroke-linecap:butt;stroke-linejoin:miter;stroke-miterlimit:4;stroke-dasharray:none;stroke-dashoffset:0;stroke-opacity:1;-inkscape-stroke:none;stop-color:#000000"
       d="M 7.4307162,5.0672478 8.2756868,4.2955597 8.4994367,4.6202118 7.4911645,5.1692001 Z"
       id="path20302"
       sodipodi:nodetypes="ccccc" />
    <path
       style="font-variation-settings:normal;opacity:1;vector-effect:none;fill:none;fill-opacity:0.99607843;stroke:#37abc8;stroke-width:0.0287989px;stroke-linecap:butt;stroke-linejoin:miter;stroke-miterlimit:4;stroke-dasharray:none;stroke-dashoffset:0;stroke-opacity:0.99607843;-inkscape-stroke:none;stop-color:#000000"
       d="m 3.3086811,11.627508 7.5477889,-0.01158 0.02001,0.695838 -7.5795035,0.01487 z"
       id="path38622" />
    <path
       style="font-variation-settings:normal;opacity:1;vector-effect:none;fill:none;fill-opacity:0.99607843;stroke:#37abc8;stroke-width:0.0287989px;stroke-linecap:butt;stroke-linejoin:miter;stroke-miterlimit:4;stroke-dasharray:none;stroke-dashoffset:0;stroke-opacity:0.99607843;-inkscape-stroke:none;stop-color:#000000"
       d="m 3.3086811,12.626586 7.5477889,-0.01158 0.02001,0.695839 -7.5795035,0.01487 z"
       id="path45789" />
    <path
       style="font-variation-settings:normal;opacity:1;vector-effect:none;fill:none;fill-opacity:0.99607843;stroke:#37abc8;stroke-width:0.0287989px;stroke-linecap:butt;stroke-linejoin:miter;stroke-miterlimit:4;stroke-dasharray:none;stroke-dashoffset:0;stroke-opacity:0.99607843;-inkscape-stroke:none;stop-color:#000000"
       d="m 3.3086811,13.625669 7.5477889,-0.01158 0.02001,0.695843 -7.5795035,0.01487 z"
       id="path45791" />
    <path
       style="font-variation-settings:normal;opacity:1;vector-effect:none;fill:none;fill-opacity:0.99607843;stroke:#37abc8;stroke-width:0.0287989px;stroke-linecap:butt;stroke-linejoin:miter;stroke-miterlimit:4;stroke-dasharray:none;stroke-dashoffset:0;stroke-opacity:0.99607843;-inkscape-stroke:none;stop-color:#000000"
       d="m 3.3086811,10.62843 7.5477889,-0.01158 0.02001,0.695838 -7.5795035,0.01487 z"
       id="path45795" />
    <path
       style="fill:none;stroke:#ffffff;stroke-width:0.258756;stroke-linecap:round;stroke-linejoin:round;stroke-miterlimit:4;stroke-dasharray:none;stroke-opacity:0.99607843"
       d="M 9.2679295,9.9919502 C 9.2133759,9.6174426 9.0738898,8.4634738 8.2756893,8.1793009 L 7.7859463,8.7877654 C 7.5779769,8.4563157 7.300614,8.1387676 6.7174142,7.8824877 L 6.4502821,8.2089809 6.2128312,7.9715324 C 5.1033048,8.3167642 5.0111602,9.5391501 4.8804145,10.137842"
       id="path52412"
       inkscape:connector-curvature="0"
       sodipodi:nodetypes="ccccccc" />
  </g>
</svg>
