<?xml version="1.0" encoding="UTF-8" standalone="no"?>
<!-- Generator: Adobe Illustrator 16.0.0, SVG Export Plug-In . SVG Version: 6.00 Build 0)  -->

<svg
   version="1.1"
   id="Capa_1"
   x="0px"
   y="0px"
   width="67.865997"
   height="67.864998"
   viewBox="0 0 67.866 67.865"
   xml:space="preserve"
   sodipodi:docname="book-svgrepo-com.svg"
   inkscape:version="1.1.1 (3bf5ae0d25, 2021-09-20)"
   xmlns:inkscape="http://www.inkscape.org/namespaces/inkscape"
   xmlns:sodipodi="http://sodipodi.sourceforge.net/DTD/sodipodi-0.dtd"
   xmlns="http://www.w3.org/2000/svg"
   xmlns:svg="http://www.w3.org/2000/svg"><defs
   id="defs39" /><sodipodi:namedview
   id="namedview37"
   pagecolor="#080e17"
   bordercolor="#666666"
   borderopacity="1.0"
   inkscape:pageshadow="2"
   inkscape:pageopacity="0"
   inkscape:pagecheckerboard="0"
   showgrid="false"
   inkscape:zoom="8.4550464"
   inkscape:cx="33.23459"
   inkscape:cy="33.411999"
   inkscape:window-width="1920"
   inkscape:window-height="1056"
   inkscape:window-x="0"
   inkscape:window-y="0"
   inkscape:window-maximized="1"
   inkscape:current-layer="Capa_1" />
<g
   id="g4"
   style="fill:#ffffff"
   transform="matrix(1.0188511,0,0,1.1536209,0,-4.4244293)">
	<path
   d="M 65.66,12.408 H 33.755 V 12.406 L 5.726,3.887 C 5.368,3.778 4.987,3.843 4.691,4.065 4.395,4.284 4.219,4.635 4.219,5.001 v 7.407 H 1.168 C 0.526,12.408 0,12.934 0,13.576 v 41.286 c 0,0.644 0.526,1.168 1.168,1.168 h 24.216 v 4.624 h -4.429 v 1.168 1.167 H 45.867 V 61.822 60.654 H 41.44 V 56.03 h 24.216 c 0.641,0 1.168,-0.524 1.168,-1.168 V 13.576 C 66.828,12.93 66.306,12.408 65.66,12.408 Z m -59.108,0 v -5.83 l 19.179,5.831 3.845,1.168 2.672,0.813 v 0.355 38.489 L 6.555,45.423 V 14.744 13.576 Z m 57.94,41.288 H 34.582 V 14.744 h 4.588 v 4.333 l 2.274,-1.438 2.274,1.438 v -4.333 h 20.78 v 38.95 h -0.007 v 0.002 z M 28.288,21.885 19.187,19.115 v -1.538 l 9.101,2.774 z m 0,5.864 -9.101,-2.771 v -1.542 l 9.101,2.772 z m 0,5.911 -18.209,-5.539 v -1.534 l 18.209,5.536 z m 0,5.858 -18.209,-5.535 v -1.54 l 18.209,5.535 z m 0,5.917 -18.209,-5.538 v -1.538 l 18.209,5.534 z m -16.651,-22.3 0.472,-1.546 2.743,0.832 0.488,1.838 0.798,0.243 0.804,0.243 -2.556,-9.089 -0.876,-0.264 -0.876,-0.264 -2.556,7.533 0.786,0.241 z m 1.855,-5.893 0.953,3.627 -1.915,-0.582 z m 31.359,10.116 c 0,-1.314 0.89,-1.792 1.984,-1.054 l 8.576,5.779 c 1.091,0.731 1.091,1.931 0,2.662 l -8.576,5.78 c -1.095,0.735 -1.984,0.256 -1.984,-1.054 z"
   id="path2"
   style="fill:#ffffff" />
</g>
<g
   id="g6">
</g>
<g
   id="g8">
</g>
<g
   id="g10">
</g>
<g
   id="g12">
</g>
<g
   id="g14">
</g>
<g
   id="g16">
</g>
<g
   id="g18">
</g>
<g
   id="g20">
</g>
<g
   id="g22">
</g>
<g
   id="g24">
</g>
<g
   id="g26">
</g>
<g
   id="g28">
</g>
<g
   id="g30">
</g>
<g
   id="g32">
</g>
<g
   id="g34">
</g>
</svg>
