<?xml version="1.0" encoding="UTF-8" standalone="no"?>
<svg
   xmlns:dc="http://purl.org/dc/elements/1.1/"
   xmlns:cc="http://creativecommons.org/ns#"
   xmlns:rdf="http://www.w3.org/1999/02/22-rdf-syntax-ns#"
   xmlns:svg="http://www.w3.org/2000/svg"
   xmlns="http://www.w3.org/2000/svg"
   xmlns:sodipodi="http://sodipodi.sourceforge.net/DTD/sodipodi-0.dtd"
   xmlns:inkscape="http://www.inkscape.org/namespaces/inkscape"
   version="1.1"
   id="Capa_1"
   x="0px"
   y="0px"
   width="67.865997"
   height="67.864998"
   viewBox="0 0 67.866 67.865"
   xml:space="preserve"
   sodipodi:docname="book.svg"
   inkscape:version="1.0.2 (e86c870879, 2021-01-15)"><metadata
   id="metadata22"><rdf:RDF><cc:Work
       rdf:about=""><dc:format>image/svg+xml</dc:format><dc:type
         rdf:resource="http://purl.org/dc/dcmitype/StillImage" /></cc:Work></rdf:RDF></metadata><defs
   id="defs39" /><sodipodi:namedview
   id="namedview37"
   pagecolor="#080e17"
   bordercolor="#666666"
   borderopacity="1.0"
   inkscape:pageshadow="2"
   inkscape:pageopacity="0"
   inkscape:pagecheckerboard="0"
   showgrid="false"
   inkscape:zoom="16.910093"
   inkscape:cx="30.867455"
   inkscape:cy="30.626492"
   inkscape:window-width="1920"
   inkscape:window-height="1056"
   inkscape:window-x="0"
   inkscape:window-y="0"
   inkscape:window-maximized="1"
   inkscape:current-layer="Capa_1"
   inkscape:document-rotation="0" />

<g
   id="g6">
</g>
<g
   id="g8">
</g>
<g
   id="g10">
</g>
<g
   id="g12">
</g>
<g
   id="g14">
</g>
<g
   id="g16">
</g>
<g
   id="g18">
</g>
<g
   id="g20">
</g>
<g
   id="g22">
</g>
<g
   id="g24">
</g>
<g
   id="g26">
</g>
<g
   id="g28">
</g>
<g
   id="g30">
</g>
<g
   id="g32">
</g>
<g
   id="g34">
</g>
<path
   fill="#494c4e"
   fill-rule="evenodd"
   d="m 61.719459,50.448314 h -1.162374 c 1.425855,-0.847555 2.556365,-2.113343 3.238058,-3.625528 0.86063,-1.938589 0.910453,-4.140807 0.138377,-6.116335 L 52.614151,11.25948 C 51.005993,7.1502312 46.389669,5.1012751 42.263424,6.6653091 L 39.108392,7.8830417 C 38.267695,8.2064833 37.490227,8.6748375 36.811306,9.2668275 V 8.9347183 C 36.797628,4.3549324 33.088377,0.64567974 28.508591,0.632 H 25.74102 C 21.161231,0.6456748 17.451974,4.3549289 17.438296,8.9347183 V 11.065749 C 15.920789,9.6944989 13.948429,8.9351404 11.903153,8.9347183 H 9.1355806 C 4.5557897,8.9483912 0.84653084,12.657646 0.83285311,17.237437 v 27.675724 c -0.00538,2.392504 1.03612429,4.66763 2.85060549,6.227041 -5.0043635,2.768826 -3.03471735,10.383423 2.6845505,10.378398 v 2.767571 c 0.00305,3.687036 5.5381989,3.687036 5.5351439,0 V 61.5186 h 44.281163 v 2.767571 c 0.0034,3.686656 5.538576,3.686656 5.535143,0 V 61.5186 c 3.054882,-0.003 5.529778,-2.480261 5.529778,-5.535143 0,-3.054882 -2.474896,-5.532182 -5.529778,-5.535143 z M 20.973439,8.9347183 c 0,-1.5284915 3.23909,-4.767577 4.767581,-4.7675724 h 2.767571 c 1.528488,0 4.767572,3.2390846 4.767572,4.7675724 V 44.913161 c 5e-6,1.528491 -3.239081,4.767581 -4.767572,4.767581 H 25.74102 c -1.528495,0 -4.767586,-3.239086 -4.767581,-4.767581 z M 4.3680091,17.237437 c 4e-7,-1.528487 3.239084,-4.767572 4.7675715,-4.767572 h 2.7675724 c 1.528487,0 4.767571,3.239085 4.767571,4.767572 v 27.675724 c 5e-6,1.528491 -3.23908,4.767581 -4.767571,4.767581 H 9.1355806 c -1.528491,0 -4.7675761,-3.23909 -4.7675715,-4.767581 z M 34.680279,50.448314 c 1.371251,-1.51751 2.130608,-3.489874 2.131027,-5.535153 V 24.184047 l 9.049965,23.469014 c 0.405794,1.056371 1.038819,2.010636 1.854272,2.795253 z m 24.173626,-3.60898 c -0.360718,0.538793 -0.880775,0.793678 -1.479534,1.04248 l -3.155032,1.217737 c -1.275868,0.46916 -4.692265,-2.171299 -5.182705,-3.439139 l -11.347051,-27.4193 c -0.231497,-0.609894 0.366506,-4.598826 0.633435,-5.194066 0.256937,-0.599546 2.168274,-1.7569 2.777999,-1.988648 L 44.25605,9.840671 c 0.282074,-0.110783 0.582581,-0.167129 0.885628,-0.166059 1.019118,-0.0026 3.933611,2.625417 4.297086,3.577517 l 11.34705,27.446981 c 0.217436,0.612178 -0.823118,4.484056 -1.184532,5.023889 z"
   id="path847"
   style="fill:#ffffff;stroke-width:2.76757"
   sodipodi:nodetypes="ccccccccccccccccccccccccccscscsscsscscssccssccccccccsccccccccccss" /></svg>
