<?xml version="1.0" encoding="UTF-8" standalone="no"?>
<!-- Created with Inkscape (http://www.inkscape.org/) -->

<svg
   width="250"
   height="35.007999"
   viewBox="0 0 66.145833 9.2625333"
   version="1.1"
   id="svg27798"
   inkscape:version="1.1.1 (3bf5ae0d25, 2021-09-20)"
   sodipodi:docname="copyright.svg"
   inkscape:export-filename="/home/vissol/eclipse-workspace/angrybee-web-framework/public/pictures/website-angrybee-global-title.png"
   inkscape:export-xdpi="40.639999"
   inkscape:export-ydpi="40.639999"
   xmlns:inkscape="http://www.inkscape.org/namespaces/inkscape"
   xmlns:sodipodi="http://sodipodi.sourceforge.net/DTD/sodipodi-0.dtd"
   xmlns="http://www.w3.org/2000/svg"
   xmlns:svg="http://www.w3.org/2000/svg">
  <sodipodi:namedview
     id="namedview27800"
     pagecolor="#080e17"
     bordercolor="#666666"
     borderopacity="1.0"
     inkscape:pageshadow="2"
     inkscape:pageopacity="0"
     inkscape:pagecheckerboard="0"
     inkscape:document-units="mm"
     showgrid="false"
     inkscape:zoom="2.8284271"
     inkscape:cx="108.71767"
     inkscape:cy="-11.490485"
     inkscape:window-width="1920"
     inkscape:window-height="1056"
     inkscape:window-x="1366"
     inkscape:window-y="0"
     inkscape:window-maximized="1"
     inkscape:current-layer="layer1"
     units="px" />
  <defs
     id="defs27795">
    <filter
       style="color-interpolation-filters:sRGB"
       inkscape:label="Colorize"
       id="filter9549"
       x="-0.092943184"
       y="-0.076478511"
       width="1.1858864"
       height="1.152957">
      <feComposite
         in2="SourceGraphic"
         operator="arithmetic"
         k1="0.435132"
         k2="2.14979"
         result="composite1"
         id="feComposite9535"
         k3="0"
         k4="0" />
      <feColorMatrix
         in="composite1"
         values="1"
         type="saturate"
         result="colormatrix1"
         id="feColorMatrix9537" />
      <feFlood
         flood-opacity="1"
         flood-color="rgb(158,130,0)"
         result="flood1"
         id="feFlood9539" />
      <feBlend
         in="flood1"
         in2="colormatrix1"
         mode="multiply"
         result="blend1"
         id="feBlend9541" />
      <feBlend
         in2="blend1"
         mode="screen"
         result="blend2"
         id="feBlend9543" />
      <feColorMatrix
         in="blend2"
         values="1"
         type="saturate"
         result="colormatrix2"
         id="feColorMatrix9545" />
      <feComposite
         in="colormatrix2"
         in2="SourceGraphic"
         operator="in"
         result="composite2"
         id="feComposite9547" />
    </filter>
    <filter
       style="color-interpolation-filters:sRGB"
       inkscape:label="Colorize"
       id="filter12324"
       x="-0.0024700202"
       y="-0.0014586025"
       width="1.0049462"
       height="1.0029168">
      <feComposite
         in2="SourceGraphic"
         operator="arithmetic"
         k1="0.435132"
         k2="2.14979"
         result="composite1"
         id="feComposite12310"
         k3="0"
         k4="0" />
      <feColorMatrix
         in="composite1"
         values="1"
         type="saturate"
         result="colormatrix1"
         id="feColorMatrix12312" />
      <feFlood
         flood-opacity="1"
         flood-color="rgb(227,254,0)"
         result="flood1"
         id="feFlood12314" />
      <feBlend
         in="flood1"
         in2="colormatrix1"
         mode="multiply"
         result="blend1"
         id="feBlend12316" />
      <feBlend
         in2="blend1"
         mode="screen"
         result="blend2"
         id="feBlend12318" />
      <feColorMatrix
         in="blend2"
         values="1"
         type="saturate"
         result="colormatrix2"
         id="feColorMatrix12320" />
      <feComposite
         in="colormatrix2"
         in2="SourceGraphic"
         operator="in"
         result="composite2"
         id="feComposite12322" />
    </filter>
    <filter
       style="color-interpolation-filters:sRGB"
       inkscape:label="Colorize"
       id="filter12340"
       x="-0.0022072955"
       y="-0.0013364296"
       width="1.0044146"
       height="1.0026728">
      <feComposite
         in2="SourceGraphic"
         operator="arithmetic"
         k1="0.435132"
         k2="2.14979"
         result="composite1"
         id="feComposite12326"
         k3="0"
         k4="0" />
      <feColorMatrix
         in="composite1"
         values="1"
         type="saturate"
         result="colormatrix1"
         id="feColorMatrix12328" />
      <feFlood
         flood-opacity="1"
         flood-color="rgb(227,254,0)"
         result="flood1"
         id="feFlood12330" />
      <feBlend
         in="flood1"
         in2="colormatrix1"
         mode="multiply"
         result="blend1"
         id="feBlend12332" />
      <feBlend
         in2="blend1"
         mode="screen"
         result="blend2"
         id="feBlend12334" />
      <feColorMatrix
         in="blend2"
         values="1"
         type="saturate"
         result="colormatrix2"
         id="feColorMatrix12336" />
      <feComposite
         in="colormatrix2"
         in2="SourceGraphic"
         operator="in"
         result="composite2"
         id="feComposite12338" />
    </filter>
    <filter
       style="color-interpolation-filters:sRGB"
       inkscape:label="Colorize"
       id="filter12356"
       x="0"
       y="0"
       width="1"
       height="1">
      <feComposite
         in2="SourceGraphic"
         operator="arithmetic"
         k1="0.435132"
         k2="2.14979"
         result="composite1"
         id="feComposite12342"
         k3="0"
         k4="0" />
      <feColorMatrix
         in="composite1"
         values="1"
         type="saturate"
         result="colormatrix1"
         id="feColorMatrix12344" />
      <feFlood
         flood-opacity="1"
         flood-color="rgb(227,254,0)"
         result="flood1"
         id="feFlood12346" />
      <feBlend
         in="flood1"
         in2="colormatrix1"
         mode="multiply"
         result="blend1"
         id="feBlend12348" />
      <feBlend
         in2="blend1"
         mode="screen"
         result="blend2"
         id="feBlend12350" />
      <feColorMatrix
         in="blend2"
         values="1"
         type="saturate"
         result="colormatrix2"
         id="feColorMatrix12352" />
      <feComposite
         in="colormatrix2"
         in2="SourceGraphic"
         operator="in"
         result="composite2"
         id="feComposite12354" />
    </filter>
    <filter
       style="color-interpolation-filters:sRGB"
       inkscape:label="Colorize"
       id="filter12372"
       x="-0.031375773"
       y="-0.042165857"
       width="1.0627517"
       height="1.0843267">
      <feComposite
         in2="SourceGraphic"
         operator="arithmetic"
         k1="0.435132"
         k2="2.14979"
         result="composite1"
         id="feComposite12358"
         k3="0"
         k4="0" />
      <feColorMatrix
         in="composite1"
         values="1"
         type="saturate"
         result="colormatrix1"
         id="feColorMatrix12360" />
      <feFlood
         flood-opacity="1"
         flood-color="rgb(227,254,0)"
         result="flood1"
         id="feFlood12362" />
      <feBlend
         in="flood1"
         in2="colormatrix1"
         mode="multiply"
         result="blend1"
         id="feBlend12364" />
      <feBlend
         in2="blend1"
         mode="screen"
         result="blend2"
         id="feBlend12366" />
      <feColorMatrix
         in="blend2"
         values="1"
         type="saturate"
         result="colormatrix2"
         id="feColorMatrix12368" />
      <feComposite
         in="colormatrix2"
         in2="SourceGraphic"
         operator="in"
         result="composite2"
         id="feComposite12370" />
    </filter>
  </defs>
  <g
     inkscape:label="Calque 1"
     inkscape:groupmode="layer"
     id="layer1">
    <g
       aria-label="Made with"
       id="text2567"
       style="font-size:4.91621px;line-height:1.25;font-family:'UKIJ Qolyazma Tuz';-inkscape-font-specification:'UKIJ Qolyazma Tuz';letter-spacing:0px;word-spacing:0px;fill:#ffffff;stroke-width:0.115224;stop-color:#000000">
      <path
         d="M 2.1685516,6.3827381 H 1.9933156 L 0.98030749,3.5501561 v 2.832582 H 0.81227296 V 3.1036643 h 0.1776365 L 2.0845344,6.1522908 3.1767588,3.1036643 H 3.3543953 V 6.3827381 H 3.1911618 v -2.832582 z"
         style="font-family:'UKIJ Elipbe';-inkscape-font-specification:'UKIJ Elipbe'"
         id="path31574" />
      <path
         d="m 4.9819297,4.7456017 h 0.1632336 v 1.2626595 q 0,0.084017 0.045609,0.156032 0.04801,0.072015 0.1248257,0.072015 0.1536316,0 0.2280469,-0.1344276 L 5.966132,5.360128 6.1077611,5.4441453 5.6852743,6.1810967 q -0.1224252,0.2160444 -0.369676,0.2160444 -0.1608331,0 -0.2592533,-0.1464301 -0.074415,-0.1104227 -0.074415,-0.2280469 v -0.014403 q -0.2688552,0.3888799 -0.6721381,0.3888799 -0.2856587,0 -0.4800986,-0.2112434 -0.19444,-0.2112434 -0.19444,-0.5209071 0,-0.3888799 0.2664548,-0.6697376 0.2496513,-0.2688552 0.5689169,-0.2688552 0.3336685,0 0.511305,0.2448503 z m -0.516106,0.1368281 q -0.2352484,0 -0.4416908,0.2160444 -0.2208454,0.2328479 -0.2208454,0.5473125 0,0.2592533 0.1368282,0.4248873 0.1368281,0.165634 0.3480715,0.165634 0.2472508,0 0.4704967,-0.2016414 0.2232458,-0.2016414 0.2232458,-0.4728972 0,-0.6793396 -0.516106,-0.6793396 z"
         style="font-family:'UKIJ Elipbe';-inkscape-font-specification:'UKIJ Elipbe'"
         id="path31576" />
      <path
         d="m 7.2623987,3.1084653 h 0.1632335 v 2.8997959 q 0.0096,0.055211 0.057612,0.1680345 0.045609,0.060012 0.1128231,0.060012 0.1536316,0 0.2280469,-0.1344276 L 8.2466009,5.360128 8.38823,5.4441453 7.9657432,6.1810967 q -0.1224252,0.2160444 -0.369676,0.2160444 -0.160833,0 -0.2592532,-0.1464301 -0.074415,-0.1104227 -0.074415,-0.2280469 v -0.014403 q -0.2688553,0.3888799 -0.6721381,0.3888799 -0.2856587,0 -0.4800987,-0.2112434 Q 5.915722,5.9746543 5.915722,5.6649906 q 0,-0.3888799 0.2664547,-0.6697376 0.2496513,-0.2688552 0.5689169,-0.2688552 0.3336686,0 0.5113051,0.2448503 z M 6.7462926,4.8824298 q -0.2544523,0 -0.4776981,0.2568528 -0.184838,0.2160444 -0.184838,0.5065041 0,0.2592533 0.1368281,0.4248873 0.1368281,0.165634 0.3480715,0.165634 0.2808577,0 0.5017031,-0.2376488 0.1920395,-0.2064424 0.1920395,-0.4368898 0,-0.6793396 -0.5161061,-0.6793396 z"
         style="font-family:'UKIJ Elipbe';-inkscape-font-specification:'UKIJ Elipbe'"
         id="path31578" />
      <path
         d="m 8.3690259,5.5953763 v 0.016803 q 0,0.2688552 0.1464301,0.4416907 0.1488306,0.1776365 0.4032829,0.1776365 0.2448503,0 0.5593149,-0.2328478 0.2760567,-0.1968405 0.4392903,-0.4368898 l 0.1368279,-0.2016414 0.141629,0.084017 q -0.04801,0.074415 -0.14643,0.2112434 -0.1872383,0.2544522 -0.468096,0.4656956 -0.3624745,0.2712558 -0.6625361,0.2712558 -0.3240666,0 -0.520907,-0.2256464 -0.1968405,-0.2256463 -0.1968405,-0.5569144 0,-0.3288676 0.2112434,-0.6025238 0.2112434,-0.2760567 0.4969021,-0.2760567 0.5953223,0 0.5953223,0.4488922 v 0.0072 q 0,0.2472508 -0.2016414,0.3744769 -0.1728355,0.1080222 -0.4488922,0.1080222 -0.1032212,0 -0.4848997,-0.074415 z m 0.0096,-0.156032 q 0.024005,0.0048 0.2496513,0.038408 0.1488306,0.024005 0.2520518,0.024005 0.4512927,0 0.4608947,-0.3144646 v -0.014403 q 0,-0.1344276 -0.084017,-0.2016414 -0.093619,-0.074415 -0.2904596,-0.074415 -0.026405,0 -0.057612,0.0024 -0.1584325,0.0048 -0.3240666,0.1776365 -0.1632335,0.170435 -0.2064424,0.3624745 z"
         style="font-family:'UKIJ Elipbe';-inkscape-font-specification:'UKIJ Elipbe'"
         id="path31580" />
      <path
         d="m 14.096603,4.9424422 q 0,0.156032 0.117624,0.2856587 0.117624,0.1272261 0.280858,0.2208453 -0.02881,-0.2208453 -0.168035,-0.3984818 -0.122425,-0.1584326 -0.19684,-0.1584326 -0.03361,0 -0.03361,0.05041 z m 1.253057,0.4176858 0.14403,0.084017 q -0.168035,0.2904596 -0.540111,0.2904596 -0.09842,0 -0.218445,-0.021604 -0.04801,-0.0096 -0.07682,-0.019204 -0.04081,0.2952606 -0.223246,0.4969021 -0.180037,0.2016414 -0.427288,0.2016414 -0.39368,0 -0.600123,-0.4320888 -0.180037,0.4320888 -0.573718,0.4320888 -0.280858,0 -0.480098,-0.2424498 Q 12.154604,5.90504 12.154604,5.5617694 V 5.1104767 q 0,-0.2016414 -0.182438,-0.2016414 -0.103221,0 -0.165634,0.1080222 L 11.559281,5.4441453 11.417652,5.360128 11.684107,4.9088353 q 0.09842,-0.1680346 0.309664,-0.1680346 0.324066,0 0.324066,0.4128849 v 0.4080838 q 0,0.2664548 0.148831,0.4680962 0.151231,0.2016414 0.367275,0.2016414 0.172836,0 0.309664,-0.1536315 0.182437,-0.2016415 0.182437,-0.4416908 v -0.890583 h 0.165634 v 0.8161677 q 0,0.2664548 0.14643,0.4680962 0.148831,0.2016414 0.369676,0.2016414 0.177637,0 0.309664,-0.1536315 Q 14.475881,5.900239 14.499886,5.6361847 14.22863,5.5065581 14.101404,5.345725 13.93577,5.1344816 13.93577,4.9424422 q 0,-0.2160444 0.175236,-0.2160444 0.168034,0 0.336069,0.2208454 0.180037,0.2400493 0.216044,0.5809193 0.0192,0.0048 0.05521,0.014403 0.03841,0.0096 0.05281,0.014403 0.103221,0.014403 0.187239,0.014403 0.273656,0 0.39128,-0.2112434 z"
         style="font-family:'UKIJ Elipbe';-inkscape-font-specification:'UKIJ Elipbe'"
         id="path31582" />
      <path
         d="M 15.491289,5.4441453 15.34966,5.360128 15.457682,5.1728895 Q 15.584908,4.9568451 15.59451,4.7456017 h 0.158433 v 1.2194506 q 0,0.2352483 0.187238,0.2760567 0.103222,0 0.170435,-0.069614 0.05041,-0.043209 0.129627,-0.1824375 l 0.362474,-0.6289292 0.14403,0.084017 -0.38888,0.6625361 q -0.172835,0.2904597 -0.379278,0.2904597 -0.172835,0 -0.280857,-0.1224252 Q 15.589709,6.1522908 15.589709,5.9554503 V 5.2617078 Z M 15.5465,4.284707 q 0,-0.1296266 0.127227,-0.1296266 0.132027,0 0.132027,0.1296266 0,0.1320271 -0.132027,0.1320271 -0.127227,0 -0.127227,-0.1320271 z"
         style="font-family:'UKIJ Elipbe';-inkscape-font-specification:'UKIJ Elipbe'"
         id="path31584" />
      <path
         d="M 16.950789,5.9506493 V 5.0072555 q 0,0.067214 -0.06721,0.1896389 l -0.139228,0.2472509 -0.14163,-0.084017 0.244851,-0.4224868 q 0.09362,-0.2064424 0.103221,-0.3192656 V 4.5775672 H 16.650727 V 4.4167341 h 0.300062 V 3.7830039 h 0.163234 v 0.6337302 h 0.520907 v 0.1608331 h -0.516106 v 1.41149 q 0,0.09842 0.05521,0.175236 0.05761,0.076816 0.127226,0.076816 0.165634,0 0.29046,-0.2184449 l 0.381678,-0.6625361 0.139229,0.084017 -0.38888,0.6721381 q -0.112823,0.1632335 -0.196841,0.2232458 -0.08402,0.057612 -0.206442,0.057612 -0.163234,0 -0.266455,-0.1248257 -0.103221,-0.1248256 -0.103221,-0.3216661 z"
         style="font-family:'UKIJ Elipbe';-inkscape-font-specification:'UKIJ Elipbe'"
         id="path31586" />
      <path
         d="m 18.189445,6.3827381 v -1.065819 h -0.0048 L 18.110228,5.4441453 17.968599,5.360128 18.184644,5.0024545 V 3.6797827 q 0,-0.2616537 0.117624,-0.4344893 0.108022,-0.156032 0.247251,-0.156032 0.127226,0 0.223246,0.1584325 0.09602,0.1560321 0.09602,0.3912804 0,0.355273 -0.163233,0.7369515 -0.09842,0.2280468 -0.352873,0.6553346 v 0.1224252 q 0.254453,-0.4176859 0.600124,-0.4176859 0.216044,0 0.367275,0.1632336 0.172836,0.175236 0.172836,0.4608947 v 0.6433322 q 0,0.093619 0.05761,0.1632335 0.06001,0.069614 0.120025,0.069614 0.14643,0 0.225646,-0.1392286 l 0.432089,-0.7369514 0.136828,0.084017 -0.427287,0.7369514 q -0.127227,0.2160444 -0.367276,0.2160444 -0.163233,0 -0.261654,-0.1464301 -0.07922,-0.1224252 -0.07922,-0.2472508 V 5.360128 q 0,-0.2112434 -0.112823,-0.3336686 -0.112823,-0.1224251 -0.264054,-0.1224251 -0.252052,0 -0.472898,0.3528725 -0.127226,0.2016414 -0.127226,0.364875 v 0.7609563 z m 0.158432,-2.7029554 v 1.0370131 q 0.357674,-0.6361307 0.357674,-1.065819 v -0.012002 q 0,-0.1776365 -0.05761,-0.2904597 -0.05041,-0.09842 -0.09842,-0.09842 -0.06001,0 -0.124826,0.1080222 -0.07682,0.1296267 -0.07682,0.3216661 z"
         style="font-family:'UKIJ Elipbe';-inkscape-font-specification:'UKIJ Elipbe'"
         id="path31588" />
    </g>
    <g
       aria-label="by Charles Vissol"
       id="text8591"
       style="font-size:5.05874px;line-height:1.25;font-family:'UKIJ Qolyazma Tuz';-inkscape-font-specification:'UKIJ Qolyazma Tuz';letter-spacing:0px;word-spacing:0px;fill:#ffffff;stroke-width:0.118564;stop-color:#000000">
      <path
         d="m 30.46616,3.6464819 v 1.0621379 q 0.363103,-0.6545733 0.363103,-1.0868387 v -0.012351 q 0,-0.1827865 -0.05928,-0.2988806 -0.05187,-0.1012736 -0.101274,-0.1012736 -0.06175,0 -0.121034,0.1111539 -0.08151,0.1333848 -0.08151,0.3260516 z m 0.627402,1.2992663 q 0,0.1654959 0.123505,0.2988807 0.123504,0.1309146 0.28653,0.2223079 -0.03211,-0.2321883 -0.167966,-0.4100346 -0.125975,-0.1630258 -0.207488,-0.1630258 -0.03458,0 -0.03458,0.051872 z m 1.289386,0.4347355 0.140795,0.086453 q -0.175376,0.2939404 -0.55577,0.2939404 -0.101273,0 -0.217367,-0.022231 -0.05187,-0.00988 -0.08151,-0.019761 -0.03952,0.3038209 -0.227248,0.5113083 -0.187727,0.2074873 -0.439676,0.2074873 -0.28406,0 -0.489078,-0.2470088 -0.205017,-0.2494788 -0.209957,-0.6076416 l -0.0049,-0.2642994 -0.08151,0.1482053 -0.145735,-0.086453 0.227248,-0.3902739 V 3.6464819 q 0,-0.2642994 0.121034,-0.4421457 0.106214,-0.1605557 0.249479,-0.1605557 0.130915,0 0.227248,0.1630258 0.09633,0.1605557 0.09633,0.3976842 0,0.365573 -0.167966,0.7533768 -0.09633,0.2395985 -0.353223,0.6693938 v 0.5557698 q 0,0.2741798 0.150675,0.4816672 0.153146,0.2050173 0.380394,0.2050173 0.182786,0 0.318641,-0.1556156 0.160556,-0.1827865 0.187727,-0.4544962 -0.27912,-0.1333847 -0.410035,-0.2988806 -0.172906,-0.2173677 -0.172906,-0.4149748 0,-0.2223079 0.182787,-0.2223079 0.170436,0 0.343342,0.2272481 0.187727,0.2470088 0.222308,0.5977613 0.04199,0.00988 0.116094,0.029641 0.106214,0.014821 0.187727,0.014821 0.274179,0 0.405094,-0.2124276 z"
         style="font-family:'UKIJ Elipbe';-inkscape-font-specification:'UKIJ Elipbe'"
         id="path33570" />
      <path
         d="M 33.968744,4.7481412 V 6.259835 Q 34.146591,6.1289203 34.282446,5.9856552 34.4183,5.8399201 34.6826,5.3804837 l 0.140795,0.086453 q -0.227248,0.4050944 -0.377924,0.5854108 -0.163025,0.1976071 -0.471786,0.4100346 v 1.094249 q 0,0.2618293 -0.118565,0.4297953 -0.118564,0.1704361 -0.259359,0.1704361 -0.133385,0 -0.229718,-0.1630258 -0.09633,-0.1605558 -0.09633,-0.3976842 0,-0.6323425 0.531068,-1.2128132 V 5.9980057 q -0.271709,0.4396756 -0.615051,0.4396756 -0.217368,0 -0.380394,-0.1605557 Q 32.627487,6.0943391 32.627487,5.7954585 V 5.2792101 l -0.101274,0.1877267 -0.145735,-0.086453 q 0.172906,-0.3137012 0.202547,-0.3754534 0.03952,-0.093863 0.0494,-0.2568891 h 0.163026 v 1.0324967 q 0,0.2321883 0.113624,0.3606329 0.113624,0.1284446 0.27665,0.1284446 0.242068,0 0.484137,-0.3680431 0.130914,-0.2025473 0.130914,-0.3754534 V 4.7481412 Z m -0.160555,2.80849 V 6.6303482 Q 33.437676,7.102135 33.437676,7.578862 v 0.01235 q 0,0.1778464 0.06175,0.2988807 0.0494,0.1012736 0.09633,0.1012736 0.06422,0 0.130915,-0.1062138 0.08151,-0.1309147 0.08151,-0.3285217 z"
         style="font-family:'UKIJ Elipbe';-inkscape-font-specification:'UKIJ Elipbe'"
         id="path33572" />
      <path
         d="m 38.548288,5.4669368 q -0.328522,0.5804706 -0.585411,0.7854879 -0.254419,0.2050173 -0.659514,0.2050173 -0.449556,0 -0.765727,-0.4989577 -0.316171,-0.5014279 -0.316171,-1.2103431 0,-0.7089153 0.316171,-1.207873 0.316171,-0.5014279 0.765727,-0.5014279 0.476727,0 0.703975,0.5705903 l -0.158085,0.066692 q -0.165496,-0.4717868 -0.54589,-0.4717868 -0.377923,0 -0.647163,0.4544962 -0.266769,0.4520261 -0.266769,1.0893088 0,0.6372827 0.266769,1.0893088 0.26924,0.449556 0.647163,0.449556 0.365573,0 0.587881,-0.1976071 0.187727,-0.1679659 0.511308,-0.7089152 z"
         style="font-family:'UKIJ Elipbe';-inkscape-font-specification:'UKIJ Elipbe'"
         id="path33574" />
      <path
         d="M 38.627331,6.4327412 V 5.3360221 h -0.0049 l -0.07657,0.1309147 -0.145735,-0.086453 0.222308,-0.3680431 V 3.6514221 q 0,-0.2692396 0.121034,-0.4470859 0.111154,-0.1605557 0.254419,-0.1605557 0.130915,0 0.229718,0.1630258 0.0988,0.1605557 0.0988,0.4026243 0,0.365573 -0.167966,0.758317 -0.101274,0.2346584 -0.363103,0.674334 v 0.1259745 q 0.261829,-0.4297953 0.617522,-0.4297953 0.222308,0 0.377923,0.167966 0.177846,0.1803164 0.177846,0.4742569 v 0.6619836 q 0,0.096333 0.05928,0.1679659 0.06175,0.071633 0.123504,0.071633 0.150675,0 0.232188,-0.1432651 l 0.444616,-0.758317 0.140795,0.086453 -0.439676,0.758317 q -0.130914,0.2223079 -0.377923,0.2223079 -0.167966,0 -0.26924,-0.1506754 -0.08151,-0.1259745 -0.08151,-0.254419 V 5.3804837 q 0,-0.2173677 -0.116094,-0.3433422 -0.116094,-0.1259745 -0.271709,-0.1259745 -0.25936,0 -0.486608,0.3631029 -0.130914,0.2074874 -0.130914,0.3754534 v 0.7830179 z m 0.163025,-2.7813191 v 1.067078 Q 39.1584,4.0639268 39.1584,3.6217811 v -0.012351 q 0,-0.1827865 -0.05928,-0.2988806 -0.05187,-0.1012736 -0.101273,-0.1012736 -0.06175,0 -0.128445,0.1111539 -0.07904,0.1333848 -0.07904,0.3309918 z"
         style="font-family:'UKIJ Elipbe';-inkscape-font-specification:'UKIJ Elipbe'"
         id="path33576" />
      <path
         d="m 42.164496,4.7481412 h 0.167966 v 1.2992662 q 0,0.086453 0.04693,0.1605558 0.0494,0.074103 0.128444,0.074103 0.158086,0 0.234659,-0.1383249 l 0.434735,-0.7632572 0.145735,0.086453 -0.434735,0.758317 q -0.125975,0.2223079 -0.380394,0.2223079 -0.165496,0 -0.266769,-0.1506754 -0.07657,-0.113624 -0.07657,-0.2346583 v -0.014821 q -0.27665,0.4001543 -0.691625,0.4001543 -0.29394,0 -0.494017,-0.2173677 -0.200077,-0.2173678 -0.200077,-0.5360091 0,-0.4001543 0.274179,-0.6891546 0.25689,-0.2766498 0.585411,-0.2766498 0.343342,0 0.526129,0.2519489 z m -0.531069,0.140795 q -0.242069,0 -0.454496,0.2223079 -0.227248,0.2395985 -0.227248,0.5631801 0,0.2667695 0.140795,0.4372055 0.140795,0.1704361 0.358163,0.1704361 0.254419,0 0.484137,-0.2074874 0.229718,-0.2074874 0.229718,-0.4866073 0,-0.6990349 -0.531069,-0.6990349 z"
         style="font-family:'UKIJ Elipbe';-inkscape-font-specification:'UKIJ Elipbe'"
         id="path33578" />
      <path
         d="m 45.227406,5.3804837 0.143265,0.086453 -0.414975,0.7237357 q -0.140795,0.2470088 -0.365573,0.2470088 -0.160556,0 -0.27665,-0.1210343 -0.116094,-0.1210343 -0.121034,-0.308761 l 0.09139,-0.9114624 v -0.01235 q 0,-0.061752 -0.03952,-0.113624 -0.04693,-0.054342 -0.118564,-0.054342 h -0.25689 q -0.153145,0 -0.224778,-0.091393 -0.0099,0.1012736 -0.135854,0.3186414 l -0.187727,0.3235815 -0.145735,-0.086453 0.187726,-0.3186414 q 0.160556,-0.2741797 0.160556,-0.4396756 h 0.172906 q 0.03952,0.1259745 0.172906,0.1259745 h 0.242069 q 0.01976,-0.00247 0.03705,-0.00247 0.101274,0 0.200078,0.088923 0.103743,0.1210343 0.103743,0.2494788 0,0.017291 -0.0025,0.034581 l -0.08645,0.9040522 q 0,0.1012736 0.06916,0.1753762 0.06916,0.071633 0.158086,0.071633 0.123505,0 0.224778,-0.1704361 z"
         style="font-family:'UKIJ Elipbe';-inkscape-font-specification:'UKIJ Elipbe'"
         id="path33580" />
      <path
         d="m 45.444773,5.3360221 -0.07163,0.1309147 -0.145735,-0.086453 0.212427,-0.3680431 V 3.6514221 q 0,-0.2692396 0.121034,-0.4470859 0.116095,-0.1605557 0.25936,-0.1605557 0.130914,0 0.227248,0.1630258 0.09633,0.1605557 0.09633,0.4026243 0,0.365573 -0.167966,0.758317 -0.101273,0.2445387 -0.358163,0.674334 v 1.0053258 q 0.0099,0.056812 0.05928,0.1729062 0.04693,0.061752 0.116094,0.061752 0.158085,0 0.234658,-0.1383249 l 0.434736,-0.7632572 0.145735,0.086453 -0.434736,0.758317 q -0.125974,0.2223079 -0.380393,0.2223079 -0.165496,0 -0.26183,-0.1506754 -0.08151,-0.1160941 -0.08151,-0.2494789 z m 0.167966,-1.6846 v 1.067078 q 0.363103,-0.647163 0.363103,-1.1090695 0,-0.1753762 -0.05928,-0.2988806 -0.05187,-0.1012736 -0.09633,-0.1012736 -0.06175,0 -0.128445,0.1111539 -0.07904,0.1333848 -0.07904,0.3309918 z"
         style="font-family:'UKIJ Elipbe';-inkscape-font-specification:'UKIJ Elipbe'"
         id="path33582" />
      <path
         d="m 46.588425,5.6225523 v 0.017291 q 0,0.2766499 0.150675,0.4544962 0.153145,0.1827865 0.414975,0.1827865 0.251949,0 0.57553,-0.2395985 0.28406,-0.2025472 0.452026,-0.449556 l 0.140795,-0.2074874 0.145736,0.086453 q -0.0494,0.076573 -0.150676,0.2173677 -0.192667,0.2618293 -0.481667,0.4791971 -0.372983,0.2791199 -0.681744,0.2791199 -0.333462,0 -0.536009,-0.2321883 -0.202548,-0.2321882 -0.202548,-0.5730604 0,-0.338402 0.217368,-0.619992 0.217368,-0.2840602 0.511308,-0.2840602 0.612582,0 0.612582,0.4619065 v 0.00741 q 0,0.254419 -0.207487,0.3853337 -0.177847,0.1111539 -0.461907,0.1111539 -0.106213,0 -0.498957,-0.076573 z m 0.0099,-0.1605557 q 0.0247,0.00494 0.256889,0.039521 0.153146,0.024701 0.259359,0.024701 0.464377,0 0.474257,-0.3235815 v -0.014821 q 0,-0.1383249 -0.08645,-0.2074874 -0.09633,-0.076573 -0.298881,-0.076573 -0.02717,0 -0.05928,0.00247 -0.163025,0.00494 -0.333461,0.1827865 -0.167966,0.1753763 -0.212428,0.3729833 z"
         style="font-family:'UKIJ Elipbe';-inkscape-font-specification:'UKIJ Elipbe'"
         id="path33584" />
      <path
         d="m 49.00911,4.5554743 q 0.09386,0.1580856 0.28159,0.3408722 0.187727,0.1803164 0.244539,0.28159 0.106214,0.1778463 0.106214,0.4446158 0,0.2988807 -0.153146,0.5211886 0.511309,-0.2173678 0.82007,-0.7632572 l 0.140795,0.086453 q -0.459437,0.8200692 -1.351138,0.9658044 -0.08892,0.01482 -0.130915,0.01482 -0.419915,0 -0.597761,-0.4396757 l 0.143265,-0.081513 q 0.0247,0.056812 0.05434,0.1012736 0.07163,0.1160942 0.172906,0.1852566 0.101273,0.069163 0.212427,0.069163 0.03952,0 0.111154,-0.01235 0.163026,-0.044462 0.26924,-0.1901968 0.140795,-0.1926669 0.140795,-0.4569663 0,-0.2025472 -0.05681,-0.3137012 -0.05434,-0.1111539 -0.224778,-0.2741797 -0.167966,-0.1654959 -0.289,-0.3260516 l -0.437206,0.758317 -0.145735,-0.086453 0.481667,-0.8250094 z"
         style="font-family:'UKIJ Elipbe';-inkscape-font-specification:'UKIJ Elipbe'"
         id="path33586" />
      <path
         d="m 52.990891,6.1635016 1.10166,-3.1345416 0.158085,0.059282 -1.173292,3.3444991 H 52.904438 L 51.736087,3.0882421 51.891702,3.02896 Z"
         style="font-family:'UKIJ Elipbe';-inkscape-font-specification:'UKIJ Elipbe'"
         id="path33588" />
      <path
         d="M 54.502585,5.4669368 54.35685,5.3804837 54.468004,5.1878168 q 0.130914,-0.2223079 0.140795,-0.4396756 h 0.163025 v 1.2548047 q 0,0.2420686 0.192667,0.2840601 0.106214,0 0.175377,-0.071633 0.05187,-0.044462 0.133384,-0.1877267 l 0.372984,-0.647163 0.148205,0.086453 -0.400154,0.6817442 q -0.177847,0.2988807 -0.390274,0.2988807 -0.177847,0 -0.289001,-0.1259745 Q 54.603858,6.1956127 54.603858,5.9930655 V 5.2792101 Z m 0.05681,-1.1930525 q 0,-0.1333848 0.130915,-0.1333848 0.135854,0 0.135854,0.1333848 0,0.1358548 -0.135854,0.1358548 -0.130915,0 -0.130915,-0.1358548 z"
         style="font-family:'UKIJ Elipbe';-inkscape-font-specification:'UKIJ Elipbe'"
         id="path33590" />
      <path
         d="m 56.335391,4.5554743 q 0.09386,0.1580856 0.28159,0.3408722 0.187727,0.1803164 0.244539,0.28159 0.106213,0.1778463 0.106213,0.4446158 0,0.2988807 -0.153145,0.5211886 0.511308,-0.2173678 0.820069,-0.7632572 l 0.140795,0.086453 q -0.459436,0.8200692 -1.351138,0.9658044 -0.08892,0.01482 -0.130915,0.01482 -0.419914,0 -0.597761,-0.4396757 l 0.143265,-0.081513 q 0.0247,0.056812 0.05434,0.1012736 0.07163,0.1160942 0.172906,0.1852566 0.101274,0.069163 0.212428,0.069163 0.03952,0 0.111154,-0.01235 0.163026,-0.044462 0.269239,-0.1901968 0.140795,-0.1926669 0.140795,-0.4569663 0,-0.2025472 -0.05681,-0.3137012 -0.05434,-0.1111539 -0.224778,-0.2741797 -0.167966,-0.1654959 -0.289,-0.3260516 l -0.437205,0.758317 -0.145736,-0.086453 0.481668,-0.8250094 z"
         style="font-family:'UKIJ Elipbe';-inkscape-font-specification:'UKIJ Elipbe'"
         id="path33592" />
      <path
         d="m 58.321341,4.5554743 q 0.09386,0.1580856 0.28159,0.3408722 0.187727,0.1803164 0.244539,0.28159 0.106214,0.1778463 0.106214,0.4446158 0,0.2988807 -0.153146,0.5211886 0.511309,-0.2173678 0.82007,-0.7632572 l 0.140795,0.086453 q -0.459437,0.8200692 -1.351138,0.9658044 -0.08892,0.01482 -0.130915,0.01482 -0.419915,0 -0.597761,-0.4396757 l 0.143265,-0.081513 q 0.0247,0.056812 0.05434,0.1012736 0.07163,0.1160942 0.172906,0.1852566 0.101273,0.069163 0.212427,0.069163 0.03952,0 0.111154,-0.01235 0.163026,-0.044462 0.26924,-0.1901968 0.140795,-0.1926669 0.140795,-0.4569663 0,-0.2025472 -0.05681,-0.3137012 -0.05434,-0.1111539 -0.224778,-0.2741797 -0.167966,-0.1654959 -0.289,-0.3260516 l -0.437206,0.758317 -0.145735,-0.086453 0.481667,-0.8250094 z"
         style="font-family:'UKIJ Elipbe';-inkscape-font-specification:'UKIJ Elipbe'"
         id="path33594" />
      <path
         d="m 61.080429,5.7386464 q -0.05928,0.2988807 -0.261829,0.4964877 -0.217368,0.2074874 -0.501428,0.2074874 -0.328521,0 -0.528599,-0.2272481 -0.200077,-0.2272481 -0.200077,-0.5878809 0,-0.3680431 0.229718,-0.6298724 0.229719,-0.2642995 0.55824,-0.2642995 0.07657,0 0.153146,0.014821 l -0.03458,0.167966 q -0.05187,-0.017291 -0.118565,-0.017291 -0.261829,0 -0.442145,0.2173678 -0.177847,0.2148976 -0.177847,0.5113082 0,0.3137012 0.165496,0.4866073 0.153146,0.1630258 0.395214,0.1630258 0.293941,0 0.474257,-0.2593592 0.106214,-0.1457352 0.133385,-0.3433422 -0.153146,-0.091393 -0.259359,-0.2890003 -0.106214,-0.1976071 -0.106214,-0.363103 0,-0.1877266 0.130915,-0.1877266 0.143265,0 0.274179,0.2124275 0.135855,0.2173678 0.135855,0.4890774 v 0.037051 q 0.116094,0.049402 0.244539,0.049402 0.328522,0 0.469317,-0.2420686 l 0.148205,0.086453 q -0.192667,0.3235815 -0.612582,0.3235815 -0.158086,0 -0.26924,-0.051872 z M 60.944575,5.4866975 q -0.0049,-0.1457352 -0.09139,-0.3211115 -0.0741,-0.1506753 -0.111154,-0.1506753 -0.0049,0 -0.0099,0.00247 -0.01482,0.00988 -0.01482,0.044462 0,0.081513 0.0741,0.222308 0.07657,0.140795 0.153146,0.2025472 z"
         style="font-family:'UKIJ Elipbe';-inkscape-font-specification:'UKIJ Elipbe'"
         id="path33596" />
      <path
         d="m 62.028945,5.3360221 -0.07163,0.1309147 -0.145735,-0.086453 0.212427,-0.3680431 V 3.6514221 q 0,-0.2692396 0.121035,-0.4470859 0.116094,-0.1605557 0.259359,-0.1605557 0.130915,0 0.227248,0.1630258 0.09633,0.1605557 0.09633,0.4026243 0,0.365573 -0.167966,0.758317 -0.101273,0.2445387 -0.358162,0.674334 v 1.0053258 q 0.0099,0.056812 0.05928,0.1729062 0.04693,0.061752 0.116094,0.061752 0.158086,0 0.234658,-0.1383249 l 0.434736,-0.7632572 0.145735,0.086453 -0.434735,0.758317 q -0.125975,0.2223079 -0.380394,0.2223079 -0.165496,0 -0.261829,-0.1506754 -0.08151,-0.1160941 -0.08151,-0.2494789 z m 0.167966,-1.6846 v 1.067078 q 0.363102,-0.647163 0.363102,-1.1090695 0,-0.1753762 -0.05928,-0.2988806 -0.05187,-0.1012736 -0.09633,-0.1012736 -0.06175,0 -0.128445,0.1111539 -0.07904,0.1333848 -0.07904,0.3309918 z"
         style="font-family:'UKIJ Elipbe';-inkscape-font-specification:'UKIJ Elipbe'"
         id="path33598" />
    </g>
    <g
       id="g9126"
       transform="matrix(0.81177163,-0.58396793,0.58396793,0.81177163,-14.594438,40.405512)">
      <path
         sodipodi:nodetypes="cssscc"
         inkscape:connector-curvature="0"
         id="path4530"
         d="m 126.56264,10.843875 c -0.68146,-0.02293 -1.40702,-0.600842 -1.37814,-1.2760229 0.0289,-0.6751796 0.54636,-1.3365983 1.22783,-1.3136677 0.34073,0.011464 0.74549,0.1233403 0.9516,0.3453265 0.21653,0.2332151 0.3043,0.3911153 0.28986,0.7287066 -0.39604,0.5456569 -0.71646,0.9771045 -1.09115,1.5156575 z"
         style="fill:#ffff00;fill-opacity:1;stroke:none;stroke-width:0.0828487;stroke-linejoin:round;stroke-miterlimit:4;stroke-dasharray:none;stroke-opacity:1" />
      <path
         sodipodi:nodetypes="cssscc"
         inkscape:connector-curvature="0"
         id="path4530-3"
         d="m 127.09278,10.10137 c -0.72896,-0.05703 -1.53213,-0.6908192 -1.53425,-1.3884721 -0.002,-0.697653 0.51826,-1.3571914 1.24722,-1.3001649 0.36449,0.028514 0.80226,0.1641162 1.03324,0.4040201 0.24266,0.2520411 0.34411,0.4198127 0.34517,0.7686411 -0.39634,0.5456144 -0.71749,0.9766716 -1.09138,1.5159758 z"
         style="fill:#ffff00;stroke:none;stroke-width:0.0870292;stroke-linejoin:round;stroke-miterlimit:4;stroke-dasharray:none;stroke-opacity:1" />
      <path
         sodipodi:nodetypes="cssscc"
         inkscape:connector-curvature="0"
         id="path4530-7"
         d="m 130.82915,13.940466 c 0.23798,0.638972 1.01625,1.143654 1.64737,0.902026 0.63113,-0.241627 1.09416,-0.942244 0.85618,-1.581217 -0.11899,-0.319486 -0.35352,-0.667835 -0.62943,-0.792851 -0.28987,-0.131343 -0.46746,-0.16447 -0.78303,-0.04366 -0.39179,0.548716 -0.69927,0.989482 -1.09109,1.515696 z"
         style="fill:#ffff00;fill-opacity:1;stroke:none;stroke-width:0.0828487;stroke-linejoin:round;stroke-miterlimit:4;stroke-dasharray:none;stroke-opacity:1" />
      <path
         sodipodi:nodetypes="cssscc"
         inkscape:connector-curvature="0"
         id="path4530-3-5"
         d="m 131.36506,13.202113 c 0.28539,0.673198 1.14128,1.233745 1.80355,1.014397 0.66228,-0.219349 1.1226,-0.922132 0.83722,-1.595331 -0.14269,-0.336599 -0.4102,-0.708724 -0.71099,-0.85164 -0.31602,-0.150147 -0.50731,-0.193118 -0.83845,-0.08344 -0.39165,0.548992 -0.69854,0.990329 -1.09133,1.516017 z"
         style="fill:#ffff00;fill-opacity:1;stroke:none;stroke-width:0.0870292;stroke-linejoin:round;stroke-miterlimit:4;stroke-dasharray:none;stroke-opacity:1" />
      <path
         style="fill:#ffffff;stroke:#ffffff;stroke-width:0.0786324;stroke-linecap:butt;stroke-linejoin:miter;stroke-miterlimit:4;stroke-dasharray:none;stroke-opacity:1"
         d="m 126.61646,14.942363 c 0.0161,0.108261 0.0206,0.213637 -0.0357,0.30391 l -1.07467,1.441948 1.43503,-1.25577 c 0.092,-0.0684 0.14542,-0.08331 0.19729,-0.09601"
         id="path4575"
         inkscape:connector-curvature="0"
         sodipodi:nodetypes="ccccc" />
      <path
         style="fill:#ffffff;fill-opacity:1;stroke:#2d5086;stroke-width:0.0414898px;stroke-linecap:butt;stroke-linejoin:miter;stroke-opacity:1"
         d="m 129.34866,7.0220764 3.04275,2.1904532 c 0.49052,0.2903713 0.8271,0.6328771 0.36238,1.2467374 l -2.8995,3.900855 c -0.55195,0.78104 -1.16462,1.245434 -1.8475,1.396717"
         id="path4579"
         inkscape:connector-curvature="0"
         sodipodi:nodetypes="ccccc" />
      <path
         style="fill:#ffffff;fill-opacity:1;stroke:#2d5086;stroke-width:0.0198576;stroke-linejoin:round;stroke-miterlimit:4;stroke-dasharray:none;stroke-opacity:1"
         d="m 127.34344,15.537498 c -6.4e-4,-0.0039 -0.45529,-0.343461 -1.00827,-0.741925 -0.5823,-0.419636 -0.97122,-0.851738 -1.02805,-0.900062 -0.26389,-0.369449 -0.32562,-0.605121 -0.22241,-0.929542 0.0552,-0.173495 -0.053,-0.01821 2.00181,-2.871876 1.22871,-1.7063874 1.93317,-2.6782244 1.99182,-2.7478625 0.0499,-0.059258 0.11449,-0.1286591 0.14352,-0.1542217 0.0685,-0.06025 0.13616,-0.1094861 0.14336,-0.1042361 0.004,0.00343 1.01024,5.4273783 -0.63913,7.7233283 l -0.68917,0.959335 -0.28525,0.01989 c -0.16203,0.0113 -0.40761,-0.248939 -0.40823,-0.25283 z"
         id="path4581"
         inkscape:connector-curvature="0"
         sodipodi:nodetypes="scccccccscss" />
      <path
         style="opacity:0.982916;fill:#ffffff;fill-opacity:1;stroke:#2d5086;stroke-width:0.0198576;stroke-linejoin:round;stroke-miterlimit:4;stroke-dasharray:none;stroke-opacity:1"
         d="m 128.03692,15.770436 c 0,0 0.0404,-0.01413 0.0856,-0.02574 0.21255,-0.0545 0.53437,-0.203785 0.74412,-0.345185 0.26106,-0.175991 0.49767,-0.393218 0.7444,-0.683426 0.11043,-0.129895 2.98644,-3.998176 3.1665,-4.25901 0.14762,-0.213835 0.17953,-0.280959 0.2024,-0.425751 0.0299,-0.1893082 -0.0247,-0.3477253 -0.17712,-0.5141954 -0.0522,-0.056983 -0.20671,-0.1700099 -1.72352,-1.2605921 l -1.66621,-1.1979948 0.0347,-0.017639 c 0.0191,-0.0097 0.0784,-0.02477 0.13174,-0.033481 0.11004,-0.017968 0.33421,-0.00365 0.46116,0.041328 0.69947,0.1707468 1.27815,0.6125182 1.75882,0.9215761 1.60238,1.2319222 1.50269,1.4692149 1.61898,1.6331945 0.15969,0.2251919 0.17087,0.4618677 0.0339,0.7179057 -0.0346,0.0647 -0.51255,0.731493 -2.06914,2.886731 l -2.02416,2.802596 -0.0683,0.05442 c -0.10623,0.08468 -0.18901,0.157236 -0.29795,0.175019 -0.15424,0.02517 -0.29334,0.03394 -0.54368,-0.06229 -0.0749,-0.0072 -0.73489,-0.38545 -0.73489,-0.38545 z"
         id="path4583"
         inkscape:connector-curvature="0"
         sodipodi:nodetypes="sccssscscscccccscccccs" />
      <path
         style="fill:#ffff00;stroke:none;stroke-width:0.0786324;stroke-linecap:butt;stroke-linejoin:miter;stroke-miterlimit:4;stroke-dasharray:none;stroke-opacity:1"
         d="m 130.23437,7.1036661 c -0.73178,-0.295285 -0.98733,-0.099134 -1.32559,0.3915554 l -3.60047,4.9886795 c -0.47466,0.592921 -0.41346,1.071101 0.1909,1.629752 0.82967,0.723181 1.68456,1.414443 2.68417,1.96894 0.80575,0.416624 1.18013,0.06702 1.49418,-0.434981 l 3.60047,-4.988681 c 0.40493,-0.484865 0.33678,-0.945847 -0.24203,-1.5841613 -0.75896,-0.8453447 -1.77744,-1.5910262 -2.80163,-1.9711036 z"
         id="path4528"
         inkscape:connector-curvature="0"
         sodipodi:nodetypes="ccccccccc" />
      <path
         sodipodi:nodetypes="cccccccccc"
         inkscape:connector-curvature="0"
         id="path4585"
         d="m 130.47343,10.062011 c -0.24253,0.0695 -0.50969,0.09593 -0.83096,-0.1968205 -0.62399,-0.6422801 -0.0532,-1.2224805 0.0528,-1.3862483 0.18998,-0.2697962 0.58672,-0.5957 1.25253,-0.1729658 0.42657,0.3234985 0.3708,0.6296408 0.19688,0.9315393 0.23531,-0.1113574 0.47286,-0.2089845 0.77055,0.062711 0.14816,0.1435858 0.21647,0.2743675 0.18219,0.6102218 -0.0636,0.3971925 -0.51226,0.6982285 -0.64769,0.7378535 -0.28738,0.0926 -0.56063,0.04295 -0.78865,-0.127519 -0.14217,-0.09546 -0.1888,-0.259869 -0.18763,-0.45877 z"
         style="fill:#ffffff;fill-opacity:0.76253;stroke:#0a121f;stroke-width:0.0416095px;stroke-linecap:butt;stroke-linejoin:miter;stroke-opacity:1" />
      <ellipse
         ry="0.35807896"
         rx="0.28377631"
         cy="-68.710579"
         cx="111.49115"
         id="path4587"
         style="fill:#000000;fill-opacity:1;stroke:#0a121f;stroke-width:0.1055;stroke-linejoin:round;stroke-miterlimit:4;stroke-dasharray:none;stroke-opacity:1"
         transform="rotate(35.749855)" />
      <ellipse
         ry="0.28060344"
         rx="0.239737"
         cy="-68.478386"
         cx="112.00569"
         id="path4587-3"
         style="fill:#000000;fill-opacity:1;stroke:#0a121f;stroke-width:0.0858403;stroke-linejoin:round;stroke-miterlimit:4;stroke-dasharray:none;stroke-opacity:1"
         transform="rotate(35.749855)" />
      <path
         style="fill:none;stroke:#ffffff;stroke-width:0.167487;stroke-linecap:round;stroke-linejoin:round;stroke-miterlimit:4;stroke-dasharray:none;stroke-opacity:1"
         d="m 131.32857,5.3413494 0.63446,0.1977952 -0.0602,2.4037599 1.3159,-1.072522 -0.0924,0.5420201"
         id="path4611"
         inkscape:connector-curvature="0" />
      <path
         style="fill:#ffff00;stroke:#000000;stroke-width:0.183213;stroke-linecap:round;stroke-linejoin:round;stroke-miterlimit:4;stroke-dasharray:none;stroke-opacity:1"
         d="m 130.61548,12.274738 -0.0649,-0.953038 -0.53313,0.147053 -0.23952,-0.962236 -0.28857,0.07711 -0.0382,-0.234676 -1.32686,0.404301"
         id="path4613"
         inkscape:connector-curvature="0" />
      <path
         style="fill:#ffff00;fill-opacity:1;stroke:#ffff00;stroke-width:0.0654332;stroke-linecap:round;stroke-linejoin:round;stroke-miterlimit:4;stroke-dasharray:none;stroke-opacity:1"
         d="m 126.24336,15.781688 c 0.35372,-0.479109 0.4042,-0.552386 0.41626,-0.604374 0.008,-0.03253 0.0152,-0.06121 0.017,-0.06372 0.001,-0.0025 0.0744,0.04665 0.16136,0.109243 0.14573,0.10491 0.15623,0.114964 0.13442,0.128815 -0.013,0.0083 -0.20737,0.175271 -0.43192,0.371137 -0.22455,0.195866 -0.47384,0.411918 -0.55397,0.480117 l -0.14569,0.123998 z"
         id="path4708"
         inkscape:connector-curvature="0" />
    </g>
  </g>
</svg>
