<?xml version="1.0" encoding="UTF-8" standalone="no"?>
<!-- Created with Inkscape (http://www.inkscape.org/) -->

<svg
   width="500"
   height="300"
   id="svg2"
   version="1.1"
   inkscape:version="1.1.1 (3bf5ae0d25, 2021-09-20)"
   sodipodi:docname="error404.svg"
   inkscape:export-filename="C:\downloads\icones\innovIT\user_story_rules_of_the_game.png"
   inkscape:export-xdpi="90"
   inkscape:export-ydpi="90"
   xmlns:inkscape="http://www.inkscape.org/namespaces/inkscape"
   xmlns:sodipodi="http://sodipodi.sourceforge.net/DTD/sodipodi-0.dtd"
   xmlns="http://www.w3.org/2000/svg"
   xmlns:svg="http://www.w3.org/2000/svg"
   xmlns:rdf="http://www.w3.org/1999/02/22-rdf-syntax-ns#"
   xmlns:cc="http://creativecommons.org/ns#"
   xmlns:dc="http://purl.org/dc/elements/1.1/">
  <defs
     id="defs4" />
  <sodipodi:namedview
     id="base"
     pagecolor="#000000"
     bordercolor="#666666"
     borderopacity="1"
     inkscape:pageopacity="0"
     inkscape:pageshadow="2"
     inkscape:zoom="0.9773797"
     inkscape:cx="359.63505"
     inkscape:cy="161.14515"
     inkscape:document-units="px"
     inkscape:current-layer="layer1"
     showgrid="false"
     height="400px"
     inkscape:window-width="1366"
     inkscape:window-height="700"
     inkscape:window-x="0"
     inkscape:window-y="0"
     inkscape:window-maximized="1"
     width="1052.36px"
     inkscape:pagecheckerboard="0"
     showborder="true" />
  <metadata
     id="metadata7">
    <rdf:RDF>
      <cc:Work
         rdf:about="">
        <dc:format>image/svg+xml</dc:format>
        <dc:type
           rdf:resource="http://purl.org/dc/dcmitype/StillImage" />
      </cc:Work>
    </rdf:RDF>
  </metadata>
  <g
     inkscape:label="Layer 1"
     inkscape:groupmode="layer"
     id="layer1"
     transform="translate(0,-475.36531)">
    <g
       id="g910"
       transform="translate(0,-28)">
      <path
         sodipodi:nodetypes="cccc"
         inkscape:connector-curvature="0"
         id="path3084"
         d="m 243.7351,685.28804 c 7.91862,-4.16269 14.33827,-9.8595 14.00309,-17.82211 0.0163,-4.44714 -19.17005,-9.4737 -26.73319,-0.42433 -1.09029,6.08216 7.71448,12.16431 12.7301,18.24644 z"
         style="fill:none;stroke:#ffffff;stroke-width:2.33446;stroke-linecap:round;stroke-linejoin:round;stroke-miterlimit:4;stroke-dasharray:none;stroke-opacity:1" />
      <path
         sodipodi:nodetypes="ccccccc"
         inkscape:connector-curvature="0"
         id="path3854"
         d="m 238.56686,662.00178 4.80081,-17.10292 c 2.84354,-10.04753 -0.60859,-16.31767 -5.70096,-21.60365 -15.17752,-5.45027 -29.92227,-6.57312 -43.50739,3.90064 -17.19077,19.53286 -15.10276,29.02795 -8.70147,39.3067 6.61615,6.84102 13.98746,10.66148 22.20376,11.10188 8.72421,-0.20614 16.47807,-2.99984 22.8039,-9.60164"
         style="fill:none;stroke:#ffffff;stroke-width:2.33446;stroke-linecap:butt;stroke-linejoin:miter;stroke-miterlimit:4;stroke-dasharray:none;stroke-opacity:1" />
      <path
         sodipodi:nodetypes="cccccccccc"
         inkscape:connector-curvature="0"
         id="path3856"
         d="m 253.26936,663.20197 c -1.40133,-3.79842 -2.67354,-6.72994 -3.00051,-13.80234 -0.48395,-5.95101 1.37316,-11.60196 3.30056,-16.80286 2.51701,-3.90065 4.98493,-7.80132 11.40195,-11.70197 4.36605,-2.83518 9.09959,-5.30287 17.40296,-4.20072 6.10102,1.17239 12.20206,2.0324 18.3031,10.20172 3.47171,8.79738 4.22946,17.20703 2.10036,25.20429 -0.96621,6.81791 -3.18999,13.47861 -10.50178,19.50332 -5.91604,3.22545 -12.49587,3.13178 -19.20327,2.40041 -7.13367,-0.74516 -12.96896,-2.05584 -15.3026,-6.00103"
         style="fill:none;stroke:#ffffff;stroke-width:2.33446;stroke-linecap:butt;stroke-linejoin:miter;stroke-miterlimit:4;stroke-dasharray:none;stroke-opacity:1" />
      <ellipse
         id="path3858"
         style="fill:#ffffff;stroke:#ffffff;stroke-width:2.33446;stroke-linecap:round;stroke-linejoin:round;stroke-miterlimit:4;stroke-dasharray:none;stroke-dashoffset:0;stroke-opacity:1"
         cx="228.46896"
         cy="655.55786"
         rx="6.4711266"
         ry="6.7893791" />
      <ellipse
         style="fill:#ffffff;stroke:#ffffff;stroke-width:2.33446;stroke-linecap:round;stroke-linejoin:round;stroke-miterlimit:4;stroke-dasharray:none;stroke-dashoffset:0;stroke-opacity:1"
         id="path3860"
         ry="11.168998"
         rx="11.979128"
         cy="645.66736"
         cx="266.22983" />
      <path
         sodipodi:nodetypes="cccccc"
         inkscape:connector-curvature="0"
         id="path3862"
         d="m 177.95658,770.393 47.40804,-0.0729 c 2.42277,-4.99339 3.72923,-12.69274 -7.20123,-19.80335 -10.73786,-5.10551 -21.02844,-3.94906 -31.20529,-1.20022 -8.67738,4.21914 -12.80174,12.43505 -9.00152,21.07638 z"
         style="fill:none;stroke:#ffffff;stroke-width:3.25571;stroke-linecap:butt;stroke-linejoin:miter;stroke-miterlimit:4;stroke-dasharray:none;stroke-opacity:1" />
      <path
         style="fill:none;stroke:#ffffff;stroke-width:3.25571;stroke-linecap:butt;stroke-linejoin:miter;stroke-miterlimit:4;stroke-dasharray:none;stroke-opacity:1"
         d="m 264.09682,770.393 47.40804,-0.0729 c 2.42278,-4.99339 3.72923,-12.69274 -7.20122,-19.80335 -10.73787,-5.10551 -21.02845,-3.94906 -31.2053,-1.20022 -8.67738,4.21914 -12.80174,12.43505 -9.00152,21.07638 z"
         id="path3864"
         inkscape:connector-curvature="0"
         sodipodi:nodetypes="cccccc" />
      <path
         sodipodi:nodetypes="cccc"
         inkscape:connector-curvature="0"
         id="path3866"
         d="m 204.36106,746.91619 c -7.30537,-3.8618 -11.896,-11.34331 -14.40246,-21.60366 -1.54791,-10.40177 -3.62506,-20.80354 1.80032,-31.2053 6.13291,-11.67232 16.03496,-13.9218 25.20428,-18.00307"
         style="fill:none;stroke:#ffffff;stroke-width:2.33446;stroke-linecap:butt;stroke-linejoin:miter;stroke-miterlimit:4;stroke-dasharray:none;stroke-opacity:1" />
      <path
         sodipodi:nodetypes="cccc"
         inkscape:connector-curvature="0"
         id="path3868"
         d="m 282.97442,747.51631 c 5.2533,-6.08659 10.52806,-12.04437 15.00255,-22.8039 4.67963,-12.445 3.31535,-23.96017 -2.40042,-34.80589 -8.4298,-11.25965 -15.54601,-10.91958 -26.10442,-16.50282"
         style="fill:none;stroke:#ffffff;stroke-width:2.33446;stroke-linecap:butt;stroke-linejoin:miter;stroke-miterlimit:4;stroke-dasharray:none;stroke-opacity:1" />
      <path
         inkscape:connector-curvature="0"
         id="path3870"
         d="m 226.56483,763.71905 h 36.00612"
         style="fill:none;stroke:#ffffff;stroke-width:3.00443;stroke-linecap:butt;stroke-linejoin:miter;stroke-miterlimit:4;stroke-dasharray:none;stroke-opacity:1" />
      <path
         sodipodi:nodetypes="ccccccccccccccc"
         inkscape:connector-curvature="0"
         id="path3872"
         d="m 187.72273,747.66545 c -5.795,-5.09374 -11.33587,-10.52915 -13.13309,-17.22201 -3.61713,-8.69282 -7.37588,-19.31803 -5.99219,-31.92815 l 0.87883,-16.62193 c -7.77949,-3.61425 -24.26046,11.73945 -32.34003,6.43784 -1.94012,-11.98599 27.71411,-20.95743 30.64269,-30.20066 9.00915,-15.19326 9.06193,-30.38651 13.5486,-45.57974 6.52059,-13.39405 17.89948,-26.50128 34.38007,-31.3759 18.7383,-6.319 36.84192,-5.03302 52.42057,-1.87309 16.12223,4.18935 28.84978,13.22596 37.86007,28.47833 l 15.40037,43.56102 c 4.49248,11.54288 33.35136,27.58651 29.93962,39.72948 -4.64115,4.28941 -20.28115,-17.20987 -35.456,-15.54232 -2.40937,14.65005 5.02824,31.59325 -2.99166,49.0987 -7.08527,13.07421 -10.86997,16.67703 -15.25479,23.03843"
         style="fill:none;stroke:#ffffff;stroke-width:4.00954;stroke-linecap:butt;stroke-linejoin:miter;stroke-miterlimit:4;stroke-dasharray:none;stroke-opacity:1" />
      <path
         style="font-variation-settings:normal;vector-effect:none;fill:none;fill-opacity:1;stroke:#ffffff;stroke-width:0.557829px;stroke-linecap:butt;stroke-linejoin:miter;stroke-miterlimit:4;stroke-dasharray:none;stroke-dashoffset:0;stroke-opacity:1;-inkscape-stroke:none;stop-color:#000000"
         d="m 237.87261,567.3074 c 15.06143,3.24369 24.64099,-20.08012 12.4457,-28.99062 -8.97998,-12.00806 -34.51609,5.75059 -15.55328,12.57917 11.89855,2.12189 28.31688,-2.38119 32.72014,-14.75155 3.58137,-16.21344 -17.46466,-19.85706 -29.25355,-19.67653 -12.66757,-2.16004 -19.16191,15.03801 -3.59922,14.55799 11.94586,-0.38735 31.81601,2.6577 33.0222,-14.24131 -3.41396,-11.11741 -18.35931,-9.75603 -27.78342,-9.59264 -9.98333,1.01518 -19.80029,5.20403 -26.75571,12.55886"
         id="path867" />
      <text
         xml:space="preserve"
         style="font-size:527.974px;line-height:1.25;font-family:Mallanna;-inkscape-font-specification:Mallanna;text-decoration-color:#000000;letter-spacing:0px;word-spacing:0px;fill:#37abc8;fill-opacity:0.996078;stroke-width:12.3744;-inkscape-stroke:none;stop-color:#000000"
         x="386.41089"
         y="610.16858"
         id="text3593"
         transform="scale(0.80947598,1.2353671)"><tspan
           sodipodi:role="line"
           id="tspan3591"
           x="386.41089"
           y="610.16858"
           style="font-style:normal;font-variant:normal;font-weight:normal;font-stretch:normal;font-family:Karumbi;-inkscape-font-specification:Karumbi;fill:#37abc8;fill-opacity:0.996078;stroke-width:12.3744">4</tspan></text>
      <text
         xml:space="preserve"
         style="font-size:527.974px;line-height:1.25;font-family:Mallanna;-inkscape-font-specification:Mallanna;text-decoration-color:#000000;letter-spacing:0px;word-spacing:0px;fill:#37abc8;fill-opacity:0.996078;stroke-width:12.3744;-inkscape-stroke:none;stop-color:#000000"
         x="1.8768744"
         y="610.16858"
         id="text11281"
         transform="scale(0.80947599,1.2353671)"><tspan
           sodipodi:role="line"
           id="tspan11279"
           x="1.8768744"
           y="610.16858"
           style="font-style:normal;font-variant:normal;font-weight:normal;font-stretch:normal;font-family:Karumbi;-inkscape-font-specification:Karumbi;fill:#37abc8;fill-opacity:0.996078;stroke-width:12.3744">4</tspan></text>
    </g>
  </g>
</svg>
