<?xml version="1.0" encoding="UTF-8" standalone="no"?>
<!-- Generator: Adobe Illustrator 16.0.0, SVG Export Plug-In . SVG Version: 6.00 Build 0)  -->

<svg
   version="1.1"
   id="Capa_1"
   x="0px"
   y="0px"
   width="69.599998"
   height="67.764999"
   viewBox="0 0 69.600007 67.765019"
   xml:space="preserve"
   sodipodi:docname="favorite-bookmark.svg"
   inkscape:version="1.1.1 (3bf5ae0d25, 2021-09-20)"
   xmlns:inkscape="http://www.inkscape.org/namespaces/inkscape"
   xmlns:sodipodi="http://sodipodi.sourceforge.net/DTD/sodipodi-0.dtd"
   xmlns="http://www.w3.org/2000/svg"
   xmlns:svg="http://www.w3.org/2000/svg"><defs
   id="defs39">
	
</defs><sodipodi:namedview
   id="namedview37"
   pagecolor="#080e17"
   bordercolor="#666666"
   borderopacity="1.0"
   inkscape:pageshadow="2"
   inkscape:pageopacity="0"
   inkscape:pagecheckerboard="0"
   showgrid="false"
   inkscape:zoom="3.1617317"
   inkscape:cx="24.353743"
   inkscape:cy="30.521249"
   inkscape:window-width="1366"
   inkscape:window-height="700"
   inkscape:window-x="1920"
   inkscape:window-y="0"
   inkscape:window-maximized="1"
   inkscape:current-layer="Capa_1"
   height="41.89899px"
   width="69.6px" />

<g
   id="g6">
</g>
<g
   id="g8">
</g>
<g
   id="g10">
</g>
<g
   id="g12">
</g>
<g
   id="g14">
</g>
<g
   id="g16">
</g>
<g
   id="g18">
</g>
<g
   id="g20">
</g>
<g
   id="g22">
</g>
<g
   id="g24">
</g>
<g
   id="g26">
</g>
<g
   id="g28">
</g>
<g
   id="g30">
</g>
<g
   id="g32">
</g>
<g
   id="g34">
</g>
<g
   id="g7613"
   transform="matrix(1.5051083,0,0,1.5051083,-78.193758,-2.8638955)"
   style="stroke-width:1.4;stroke-miterlimit:4;stroke-dasharray:none"><path
     style="fill:none;fill-opacity:1;stroke:#ffffff;stroke-width:1.4;stroke-linecap:round;stroke-linejoin:round;stroke-miterlimit:4;stroke-dasharray:none;stroke-opacity:1;paint-order:stroke fill markers"
     d="m 72.789627,45.26061 c -4.208265,-2.215913 -7.141076,-4.457658 -11.747433,-8.979361 -3.95649,-3.88377 -5.31985,-5.56129 -6.50386,-8.002544 -1.276266,-2.631494 -1.749987,-4.63266 -1.864975,-7.878361 -0.143656,-4.054956 0.387189,-6.443758 2.271592,-10.222189 1.701171,-3.4110435 3.324994,-5.1490225 5.979637,-6.4000137 1.930393,-0.9096953 3.063512,-1.1763456 4.983174,-1.1726581 3.300234,0.00637 6.670147,1.5606153 8.398946,3.8737915 0.33241,0.4447724 0.717577,0.8086804 0.855927,0.8086804 0.138349,0 0.523518,-0.363908 0.855926,-0.8086804 0.643411,-0.8608995 2.327433,-2.2168588 3.489451,-2.8096742 1.136396,-0.5797502 3.356968,-1.0668168 4.863688,-1.0668168 1.756584,0 3.173627,0.3573215 5.028997,1.2681022 2.753591,1.3517156 4.338649,3.2069607 6.168497,7.2199631 1.293214,2.836125 1.769123,4.714016 1.900791,7.500399 0.217227,4.597143 -0.993495,8.852588 -3.552908,12.487634 -1.127777,1.601746 -6.805737,7.255916 -9.147759,9.109414 -3.563232,2.82 -8.897827,6.057406 -9.94842,6.037414 -0.113227,-0.0022 -1.027306,-0.436449 -2.031271,-0.9651 z"
     id="path2366" /><g
     id="g7402"
     transform="matrix(0.53478814,0,0,0.53478814,62.071481,11.412284)"
     style="fill:#ffffff;stroke-width:2.61786;stroke-miterlimit:4;stroke-dasharray:none"><g
       id="g7342"
       style="fill:#ffffff;stroke-width:2.61786;stroke-miterlimit:4;stroke-dasharray:none">
	<g
   id="g7340"
   style="fill:#ffffff;stroke-width:2.61786;stroke-miterlimit:4;stroke-dasharray:none">
		<polygon
   points="34.578,10.259 34.93,10.5 35.432,10.815 35.479,11.176 34.938,11.288 34.866,12.057 35.514,12.057 36.376,11.974 36.821,11.445 36.348,11.261 36.089,10.963 35.7,10.333 35.514,9.442 34.783,9.591 34.578,9.905 "
   id="polygon7328"
   style="fill:#ffffff;stroke-width:2.61786;stroke-miterlimit:4;stroke-dasharray:none" />
		<polygon
   points="34.809,11.111 34.848,10.629 34.419,10.444 33.819,10.583 33.374,11.297 33.374,11.76 33.893,11.76 "
   id="polygon7330"
   style="fill:#ffffff;stroke-width:2.61786;stroke-miterlimit:4;stroke-dasharray:none" />
		<path
   d="m 22.459,13.158 -0.132,0.34 h -0.639 v 0.33 h 0.152 c 0,0 0.009,0.07 0.022,0.162 l 0.392,-0.033 0.245,-0.152 0.064,-0.307 0.317,-0.027 0.125,-0.258 -0.291,-0.06 z"
   id="path7332"
   style="fill:#ffffff;stroke-width:2.61786;stroke-miterlimit:4;stroke-dasharray:none" />
		<polygon
   points="21.298,13.717 21.02,13.498 20.812,13.757 20.787,14.08 21.25,14.041 "
   id="polygon7334"
   style="fill:#ffffff;stroke-width:2.61786;stroke-miterlimit:4;stroke-dasharray:none" />
		<path
   d="M 48.619,24.061 C 48.612,23.35 48.576,22.644 48.509,21.949 48.284,19.632 47.73,17.411 46.9,15.329 46.838,15.174 46.781,15.017 46.715,14.864 45.609,12.251 44.056,9.872 42.155,7.819 42.03,7.685 41.903,7.553 41.776,7.423 41.417,7.05 41.048,6.686 40.666,6.337 36.344,2.402 30.604,0 24.312,0 17.967,0 12.186,2.445 7.852,6.44 6.842,7.371 5.914,8.387 5.072,9.475 1.896,13.583 0,18.729 0,24.312 c 0,13.407 10.907,24.313 24.313,24.313 9.43,0 17.617,-5.4 21.647,-13.268 0.862,-1.682 1.533,-3.475 1.985,-5.354 0.115,-0.477 0.214,-0.956 0.3,-1.441 0.245,-1.381 0.379,-2.801 0.379,-4.25 10e-4,-0.084 -0.004,-0.167 -0.005,-0.251 z m -4.576,-9.717 0.141,-0.158 c 0.185,0.359 0.358,0.724 0.523,1.094 l -0.23,-0.009 -0.434,0.06 z M 40.53,10.102 40.534,9.016 c 0.382,0.405 0.75,0.822 1.102,1.254 l -0.438,0.652 -1.531,-0.014 -0.096,-0.319 z M 11.202,7.403 V 7.362 h 0.487 l 0.042,-0.167 h 0.797 v 0.348 l -0.229,0.306 h -1.098 z m 0.778,1.085 c 0,0 0.487,-0.083 0.529,-0.083 0.042,0 0,0.486 0,0.486 L 11.411,8.96 11.202,8.71 Z m 33.612,9.651 h -1.779 l -1.084,-0.807 -1.141,0.111 v 0.696 h -0.361 l -0.39,-0.278 -1.976,-0.501 v -1.28 l -2.504,0.195 -0.776,0.417 h -0.994 l -0.487,-0.049 -1.207,0.67 v 1.261 l -2.467,1.78 0.205,0.76 h 0.5 L 31,21.838 l -0.352,0.129 -0.019,1.892 2.132,2.428 h 0.928 l 0.056,-0.148 h 1.668 l 0.481,-0.445 h 0.946 l 0.519,0.52 1.41,0.146 -0.187,1.875 1.565,2.763 -0.824,1.575 0.056,0.742 0.649,0.647 v 1.784 l 0.852,1.146 v 1.482 h 0.736 c -4.096,5.029 -10.33,8.25 -17.305,8.25 C 12.009,46.625 2,36.615 2,24.312 2,21.215 2.636,18.263 3.781,15.58 V 14.884 L 4.579,13.915 C 4.856,13.392 5.153,12.882 5.47,12.385 L 5.506,12.79 4.58,13.915 C 4.293,14.457 4.025,15.011 3.782,15.58 v 1.27 l 0.927,0.446 v 1.765 l 0.889,1.517 0.723,0.111 0.093,-0.52 -0.853,-1.316 -0.167,-1.279 h 0.5 l 0.211,1.316 1.233,1.799 -0.318,0.581 0.784,1.199 1.947,0.482 v -0.315 l 0.779,0.111 -0.074,0.556 0.612,0.112 0.945,0.258 1.335,1.521 1.705,0.129 0.167,1.391 -1.167,0.816 -0.055,1.242 -0.167,0.76 1.688,2.113 0.129,0.724 c 0,0 0.612,0.166 0.687,0.166 0.074,0 1.372,0.983 1.372,0.983 v 3.819 l 0.463,0.13 -0.315,1.762 0.779,1.039 -0.144,1.746 1.029,1.809 1.321,1.154 1.328,0.024 0.13,-0.427 -0.976,-0.822 0.056,-0.408 0.175,-0.5 0.037,-0.51 -0.66,-0.02 -0.333,-0.418 0.548,-0.527 0.074,-0.398 -0.612,-0.175 0.036,-0.37 0.872,-0.132 1.326,-0.637 0.445,-0.816 1.391,-1.78 -0.316,-1.392 0.427,-0.741 1.279,0.039 0.861,-0.682 0.278,-2.686 0.955,-1.213 0.167,-0.779 -0.871,-0.279 -0.575,-0.943 -1.965,-0.02 -1.558,-0.594 -0.074,-1.111 -0.52,-0.909 -1.409,-0.021 -0.814,-1.278 -0.723,-0.353 -0.037,0.39 -1.316,0.078 -0.482,-0.671 -1.373,-0.279 -1.131,1.307 -1.78,-0.302 -0.129,-2.006 -1.299,-0.222 0.521,-0.984 -0.149,-0.565 -1.707,1.141 -1.074,-0.131 -0.383,-0.839 0.234,-0.865 0.592,-1.091 1.363,-0.69 2.632,-0.001 -0.007,0.803 0.946,0.44 -0.075,-1.372 0.682,-0.686 1.376,-0.904 0.094,-0.636 1.372,-1.428 1.459,-0.808 -0.129,-0.106 0.988,-0.93 0.362,0.096 0.166,0.208 0.375,-0.416 0.092,-0.041 -0.411,-0.058 -0.417,-0.139 v -0.4 l 0.221,-0.181 h 0.487 l 0.223,0.098 0.193,0.39 0.236,-0.036 v -0.034 l 0.068,0.023 0.684,-0.105 0.097,-0.334 0.39,0.098 v 0.362 l -0.362,0.249 h 10e-4 l 0.053,0.397 1.239,0.382 c 0,0 10e-4,0.005 0.003,0.015 l 0.285,-0.024 0.019,-0.537 -0.982,-0.447 -0.056,-0.258 0.815,-0.278 0.036,-0.78 -0.852,-0.519 -0.056,-1.315 -1.168,0.574 h -0.426 l 0.112,-1.001 -1.59,-0.375 -0.658,0.497 v 1.516 l -1.183,0.375 -0.474,0.988 -0.514,0.083 V 10.551 L 16.903,10.397 16.347,10.035 16.123,9.216 18.112,8.052 19.085,7.756 19.183,8.41 19.725,8.382 19.767,8.053 20.334,7.972 20.344,7.857 20.1,7.756 20.044,7.408 l 0.697,-0.059 0.421,-0.438 0.023,-0.032 0.005,0.002 0.128,-0.132 1.465,-0.185 0.648,0.55 -1.699,0.905 2.162,0.51 0.28,-0.723 h 0.945 L 25.453,7.176 24.785,7.009 V 6.212 L 22.69,5.284 21.244,5.451 20.428,5.878 20.484,6.916 19.631,6.786 19.5,6.212 20.317,5.47 18.834,5.396 l -0.426,0.129 -0.185,0.5 0.556,0.094 -0.111,0.556 -0.945,0.056 -0.148,0.37 -1.371,0.038 c 0,0 -0.038,-0.778 -0.093,-0.778 -0.055,0 1.075,-0.019 1.075,-0.019 L 18.003,5.544 17.557,5.321 16.964,5.897 15.98,5.841 15.387,5.025 H 14.126 L 12.81,6.008 h 1.206 l 0.11,0.353 -0.313,0.291 1.335,0.037 0.204,0.482 L 13.849,7.115 13.776,6.744 12.831,6.54 12.33,6.262 11.205,6.271 C 14.888,3.588 19.417,2 24.312,2 c 5.642,0 10.797,2.109 14.73,5.574 l -0.265,0.474 -1.029,0.403 -0.434,0.471 0.1,0.549 0.531,0.074 0.32,0.8 0.916,-0.369 0.151,1.07 h -0.276 l -0.752,-0.111 -0.834,0.14 -0.807,1.14 -1.154,0.181 -0.167,0.988 0.487,0.115 -0.141,0.635 -1.146,-0.23 -1.051,0.23 -0.223,0.585 0.182,1.228 0.617,0.289 1.035,-0.006 0.699,-0.063 0.213,-0.556 1.092,-1.419 0.719,0.147 0.708,-0.64 0.132,0.5 1.742,1.175 -0.213,0.286 -0.785,-0.042 0.302,0.428 0.483,0.106 0.566,-0.236 -0.012,-0.682 0.251,-0.126 -0.202,-0.214 -1.162,-0.648 -0.306,-0.861 h 0.966 l 0.309,0.306 0.832,0.717 0.035,0.867 0.862,0.918 0.321,-1.258 0.597,-0.326 0.112,1.029 0.583,0.64 1.163,-0.02 c 0.225,0.579 0.427,1.168 0.604,1.769 z m -32.331,-7.093 0.584,-0.278 0.528,0.126 -0.182,0.709 -0.57,0.181 z m 3.099,1.669 v 0.459 h -1.334 l -0.5,-0.139 0.125,-0.32 0.641,-0.265 h 0.876 v 0.265 z m 0.614,0.64 V 13.8 l -0.334,0.215 -0.416,0.077 c 0,0 0,-0.667 0,-0.737 z m -0.376,-0.181 v -0.529 l 0.459,0.418 z m 0.209,1.07 v 0.433 l -0.319,0.32 h -0.709 l 0.111,-0.486 0.335,-0.029 0.069,-0.167 z m -1.766,-0.889 h 0.737 l -0.945,1.321 -0.39,-0.209 0.084,-0.556 z m 3.018,0.737 v 0.432 H 17.35 l -0.194,-0.28 v -0.402 h 0.056 z m -0.655,-0.594 0.202,-0.212 0.341,0.212 -0.273,0.225 z m 28.55,5.767 0.07,-0.082 c 0.029,0.126 0.06,0.252 0.088,0.38 z"
   id="path7336"
   style="fill:#ffffff;stroke-width:2.61786;stroke-miterlimit:4;stroke-dasharray:none" />
		<path
   d="M 3.782,14.884 V 15.58 C 4.025,15.012 4.293,14.458 4.58,13.915 Z"
   id="path7338"
   style="fill:#ffffff;stroke-width:2.61786;stroke-miterlimit:4;stroke-dasharray:none" />
	</g>
</g><g
       id="g7344"
       style="fill:#ffffff;stroke-width:2.61786;stroke-miterlimit:4;stroke-dasharray:none">
</g><g
       id="g7346"
       style="fill:#ffffff;stroke-width:2.61786;stroke-miterlimit:4;stroke-dasharray:none">
</g><g
       id="g7348"
       style="fill:#ffffff;stroke-width:2.61786;stroke-miterlimit:4;stroke-dasharray:none">
</g><g
       id="g7350"
       style="fill:#ffffff;stroke-width:2.61786;stroke-miterlimit:4;stroke-dasharray:none">
</g><g
       id="g7352"
       style="fill:#ffffff;stroke-width:2.61786;stroke-miterlimit:4;stroke-dasharray:none">
</g><g
       id="g7354"
       style="fill:#ffffff;stroke-width:2.61786;stroke-miterlimit:4;stroke-dasharray:none">
</g><g
       id="g7356"
       style="fill:#ffffff;stroke-width:2.61786;stroke-miterlimit:4;stroke-dasharray:none">
</g><g
       id="g7358"
       style="fill:#ffffff;stroke-width:2.61786;stroke-miterlimit:4;stroke-dasharray:none">
</g><g
       id="g7360"
       style="fill:#ffffff;stroke-width:2.61786;stroke-miterlimit:4;stroke-dasharray:none">
</g><g
       id="g7362"
       style="fill:#ffffff;stroke-width:2.61786;stroke-miterlimit:4;stroke-dasharray:none">
</g><g
       id="g7364"
       style="fill:#ffffff;stroke-width:2.61786;stroke-miterlimit:4;stroke-dasharray:none">
</g><g
       id="g7366"
       style="fill:#ffffff;stroke-width:2.61786;stroke-miterlimit:4;stroke-dasharray:none">
</g><g
       id="g7368"
       style="fill:#ffffff;stroke-width:2.61786;stroke-miterlimit:4;stroke-dasharray:none">
</g><g
       id="g7370"
       style="fill:#ffffff;stroke-width:2.61786;stroke-miterlimit:4;stroke-dasharray:none">
</g><g
       id="g7372"
       style="fill:#ffffff;stroke-width:2.61786;stroke-miterlimit:4;stroke-dasharray:none">
</g></g></g></svg>
