<?xml version="1.0" encoding="UTF-8" standalone="no"?>
<!-- Generator: Adobe Illustrator 16.0.0, SVG Export Plug-In . SVG Version: 6.00 Build 0)  -->

<svg
   version="1.1"
   id="Capa_1"
   x="0px"
   y="0px"
   width="46"
   height="45"
   viewBox="0 0 46.000006 45.000013"
   xml:space="preserve"
   sodipodi:docname="gallery.svg"
   inkscape:version="1.1.1 (3bf5ae0d25, 2021-09-20)"
   xmlns:inkscape="http://www.inkscape.org/namespaces/inkscape"
   xmlns:sodipodi="http://sodipodi.sourceforge.net/DTD/sodipodi-0.dtd"
   xmlns="http://www.w3.org/2000/svg"
   xmlns:svg="http://www.w3.org/2000/svg"><defs
   id="defs39">
	
</defs><sodipodi:namedview
   id="namedview37"
   pagecolor="#080e17"
   bordercolor="#666666"
   borderopacity="1.0"
   inkscape:pageshadow="2"
   inkscape:pageopacity="0"
   inkscape:pagecheckerboard="0"
   showgrid="false"
   inkscape:zoom="6.3234634"
   inkscape:cx="34.395708"
   inkscape:cy="28.544484"
   inkscape:window-width="1366"
   inkscape:window-height="708"
   inkscape:window-x="0"
   inkscape:window-y="312"
   inkscape:window-maximized="1"
   inkscape:current-layer="Capa_1"
   height="41.89899px"
   width="101.89899px" />

<g
   id="g6">
</g>
<g
   id="g8">
</g>
<g
   id="g10">
</g>
<g
   id="g12">
</g>
<g
   id="g14">
</g>
<g
   id="g16">
</g>
<g
   id="g18">
</g>
<g
   id="g20">
</g>
<g
   id="g22">
</g>
<g
   id="g24">
</g>
<g
   id="g26">
</g>
<g
   id="g28">
</g>
<g
   id="g30">
</g>
<g
   id="g32">
</g>
<g
   id="g34">
</g>
<path
   d="m 38.318679,34.152516 c -0.584692,2.054815 -2.21789,3.665274 -4.328294,4.192875 L 14.436142,43.233754 C 11.13066,43.997565 7.8882083,41.999314 7.1374323,38.745956 L 2.0839643,16.847592 c -0.737378,-3.19531 1.220627,-6.392415 4.402002,-7.1877593 L 11.030849,8.5236109 m 33.266735,20.2908811 -8.461978,-7.236251 -6.509329,5.831243 c -0.427114,0.382621 -1.112437,0.255176 -1.517915,-0.1503 L 19.008164,15.203838 10.614415,28.814492 m 6.01485,-27.6683124 h 21.653469 c 3.321906,0 6.01485,2.6929399 6.01485,6.0148511 V 28.814492 c 0,3.321911 -2.692944,6.014851 -6.01485,6.014851 H 16.629265 c -3.32191,0 -6.01485,-2.69294 -6.01485,-6.014851 V 7.1610307 c 0,-3.3219112 2.69294,-6.0148511 6.01485,-6.0148511 z m 15.638611,4.8118803 h 4.811881 c 1.32876,0 2.405947,1.0771762 2.405947,2.4059409 v 4.8118802 c 0,1.328765 -1.077187,2.405941 -2.405947,2.405941 h -4.811881 c -1.328764,0 -2.40594,-1.077176 -2.40594,-2.405941 V 8.3640008 c 0,-1.3287647 1.077176,-2.4059409 2.40594,-2.4059409 z"
   id="path861"
   style="fill:none;stroke:#ffffff;stroke-width:1.39;stroke-miterlimit:4;stroke-dasharray:none"
   sodipodi:nodetypes="cccssscccscccssssssssssssssssss" /></svg>
