<?xml version="1.0" encoding="UTF-8" standalone="no"?>
<!-- Created with Inkscape (http://www.inkscape.org/) -->

<svg
   width="33.812"
   height="33.153999"
   viewBox="0 0 8.9460917 8.7719958"
   version="1.1"
   id="svg27798"
   inkscape:version="1.1.1 (3bf5ae0d25, 2021-09-20)"
   sodipodi:docname="heart.svg"
   inkscape:export-filename="/home/vissol/eclipse-workspace/angrybee-web-framework/public/pictures/website-angrybee-global-title.png"
   inkscape:export-xdpi="40.639999"
   inkscape:export-ydpi="40.639999"
   xmlns:inkscape="http://www.inkscape.org/namespaces/inkscape"
   xmlns:sodipodi="http://sodipodi.sourceforge.net/DTD/sodipodi-0.dtd"
   xmlns="http://www.w3.org/2000/svg"
   xmlns:svg="http://www.w3.org/2000/svg">
  <sodipodi:namedview
     id="namedview27800"
     pagecolor="#080e17"
     bordercolor="#666666"
     borderopacity="1.0"
     inkscape:pageshadow="2"
     inkscape:pageopacity="0"
     inkscape:pagecheckerboard="0"
     inkscape:document-units="mm"
     showgrid="false"
     inkscape:zoom="2.8284271"
     inkscape:cx="102.70726"
     inkscape:cy="-11.490485"
     inkscape:window-width="1920"
     inkscape:window-height="1056"
     inkscape:window-x="1366"
     inkscape:window-y="0"
     inkscape:window-maximized="1"
     inkscape:current-layer="layer1"
     units="px" />
  <defs
     id="defs27795">
    <filter
       style="color-interpolation-filters:sRGB"
       inkscape:label="Colorize"
       id="filter9549"
       x="-0.092943184"
       y="-0.076478511"
       width="1.1858864"
       height="1.152957">
      <feComposite
         in2="SourceGraphic"
         operator="arithmetic"
         k1="0.435132"
         k2="2.14979"
         result="composite1"
         id="feComposite9535"
         k3="0"
         k4="0" />
      <feColorMatrix
         in="composite1"
         values="1"
         type="saturate"
         result="colormatrix1"
         id="feColorMatrix9537" />
      <feFlood
         flood-opacity="1"
         flood-color="rgb(158,130,0)"
         result="flood1"
         id="feFlood9539" />
      <feBlend
         in="flood1"
         in2="colormatrix1"
         mode="multiply"
         result="blend1"
         id="feBlend9541" />
      <feBlend
         in2="blend1"
         mode="screen"
         result="blend2"
         id="feBlend9543" />
      <feColorMatrix
         in="blend2"
         values="1"
         type="saturate"
         result="colormatrix2"
         id="feColorMatrix9545" />
      <feComposite
         in="colormatrix2"
         in2="SourceGraphic"
         operator="in"
         result="composite2"
         id="feComposite9547" />
    </filter>
    <filter
       style="color-interpolation-filters:sRGB"
       inkscape:label="Colorize"
       id="filter12324"
       x="-0.0024700202"
       y="-0.0014586025"
       width="1.0049462"
       height="1.0029168">
      <feComposite
         in2="SourceGraphic"
         operator="arithmetic"
         k1="0.435132"
         k2="2.14979"
         result="composite1"
         id="feComposite12310"
         k3="0"
         k4="0" />
      <feColorMatrix
         in="composite1"
         values="1"
         type="saturate"
         result="colormatrix1"
         id="feColorMatrix12312" />
      <feFlood
         flood-opacity="1"
         flood-color="rgb(227,254,0)"
         result="flood1"
         id="feFlood12314" />
      <feBlend
         in="flood1"
         in2="colormatrix1"
         mode="multiply"
         result="blend1"
         id="feBlend12316" />
      <feBlend
         in2="blend1"
         mode="screen"
         result="blend2"
         id="feBlend12318" />
      <feColorMatrix
         in="blend2"
         values="1"
         type="saturate"
         result="colormatrix2"
         id="feColorMatrix12320" />
      <feComposite
         in="colormatrix2"
         in2="SourceGraphic"
         operator="in"
         result="composite2"
         id="feComposite12322" />
    </filter>
    <filter
       style="color-interpolation-filters:sRGB"
       inkscape:label="Colorize"
       id="filter12340"
       x="-0.0022072955"
       y="-0.0013364296"
       width="1.0044146"
       height="1.0026728">
      <feComposite
         in2="SourceGraphic"
         operator="arithmetic"
         k1="0.435132"
         k2="2.14979"
         result="composite1"
         id="feComposite12326"
         k3="0"
         k4="0" />
      <feColorMatrix
         in="composite1"
         values="1"
         type="saturate"
         result="colormatrix1"
         id="feColorMatrix12328" />
      <feFlood
         flood-opacity="1"
         flood-color="rgb(227,254,0)"
         result="flood1"
         id="feFlood12330" />
      <feBlend
         in="flood1"
         in2="colormatrix1"
         mode="multiply"
         result="blend1"
         id="feBlend12332" />
      <feBlend
         in2="blend1"
         mode="screen"
         result="blend2"
         id="feBlend12334" />
      <feColorMatrix
         in="blend2"
         values="1"
         type="saturate"
         result="colormatrix2"
         id="feColorMatrix12336" />
      <feComposite
         in="colormatrix2"
         in2="SourceGraphic"
         operator="in"
         result="composite2"
         id="feComposite12338" />
    </filter>
    <filter
       style="color-interpolation-filters:sRGB"
       inkscape:label="Colorize"
       id="filter12356"
       x="0"
       y="0"
       width="1"
       height="1">
      <feComposite
         in2="SourceGraphic"
         operator="arithmetic"
         k1="0.435132"
         k2="2.14979"
         result="composite1"
         id="feComposite12342"
         k3="0"
         k4="0" />
      <feColorMatrix
         in="composite1"
         values="1"
         type="saturate"
         result="colormatrix1"
         id="feColorMatrix12344" />
      <feFlood
         flood-opacity="1"
         flood-color="rgb(227,254,0)"
         result="flood1"
         id="feFlood12346" />
      <feBlend
         in="flood1"
         in2="colormatrix1"
         mode="multiply"
         result="blend1"
         id="feBlend12348" />
      <feBlend
         in2="blend1"
         mode="screen"
         result="blend2"
         id="feBlend12350" />
      <feColorMatrix
         in="blend2"
         values="1"
         type="saturate"
         result="colormatrix2"
         id="feColorMatrix12352" />
      <feComposite
         in="colormatrix2"
         in2="SourceGraphic"
         operator="in"
         result="composite2"
         id="feComposite12354" />
    </filter>
    <filter
       style="color-interpolation-filters:sRGB"
       inkscape:label="Colorize"
       id="filter12372"
       x="-0.031375773"
       y="-0.042165857"
       width="1.0627517"
       height="1.0843267">
      <feComposite
         in2="SourceGraphic"
         operator="arithmetic"
         k1="0.435132"
         k2="2.14979"
         result="composite1"
         id="feComposite12358"
         k3="0"
         k4="0" />
      <feColorMatrix
         in="composite1"
         values="1"
         type="saturate"
         result="colormatrix1"
         id="feColorMatrix12360" />
      <feFlood
         flood-opacity="1"
         flood-color="rgb(227,254,0)"
         result="flood1"
         id="feFlood12362" />
      <feBlend
         in="flood1"
         in2="colormatrix1"
         mode="multiply"
         result="blend1"
         id="feBlend12364" />
      <feBlend
         in2="blend1"
         mode="screen"
         result="blend2"
         id="feBlend12366" />
      <feColorMatrix
         in="blend2"
         values="1"
         type="saturate"
         result="colormatrix2"
         id="feColorMatrix12368" />
      <feComposite
         in="colormatrix2"
         in2="SourceGraphic"
         operator="in"
         result="composite2"
         id="feComposite12370" />
    </filter>
  </defs>
  <g
     inkscape:label="Calque 1"
     inkscape:groupmode="layer"
     id="layer1">
    <g
       id="g9126"
       transform="matrix(0.81177163,-0.58396793,0.58396793,0.81177163,-14.594438,40.405512)">
      <path
         sodipodi:nodetypes="cssscc"
         inkscape:connector-curvature="0"
         id="path4530"
         d="m 126.56264,10.843875 c -0.68146,-0.02293 -1.40702,-0.600842 -1.37814,-1.2760229 0.0289,-0.6751796 0.54636,-1.3365983 1.22783,-1.3136677 0.34073,0.011464 0.74549,0.1233403 0.9516,0.3453265 0.21653,0.2332151 0.3043,0.3911153 0.28986,0.7287066 -0.39604,0.5456569 -0.71646,0.9771045 -1.09115,1.5156575 z"
         style="fill:#ffff00;fill-opacity:1;stroke:none;stroke-width:0.0828487;stroke-linejoin:round;stroke-miterlimit:4;stroke-dasharray:none;stroke-opacity:1" />
      <path
         sodipodi:nodetypes="cssscc"
         inkscape:connector-curvature="0"
         id="path4530-3"
         d="m 127.09278,10.10137 c -0.72896,-0.05703 -1.53213,-0.6908192 -1.53425,-1.3884721 -0.002,-0.697653 0.51826,-1.3571914 1.24722,-1.3001649 0.36449,0.028514 0.80226,0.1641162 1.03324,0.4040201 0.24266,0.2520411 0.34411,0.4198127 0.34517,0.7686411 -0.39634,0.5456144 -0.71749,0.9766716 -1.09138,1.5159758 z"
         style="fill:#ffff00;stroke:none;stroke-width:0.0870292;stroke-linejoin:round;stroke-miterlimit:4;stroke-dasharray:none;stroke-opacity:1" />
      <path
         sodipodi:nodetypes="cssscc"
         inkscape:connector-curvature="0"
         id="path4530-7"
         d="m 130.82915,13.940466 c 0.23798,0.638972 1.01625,1.143654 1.64737,0.902026 0.63113,-0.241627 1.09416,-0.942244 0.85618,-1.581217 -0.11899,-0.319486 -0.35352,-0.667835 -0.62943,-0.792851 -0.28987,-0.131343 -0.46746,-0.16447 -0.78303,-0.04366 -0.39179,0.548716 -0.69927,0.989482 -1.09109,1.515696 z"
         style="fill:#ffff00;fill-opacity:1;stroke:none;stroke-width:0.0828487;stroke-linejoin:round;stroke-miterlimit:4;stroke-dasharray:none;stroke-opacity:1" />
      <path
         sodipodi:nodetypes="cssscc"
         inkscape:connector-curvature="0"
         id="path4530-3-5"
         d="m 131.36506,13.202113 c 0.28539,0.673198 1.14128,1.233745 1.80355,1.014397 0.66228,-0.219349 1.1226,-0.922132 0.83722,-1.595331 -0.14269,-0.336599 -0.4102,-0.708724 -0.71099,-0.85164 -0.31602,-0.150147 -0.50731,-0.193118 -0.83845,-0.08344 -0.39165,0.548992 -0.69854,0.990329 -1.09133,1.516017 z"
         style="fill:#ffff00;fill-opacity:1;stroke:none;stroke-width:0.0870292;stroke-linejoin:round;stroke-miterlimit:4;stroke-dasharray:none;stroke-opacity:1" />
      <path
         style="fill:#ffffff;stroke:#ffffff;stroke-width:0.0786324;stroke-linecap:butt;stroke-linejoin:miter;stroke-miterlimit:4;stroke-dasharray:none;stroke-opacity:1"
         d="m 126.61646,14.942363 c 0.0161,0.108261 0.0206,0.213637 -0.0357,0.30391 l -1.07467,1.441948 1.43503,-1.25577 c 0.092,-0.0684 0.14542,-0.08331 0.19729,-0.09601"
         id="path4575"
         inkscape:connector-curvature="0"
         sodipodi:nodetypes="ccccc" />
      <path
         style="fill:#ffffff;fill-opacity:1;stroke:#2d5086;stroke-width:0.0414898px;stroke-linecap:butt;stroke-linejoin:miter;stroke-opacity:1"
         d="m 129.34866,7.0220764 3.04275,2.1904532 c 0.49052,0.2903713 0.8271,0.6328771 0.36238,1.2467374 l -2.8995,3.900855 c -0.55195,0.78104 -1.16462,1.245434 -1.8475,1.396717"
         id="path4579"
         inkscape:connector-curvature="0"
         sodipodi:nodetypes="ccccc" />
      <path
         style="fill:#ffffff;fill-opacity:1;stroke:#2d5086;stroke-width:0.0198576;stroke-linejoin:round;stroke-miterlimit:4;stroke-dasharray:none;stroke-opacity:1"
         d="m 127.34344,15.537498 c -6.4e-4,-0.0039 -0.45529,-0.343461 -1.00827,-0.741925 -0.5823,-0.419636 -0.97122,-0.851738 -1.02805,-0.900062 -0.26389,-0.369449 -0.32562,-0.605121 -0.22241,-0.929542 0.0552,-0.173495 -0.053,-0.01821 2.00181,-2.871876 1.22871,-1.7063874 1.93317,-2.6782244 1.99182,-2.7478625 0.0499,-0.059258 0.11449,-0.1286591 0.14352,-0.1542217 0.0685,-0.06025 0.13616,-0.1094861 0.14336,-0.1042361 0.004,0.00343 1.01024,5.4273783 -0.63913,7.7233283 l -0.68917,0.959335 -0.28525,0.01989 c -0.16203,0.0113 -0.40761,-0.248939 -0.40823,-0.25283 z"
         id="path4581"
         inkscape:connector-curvature="0"
         sodipodi:nodetypes="scccccccscss" />
      <path
         style="opacity:0.982916;fill:#ffffff;fill-opacity:1;stroke:#2d5086;stroke-width:0.0198576;stroke-linejoin:round;stroke-miterlimit:4;stroke-dasharray:none;stroke-opacity:1"
         d="m 128.03692,15.770436 c 0,0 0.0404,-0.01413 0.0856,-0.02574 0.21255,-0.0545 0.53437,-0.203785 0.74412,-0.345185 0.26106,-0.175991 0.49767,-0.393218 0.7444,-0.683426 0.11043,-0.129895 2.98644,-3.998176 3.1665,-4.25901 0.14762,-0.213835 0.17953,-0.280959 0.2024,-0.425751 0.0299,-0.1893082 -0.0247,-0.3477253 -0.17712,-0.5141954 -0.0522,-0.056983 -0.20671,-0.1700099 -1.72352,-1.2605921 l -1.66621,-1.1979948 0.0347,-0.017639 c 0.0191,-0.0097 0.0784,-0.02477 0.13174,-0.033481 0.11004,-0.017968 0.33421,-0.00365 0.46116,0.041328 0.69947,0.1707468 1.27815,0.6125182 1.75882,0.9215761 1.60238,1.2319222 1.50269,1.4692149 1.61898,1.6331945 0.15969,0.2251919 0.17087,0.4618677 0.0339,0.7179057 -0.0346,0.0647 -0.51255,0.731493 -2.06914,2.886731 l -2.02416,2.802596 -0.0683,0.05442 c -0.10623,0.08468 -0.18901,0.157236 -0.29795,0.175019 -0.15424,0.02517 -0.29334,0.03394 -0.54368,-0.06229 -0.0749,-0.0072 -0.73489,-0.38545 -0.73489,-0.38545 z"
         id="path4583"
         inkscape:connector-curvature="0"
         sodipodi:nodetypes="sccssscscscccccscccccs" />
      <path
         style="fill:#ffff00;stroke:none;stroke-width:0.0786324;stroke-linecap:butt;stroke-linejoin:miter;stroke-miterlimit:4;stroke-dasharray:none;stroke-opacity:1"
         d="m 130.23437,7.1036661 c -0.73178,-0.295285 -0.98733,-0.099134 -1.32559,0.3915554 l -3.60047,4.9886795 c -0.47466,0.592921 -0.41346,1.071101 0.1909,1.629752 0.82967,0.723181 1.68456,1.414443 2.68417,1.96894 0.80575,0.416624 1.18013,0.06702 1.49418,-0.434981 l 3.60047,-4.988681 c 0.40493,-0.484865 0.33678,-0.945847 -0.24203,-1.5841613 -0.75896,-0.8453447 -1.77744,-1.5910262 -2.80163,-1.9711036 z"
         id="path4528"
         inkscape:connector-curvature="0"
         sodipodi:nodetypes="ccccccccc" />
      <path
         sodipodi:nodetypes="cccccccccc"
         inkscape:connector-curvature="0"
         id="path4585"
         d="m 130.47343,10.062011 c -0.24253,0.0695 -0.50969,0.09593 -0.83096,-0.1968205 -0.62399,-0.6422801 -0.0532,-1.2224805 0.0528,-1.3862483 0.18998,-0.2697962 0.58672,-0.5957 1.25253,-0.1729658 0.42657,0.3234985 0.3708,0.6296408 0.19688,0.9315393 0.23531,-0.1113574 0.47286,-0.2089845 0.77055,0.062711 0.14816,0.1435858 0.21647,0.2743675 0.18219,0.6102218 -0.0636,0.3971925 -0.51226,0.6982285 -0.64769,0.7378535 -0.28738,0.0926 -0.56063,0.04295 -0.78865,-0.127519 -0.14217,-0.09546 -0.1888,-0.259869 -0.18763,-0.45877 z"
         style="fill:#ffffff;fill-opacity:0.76253;stroke:#0a121f;stroke-width:0.0416095px;stroke-linecap:butt;stroke-linejoin:miter;stroke-opacity:1" />
      <ellipse
         ry="0.35807896"
         rx="0.28377631"
         cy="-68.710579"
         cx="111.49115"
         id="path4587"
         style="fill:#000000;fill-opacity:1;stroke:#0a121f;stroke-width:0.1055;stroke-linejoin:round;stroke-miterlimit:4;stroke-dasharray:none;stroke-opacity:1"
         transform="rotate(35.749855)" />
      <ellipse
         ry="0.28060344"
         rx="0.239737"
         cy="-68.478386"
         cx="112.00569"
         id="path4587-3"
         style="fill:#000000;fill-opacity:1;stroke:#0a121f;stroke-width:0.0858403;stroke-linejoin:round;stroke-miterlimit:4;stroke-dasharray:none;stroke-opacity:1"
         transform="rotate(35.749855)" />
      <path
         style="fill:none;stroke:#ffffff;stroke-width:0.167487;stroke-linecap:round;stroke-linejoin:round;stroke-miterlimit:4;stroke-dasharray:none;stroke-opacity:1"
         d="m 131.32857,5.3413494 0.63446,0.1977952 -0.0602,2.4037599 1.3159,-1.072522 -0.0924,0.5420201"
         id="path4611"
         inkscape:connector-curvature="0" />
      <path
         style="fill:#ffff00;stroke:#000000;stroke-width:0.183213;stroke-linecap:round;stroke-linejoin:round;stroke-miterlimit:4;stroke-dasharray:none;stroke-opacity:1"
         d="m 130.61548,12.274738 -0.0649,-0.953038 -0.53313,0.147053 -0.23952,-0.962236 -0.28857,0.07711 -0.0382,-0.234676 -1.32686,0.404301"
         id="path4613"
         inkscape:connector-curvature="0" />
      <path
         style="fill:#ffff00;fill-opacity:1;stroke:#ffff00;stroke-width:0.0654332;stroke-linecap:round;stroke-linejoin:round;stroke-miterlimit:4;stroke-dasharray:none;stroke-opacity:1"
         d="m 126.24336,15.781688 c 0.35372,-0.479109 0.4042,-0.552386 0.41626,-0.604374 0.008,-0.03253 0.0152,-0.06121 0.017,-0.06372 0.001,-0.0025 0.0744,0.04665 0.16136,0.109243 0.14573,0.10491 0.15623,0.114964 0.13442,0.128815 -0.013,0.0083 -0.20737,0.175271 -0.43192,0.371137 -0.22455,0.195866 -0.47384,0.411918 -0.55397,0.480117 l -0.14569,0.123998 z"
         id="path4708"
         inkscape:connector-curvature="0" />
    </g>
    <path
       style="font-variation-settings:normal;opacity:1;vector-effect:none;fill:#ff5555;fill-opacity:1;stroke:#ff5555;stroke-width:0.264583px;stroke-linecap:butt;stroke-linejoin:miter;stroke-miterlimit:4;stroke-dasharray:none;stroke-dashoffset:0;stroke-opacity:1;-inkscape-stroke:none;stop-color:#000000;stop-opacity:1"
       d="M 4.4808389,8.5449373 C 3.0092499,6.4899638 0.13917393,4.4000262 0.13229293,2.382836 0.14673293,0.11630833 2.8087869,-0.59234531 4.4808389,1.0164267 c 1.712714,-1.61157301 4.360634,-0.95944463 4.33269,1.4669078 -0.006,1.8046589 -2.883925,4.0426589 -4.33269,6.0616028 z"
       id="path957"
       sodipodi:nodetypes="ccccc" />
  </g>
</svg>
