<?xml version="1.0" encoding="UTF-8" standalone="no"?>
<svg
   width="69.599998"
   height="67.764999"
   viewBox="0 0 69.599998 67.764999"
   fill="none"
   version="1.1"
   id="svg4"
   sodipodi:docname="linux.svg"
   inkscape:version="1.1.1 (3bf5ae0d25, 2021-09-20)"
   xmlns:inkscape="http://www.inkscape.org/namespaces/inkscape"
   xmlns:sodipodi="http://sodipodi.sourceforge.net/DTD/sodipodi-0.dtd"
   xmlns="http://www.w3.org/2000/svg"
   xmlns:svg="http://www.w3.org/2000/svg">
  <defs
     id="defs8" />
  <sodipodi:namedview
     id="namedview6"
     pagecolor="#080e17"
     bordercolor="#666666"
     borderopacity="1.0"
     inkscape:pageshadow="2"
     inkscape:pageopacity="0"
     inkscape:pagecheckerboard="0"
     showgrid="false"
     inkscape:zoom="9.4166667"
     inkscape:cx="18.371681"
     inkscape:cy="30.637168"
     inkscape:window-width="1920"
     inkscape:window-height="1056"
     inkscape:window-x="0"
     inkscape:window-y="0"
     inkscape:window-maximized="1"
     inkscape:current-layer="svg4" />
  <path
     sodipodi:nodetypes="cccc"
     inkscape:connector-curvature="0"
     id="path3084"
     d="m 34.755583,37.265397 c 2.445829,-1.285738 4.428682,-3.045325 4.325154,-5.504745 0.0055,-1.373602 -5.921085,-2.92616 -8.257122,-0.131065 -0.336767,1.878606 2.382783,3.757204 3.931968,5.63581 z"
     style="fill:none;stroke:#ffffff;stroke-width:0.721049;stroke-linecap:round;stroke-linejoin:round;stroke-miterlimit:4;stroke-dasharray:none;stroke-opacity:1" />
  <path
     sodipodi:nodetypes="ccccccc"
     inkscape:connector-curvature="0"
     id="path3854"
     d="m 33.159252,30.072929 1.482839,-5.282607 c 0.878289,-3.103398 -0.187974,-5.040068 -1.760869,-6.672754 -4.687902,-1.68343 -9.242139,-2.030251 -13.438191,1.204791 -5.309744,6.03315 -4.66482,8.96591 -2.68764,12.140727 2.043544,2.112999 4.320326,3.293027 6.85811,3.429055 2.694659,-0.06364 5.089605,-0.926562 7.043476,-2.96567"
     style="fill:none;stroke:#ffffff;stroke-width:0.721049;stroke-linecap:butt;stroke-linejoin:miter;stroke-miterlimit:4;stroke-dasharray:none;stroke-opacity:1" />
  <path
     sodipodi:nodetypes="cccccccccc"
     inkscape:connector-curvature="0"
     id="path3856"
     d="m 37.700443,30.443632 c -0.43283,-1.173228 -0.825779,-2.07869 -0.926771,-4.263153 -0.149483,-1.838097 0.424131,-3.583511 1.019445,-5.189924 0.777434,-1.204801 1.539703,-2.409611 3.521738,-3.61441 1.348547,-0.875698 2.810605,-1.637904 5.37528,-1.297474 1.884434,0.362112 3.768876,0.627751 5.65331,3.151015 1.072309,2.717258 1.306356,5.314761 0.648742,7.784891 -0.298439,2.105862 -0.985299,4.163161 -3.2437,6.024022 -1.827296,0.996253 -3.859622,0.967317 -5.931348,0.741415 -2.203391,-0.230157 -4.005742,-0.634987 -4.726539,-1.853543"
     style="fill:none;stroke:#ffffff;stroke-width:0.721049;stroke-linecap:butt;stroke-linejoin:miter;stroke-miterlimit:4;stroke-dasharray:none;stroke-opacity:1" />
  <ellipse
     style="fill:#ffffff;stroke:#ffffff;stroke-width:0.721049;stroke-linecap:round;stroke-linejoin:round;stroke-miterlimit:4;stroke-dasharray:none;stroke-dashoffset:0;stroke-opacity:1"
     id="path3860"
     ry="3.4497864"
     rx="3.7000127"
     cy="25.027699"
     cx="41.703564" />
  <path
     sodipodi:nodetypes="cccccc"
     inkscape:connector-curvature="0"
     id="path3862"
     d="m 14.438463,63.551902 14.642992,-0.02255 C 29.829779,61.98703 30.23331,59.60892 26.8572,57.412656 c -3.316618,-1.576949 -6.495089,-1.219755 -9.638424,-0.370712 -2.680194,1.303174 -3.954096,3.840832 -2.780313,6.509899 z"
     style="fill:none;stroke:#ffffff;stroke-width:2;stroke-linecap:butt;stroke-linejoin:miter;stroke-miterlimit:4;stroke-dasharray:none;stroke-opacity:1" />
  <path
     style="fill:none;stroke:#ffffff;stroke-width:2;stroke-linecap:butt;stroke-linejoin:miter;stroke-miterlimit:4;stroke-dasharray:none;stroke-opacity:1"
     d="m 41.044734,63.551902 14.643002,-0.02255 c 0.748324,-1.542322 1.151855,-3.920432 -2.224255,-6.116696 -3.316627,-1.576949 -6.495089,-1.219755 -9.638433,-0.370712 -2.680195,1.303174 -3.954096,3.840832 -2.780314,6.509899 z"
     id="path3864"
     inkscape:connector-curvature="0"
     sodipodi:nodetypes="cccccc" />
  <path
     sodipodi:nodetypes="cccc"
     inkscape:connector-curvature="0"
     id="path3866"
     d="m 22.594057,56.300579 c -2.256428,-1.1928 -3.67434,-3.503628 -4.44851,-6.672754 -0.478113,-3.212817 -1.119681,-6.425625 0.556069,-9.638433 1.894279,-3.605248 4.95274,-4.300054 7.784881,-5.560637"
     style="fill:none;stroke:#ffffff;stroke-width:0.721049;stroke-linecap:butt;stroke-linejoin:miter;stroke-miterlimit:4;stroke-dasharray:none;stroke-opacity:1" />
  <path
     sodipodi:nodetypes="cccc"
     inkscape:connector-curvature="0"
     id="path3868"
     d="m 46.875491,56.485936 c 1.622595,-1.87997 3.251818,-3.720158 4.633865,-7.043476 1.445403,-3.843904 1.024018,-7.400615 -0.741424,-10.750552 -2.60373,-3.477783 -4.801721,-3.372745 -8.062911,-5.09725"
     style="fill:none;stroke:#ffffff;stroke-width:0.721049;stroke-linecap:butt;stroke-linejoin:miter;stroke-miterlimit:4;stroke-dasharray:none;stroke-opacity:1" />
  <path
     inkscape:connector-curvature="0"
     id="path3870"
     d="M 29.452167,61.490504 H 40.57344"
     style="fill:none;stroke:#ffffff;stroke-width:2;stroke-linecap:butt;stroke-linejoin:miter;stroke-miterlimit:4;stroke-dasharray:none;stroke-opacity:1" />
  <path
     sodipodi:nodetypes="ccccccccccccccc"
     inkscape:connector-curvature="0"
     id="path3872"
     d="m 17.454951,56.532009 c -1.789915,-1.573313 -3.501329,-3.252163 -4.056442,-5.319398 -1.117228,-2.684959 -2.278201,-5.966785 -1.850815,-9.861699 l 0.271438,-5.134042 c -2.4028558,-1.116336 -7.4933614,3.625984 -9.988909,1.988471 -0.5992504,-3.70214 8.560098,-6.473162 9.46465,-9.328131 2.782678,-4.692765 2.798978,-9.385531 4.18478,-14.078286 2.014026,-4.137043 5.528645,-8.1854938 10.619032,-9.6911243 5.787729,-1.9517614 11.37942,-1.5545582 16.191223,-0.5785411 4.979705,1.2939651 8.910882,4.0851244 11.693905,8.7961444 l 4.756739,13.454763 c 1.387593,3.565265 10.301284,8.520687 9.247493,12.271309 -1.43352,1.324874 -6.264269,-5.315643 -10.951353,-4.800585 -0.744188,4.524983 1.553086,9.758262 -0.924035,15.165197 -2.188445,4.038251 -3.357427,5.15106 -4.711774,7.115922"
     style="fill:none;stroke:#ffffff;stroke-width:2;stroke-linecap:butt;stroke-linejoin:miter;stroke-miterlimit:4;stroke-dasharray:none;stroke-opacity:1" />
  <ellipse
     style="fill:#ffffff;stroke:#ffffff;stroke-width:0.721049;stroke-linecap:round;stroke-linejoin:round;stroke-miterlimit:4;stroke-dasharray:none;stroke-dashoffset:0;stroke-opacity:1"
     id="ellipse1307"
     ry="3.4497864"
     rx="3.7000127"
     cy="25.027699"
     cx="29.503538" />
</svg>
