<?xml version="1.0" encoding="UTF-8" standalone="no"?>
<svg
   xmlns:dc="http://purl.org/dc/elements/1.1/"
   xmlns:cc="http://creativecommons.org/ns#"
   xmlns:rdf="http://www.w3.org/1999/02/22-rdf-syntax-ns#"
   xmlns:svg="http://www.w3.org/2000/svg"
   xmlns="http://www.w3.org/2000/svg"
   xmlns:sodipodi="http://sodipodi.sourceforge.net/DTD/sodipodi-0.dtd"
   xmlns:inkscape="http://www.inkscape.org/namespaces/inkscape"
   width="69.599998"
   height="67.764999"
   viewBox="0 0 69.599998 67.764999"
   fill="none"
   version="1.1"
   id="svg4"
   sodipodi:docname="linux.svg"
   inkscape:version="1.0.2 (e86c870879, 2021-01-15)">
  <metadata
     id="metadata16">
    <rdf:RDF>
      <cc:Work
         rdf:about="">
        <dc:format>image/svg+xml</dc:format>
        <dc:type
           rdf:resource="http://purl.org/dc/dcmitype/StillImage" />
      </cc:Work>
    </rdf:RDF>
  </metadata>
  <defs
     id="defs8" />
  <sodipodi:namedview
     id="namedview6"
     pagecolor="#080e17"
     bordercolor="#666666"
     borderopacity="1.0"
     inkscape:pageshadow="2"
     inkscape:pageopacity="0"
     inkscape:pagecheckerboard="0"
     showgrid="false"
     inkscape:zoom="9.4166667"
     inkscape:cx="58.862034"
     inkscape:cy="29.803757"
     inkscape:window-width="1920"
     inkscape:window-height="1056"
     inkscape:window-x="0"
     inkscape:window-y="0"
     inkscape:window-maximized="1"
     inkscape:current-layer="svg4"
     inkscape:document-rotation="0" />
  <path
     sodipodi:nodetypes="cccc"
     inkscape:connector-curvature="0"
     id="path3084"
     d="m 34.755583,37.265397 c 2.445829,-1.285738 4.428682,-3.045325 4.325154,-5.504745 0.0055,-1.373602 -5.921085,-2.92616 -8.257122,-0.131065 -0.336767,1.878606 2.382783,3.757204 3.931968,5.63581 z"
     style="fill:none;stroke:#ffffff;stroke-width:0.721049;stroke-linecap:round;stroke-linejoin:round;stroke-miterlimit:4;stroke-dasharray:none;stroke-opacity:1" />
  <path
     sodipodi:nodetypes="ccccccc"
     inkscape:connector-curvature="0"
     id="path3854"
     d="m 33.159252,30.072929 1.482839,-5.282607 c 0.878289,-3.103398 -0.187974,-5.040068 -1.760869,-6.672754 -4.687902,-1.68343 -9.242139,-2.030251 -13.438191,1.204791 -5.309744,6.03315 -4.66482,8.96591 -2.68764,12.140727 2.043544,2.112999 4.320326,3.293027 6.85811,3.429055 2.694659,-0.06364 5.089605,-0.926562 7.043476,-2.96567"
     style="fill:none;stroke:#ffffff;stroke-width:0.721049;stroke-linecap:butt;stroke-linejoin:miter;stroke-miterlimit:4;stroke-dasharray:none;stroke-opacity:1" />
  <path
     sodipodi:nodetypes="cccccccccc"
     inkscape:connector-curvature="0"
     id="path3856"
     d="m 37.700443,30.443632 c -0.43283,-1.173228 -0.825779,-2.07869 -0.926771,-4.263153 -0.149483,-1.838097 0.424131,-3.583511 1.019445,-5.189924 0.777434,-1.204801 1.539703,-2.409611 3.521738,-3.61441 1.348547,-0.875698 2.810605,-1.637904 5.37528,-1.297474 1.884434,0.362112 3.768876,0.627751 5.65331,3.151015 1.072309,2.717258 1.306356,5.314761 0.648742,7.784891 -0.298439,2.105862 -1.712516,3.699744 -3.545477,5.73355 -1.827296,0.996253 -3.557845,1.257789 -5.629571,1.031887 -2.203391,-0.230157 -4.005742,-0.634987 -4.726539,-1.853543"
     style="fill:none;stroke:#ffffff;stroke-width:0.721049;stroke-linecap:butt;stroke-linejoin:miter;stroke-miterlimit:4;stroke-dasharray:none;stroke-opacity:1" />
  <ellipse
     style="fill:#ffffff;stroke:#ffffff;stroke-width:0.721049;stroke-linecap:round;stroke-linejoin:round;stroke-miterlimit:4;stroke-dasharray:none;stroke-dashoffset:0;stroke-opacity:1"
     id="path3860"
     ry="3.4497864"
     rx="3.7000127"
     cy="25.027699"
     cx="41.703564" />
  <path
     sodipodi:nodetypes="ccccc"
     inkscape:connector-curvature="0"
     id="path3862"
     d="m 26.11377,59.15568 c -1.936267,-2.268595 -5.627928,-2.95582 -8.894994,-2.113736 -2.680194,1.303174 -3.954096,3.840832 -2.780313,6.509899 l 0,5.9e-5 8.456382,0.07643"
     style="fill:none;stroke:#ffffff;stroke-width:2;stroke-linecap:butt;stroke-linejoin:miter;stroke-miterlimit:4;stroke-dasharray:none;stroke-opacity:1" />
  <path
     style="fill:none;stroke:#ffffff;stroke-width:2;stroke-linecap:butt;stroke-linejoin:miter;stroke-miterlimit:4;stroke-dasharray:none;stroke-opacity:1"
     d="m 46.023068,63.715399 c 3.161755,-0.219868 6.274892,0.06478 9.664668,-0.186047 0.748324,-1.542322 1.151855,-3.920432 -2.224255,-6.116696 -3.189299,-2.005969 -7.13905,-1.513439 -10.814131,1.127249"
     id="path3864"
     inkscape:connector-curvature="0"
     sodipodi:nodetypes="cccc" />
  <path
     sodipodi:nodetypes="cccc"
     inkscape:connector-curvature="0"
     id="path3866"
     d="m 22.594057,56.300579 c -2.256428,-1.1928 -3.67434,-3.503628 -4.44851,-6.672754 -0.478113,-3.212817 -1.119681,-6.425625 0.556069,-9.638433 1.894279,-3.605248 4.95274,-4.300054 7.784881,-5.560637"
     style="fill:none;stroke:#ffffff;stroke-width:0.721049;stroke-linecap:butt;stroke-linejoin:miter;stroke-miterlimit:4;stroke-dasharray:none;stroke-opacity:1" />
  <path
     sodipodi:nodetypes="cccc"
     inkscape:connector-curvature="0"
     id="path3868"
     d="m 46.875491,56.485936 c 2.253694,-1.362173 7.271552,-8.175809 4.776993,-14.679763 M 45.983237,35.82293 C 45.26911,35.671375 43.584712,35.229751 41.987394,33.535842"
     style="fill:none;stroke:#ffffff;stroke-width:0.721049;stroke-linecap:butt;stroke-linejoin:miter;stroke-miterlimit:4;stroke-dasharray:none;stroke-opacity:1" />
  <path
     sodipodi:nodetypes="ccccccccccccccc"
     inkscape:connector-curvature="0"
     id="path3872"
     d="m 17.454951,56.532009 c -1.789915,-1.573313 -3.501329,-3.252163 -4.056442,-5.319398 -1.117228,-2.684959 -2.278201,-5.966785 -1.850815,-9.861699 l 0.271438,-5.134042 c -2.4028558,-1.116336 -7.4933614,3.625984 -9.988909,1.988471 -0.5992504,-3.70214 8.560098,-6.473162 9.46465,-9.328131 2.782678,-4.692765 2.798978,-9.385531 4.18478,-14.078286 2.014026,-4.137043 5.528645,-8.1854938 10.619032,-9.6911243 5.787729,-1.9517614 11.37942,-1.5545582 16.191223,-0.5785411 4.979705,1.2939651 8.910882,4.0851244 11.693905,8.7961444 l 4.756739,13.454763 c 1.387593,3.565265 10.301284,8.520687 9.247493,12.271309 -1.43352,1.324874 -6.264269,-5.315643 -10.951353,-4.800585 -0.744188,4.524983 1.553086,9.758262 -0.924035,15.165197 -2.188445,4.038251 -3.357427,5.15106 -4.711774,7.115922"
     style="fill:none;stroke:#ffffff;stroke-width:2;stroke-linecap:butt;stroke-linejoin:miter;stroke-miterlimit:4;stroke-dasharray:none;stroke-opacity:1" />
  <ellipse
     style="fill:#ffffff;stroke:#ffffff;stroke-width:0.721049;stroke-linecap:round;stroke-linejoin:round;stroke-miterlimit:4;stroke-dasharray:none;stroke-dashoffset:0;stroke-opacity:1"
     id="ellipse1307"
     ry="3.4497864"
     rx="3.7000127"
     cy="25.027699"
     cx="29.503538" />
  <g
     style="fill:#f9f9f9"
     id="g43"
     transform="matrix(0.08621981,0,0,0.08621981,18.789813,22.667)">
    <g
       id="g22"
       style="fill:#f9f9f9">
	<g
   id="g20"
   style="fill:#f9f9f9">
		<path
   d="m 306.036,422.4 -44.218,-22.109 c -3.491,-2.327 -6.982,-5.818 -6.982,-10.473 v -22.109 c 13.964,-4.655 23.273,-17.455 23.273,-32.582 0,-19.782 -15.127,-34.909 -34.909,-34.909 H 128 c -19.782,0 -34.909,15.127 -34.909,34.909 0,19.782 15.127,34.909 34.909,34.909 h 69.818 c 6.982,0 11.636,-4.655 11.636,-11.636 0,-6.981 -4.655,-11.636 -11.636,-11.636 H 128 c -6.982,0 -11.636,-4.655 -11.636,-11.636 0,-6.981 4.655,-11.636 11.636,-11.636 h 116.364 c 6.982,0 11.636,4.655 11.636,11.636 0,6.981 -4.655,11.636 -11.636,11.636 -6.981,0 -11.636,4.655 -11.636,11.636 v 32.582 c 0,12.8 6.982,25.6 19.782,31.418 l 44.218,22.109 c 3.491,2.327 6.982,5.818 6.982,10.473 v 23.273 c 0,6.982 -4.655,11.636 -11.636,11.636 H 81.454 c -6.982,0 -11.636,-4.655 -11.636,-11.636 v -23.273 c 0,-4.655 2.327,-8.146 6.982,-10.473 L 121.018,422.4 c 11.636,-5.818 19.782,-17.455 19.782,-31.418 0,-6.982 -4.655,-11.636 -11.636,-11.636 -6.981,0 -11.636,4.655 -11.636,11.636 0,4.655 -2.327,8.145 -6.982,10.473 l -44.218,22.109 c -12.8,4.655 -19.782,17.455 -19.782,30.255 v 23.273 c 0,19.782 15.127,34.909 34.909,34.909 H 290.91 c 19.782,0 34.909,-15.127 34.909,-34.909 v -23.273 c -0.001,-12.801 -6.983,-25.601 -19.783,-31.419 z"
   id="path18"
   style="fill:#f9f9f9" />

	</g>

</g>
    <g
       id="g28"
       style="fill:#f9f9f9">
	<g
   id="g26"
   style="fill:#f9f9f9">
		<path
   d="M 438.691,3.491 C 436.364,1.164 432.873,0 429.382,0 425.891,0 422.4,2.327 421.237,4.655 L 211.782,272.291 c -3.491,4.655 -3.491,12.8 2.327,16.291 2.327,1.164 4.655,2.327 6.982,2.327 3.491,0 6.982,-1.164 9.309,-4.655 l 200.145,-256 c 8.145,12.8 11.636,30.255 11.636,51.2 0,33.745 -17.455,53.527 -25.6,62.836 L 371.2,159.418 c -3.491,1.164 -6.982,4.655 -8.145,9.309 -1.164,3.491 1.164,8.145 3.491,10.473 l 18.618,16.291 c -24.436,22.109 -52.364,39.564 -97.745,48.873 -5.818,1.164 -10.473,8.145 -9.309,13.964 1.164,5.818 8.146,10.473 13.964,9.309 60.509,-12.8 91.927,-38.4 117.527,-64 2.327,-2.327 3.491,-6.982 3.491,-10.473 0,-2.327 -2.327,-4.655 -3.491,-6.982 l -12.8,-11.636 29.091,-10.473 c 1.164,0 3.491,-2.327 4.655,-3.491 23.273,-20.945 34.909,-48.873 34.909,-79.127 -0.001,-33.746 -9.311,-60.51 -26.765,-77.964 z"
   id="path24"
   style="fill:#f9f9f9" />

	</g>

</g>
  </g>
</svg>
