<?xml version="1.0" encoding="UTF-8" standalone="no"?>
<!-- Generator: Adobe Illustrator 16.0.0, SVG Export Plug-In . SVG Version: 6.00 Build 0)  -->

<svg
   version="1.1"
   id="Capa_1"
   x="0px"
   y="0px"
   width="69.599998"
   height="67.764999"
   viewBox="0 0 69.600007 67.765019"
   xml:space="preserve"
   sodipodi:docname="news.svg"
   inkscape:version="1.1.1 (3bf5ae0d25, 2021-09-20)"
   xmlns:inkscape="http://www.inkscape.org/namespaces/inkscape"
   xmlns:sodipodi="http://sodipodi.sourceforge.net/DTD/sodipodi-0.dtd"
   xmlns="http://www.w3.org/2000/svg"
   xmlns:svg="http://www.w3.org/2000/svg"><defs
   id="defs39">
	
</defs><sodipodi:namedview
   id="namedview37"
   pagecolor="#080e17"
   bordercolor="#666666"
   borderopacity="1.0"
   inkscape:pageshadow="2"
   inkscape:pageopacity="0"
   inkscape:pagecheckerboard="0"
   showgrid="false"
   inkscape:zoom="8.9427277"
   inkscape:cx="34.665039"
   inkscape:cy="51.27071"
   inkscape:window-width="1920"
   inkscape:window-height="1056"
   inkscape:window-x="0"
   inkscape:window-y="0"
   inkscape:window-maximized="1"
   inkscape:current-layer="Capa_1"
   height="41.89899px"
   width="69.6px" />

<g
   id="g6">
</g>
<g
   id="g8">
</g>
<g
   id="g10">
</g>
<g
   id="g12">
</g>
<g
   id="g14">
</g>
<g
   id="g16">
</g>
<g
   id="g18">
</g>
<g
   id="g20">
</g>
<g
   id="g22">
</g>
<g
   id="g24">
</g>
<g
   id="g26">
</g>
<g
   id="g28">
</g>
<g
   id="g30">
</g>
<g
   id="g32">
</g>
<g
   id="g34">
</g>
<g
   id="g4"
   transform="matrix(0.69454782,0,0,0.69454782,17.363501,19.467409)"
   style="fill:#ffffff"><path
     d="M 65.612,43.717 V 42.11 h 3.23 v 1.606 h -3.23 z m 5.945,-0.488 c 0,12.614 -10.269,22.884 -22.879,22.884 -12.618,0 -22.883,-10.27 -22.883,-22.884 0,-12.616 10.266,-22.882 22.883,-22.882 4.402,0 8.695,1.296 12.363,3.653 l -2.81,2.809 12.381,3.227 -3.229,-12.373 -4.01,4.01 c -2.66,-1.81 -5.616,-3.098 -8.732,-3.833 v -3.17 c 2.368,-0.205 4.233,-2.17 4.233,-4.589 0,-2.559 -2.075,-4.632 -4.635,-4.632 H 44.171 c -2.56,0 -4.631,2.073 -4.631,4.632 0,2.419 1.861,4.382 4.229,4.589 v 2.934 c -1.383,0.265 -2.724,0.652 -4.024,1.125 -1.04563,0.386809 -3.543897,1.424656 -4.414,2.089 -0.842,0.502 -1.64,1.062 -2.418,1.653 -2.881899,2.056443 -4.971764,4.802836 -6.435,7.082 -0.567562,0.912012 -2.735012,5.001402 -3.14,7.487 -5.327935,18.335328 11.648902,33.449925 25.339,32.292 14.394,0 26.104,-11.711 26.104,-26.104 h -3.224 z m -15.475,8.307 v -3.801 h -6.82 v -1.467 -1.464 l 6.373,-10.516 h 1.892 1.896 v 10.755 h 1.938 v 2.691 h -1.938 v 3.801 h -3.341 z m 0,-6.497 v -7.178 l -4.179,6.94 -0.146,0.242 h 4.324 v -0.004 z m -6.351,14.559 h -1.61 v 3.234 h 1.61 z M 42.177,43.47 c -2.194,1.547 -3.695,2.877 -4.487,4.006 -0.8,1.122 -1.195,2.479 -1.195,4.051 v 0.01 h 11.754 v -2.988 h -7.543 l 0.009,-0.022 c 0.57,-0.797 1.629,-1.69 3.185,-2.674 1.674,-1.074 2.823,-2.037 3.435,-2.895 0.614,-0.86 0.92,-1.946 0.92,-3.253 0,-1.598 -0.538,-2.897 -1.608,-3.904 -1.086,-1.008 -2.475,-1.516 -4.163,-1.516 -1.824,0 -3.255,0.552 -4.291,1.647 -1.032,1.097 -1.525,2.576 -1.471,4.446 h 3.326 c -0.035,-1.004 0.166,-1.8 0.602,-2.382 0.434,-0.583 1.038,-0.873 1.805,-0.873 0.728,0 1.312,0.233 1.752,0.701 0.44,0.464 0.661,1.075 0.661,1.847 0,0.698 -0.203,1.332 -0.604,1.907 -0.404,0.573 -1.092,1.208 -2.087,1.892 z m 7.554,-20.477 h -1.61 v 3.229 h 1.61 z M 32.236,43.717 V 42.11 h -3.228 v 1.606 h 3.228 z"
     id="path2"
     style="fill:#ffffff"
     sodipodi:nodetypes="ccccccsssscccccccssssccccccccccscccccccccccccccccccccccccccccscccccccscsccccscsccccccccccccc" /></g><g
   id="g4144"
   transform="matrix(0.74558476,0,0,0.74558476,-56.305444,-506.14833)"><ellipse
     style="fill:none;stroke:#ffffff;stroke-width:1.134;stroke-linecap:round;stroke-linejoin:round;stroke-miterlimit:4;stroke-dasharray:none;stroke-dashoffset:0;stroke-opacity:1"
     id="path4130"
     transform="matrix(0.9945674,0,0,1.034997,20.551506,258.93125)"
     cx="100.50163"
     cy="449.21988"
     rx="44.667393"
     ry="42.922573" /><path
     style="fill:none;stroke:#ffffff;stroke-width:1px;stroke-linecap:butt;stroke-linejoin:miter;stroke-opacity:1"
     d="m 79.455052,414.92355 80.935578,0.49351"
     id="path4136"
     inkscape:connector-curvature="0"
     transform="translate(0,308.2677)" /><path
     style="fill:none;stroke:#ffffff;stroke-width:1px;stroke-linecap:butt;stroke-linejoin:miter;stroke-opacity:1"
     d="m 127.32549,376.4298 c 16.38284,11.37947 16.40617,28.65978 16.83339,35.89999"
     id="path4138"
     inkscape:connector-curvature="0"
     transform="translate(0,308.2677)"
     sodipodi:nodetypes="cc" /><path
     sodipodi:nodetypes="cc"
     inkscape:connector-curvature="0"
     id="path4140"
     d="m 113.11751,684.6975 c -28.99237,29.36021 -17.80201,53.13949 0,76.00048"
     style="fill:none;stroke:#ffffff;stroke-width:1px;stroke-linecap:butt;stroke-linejoin:miter;stroke-opacity:1" /><path
     style="fill:none;stroke:#ffffff;stroke-width:1px;stroke-linecap:butt;stroke-linejoin:miter;stroke-opacity:1"
     d="m 119.92284,377.41682 v 75.01346"
     id="path4142"
     inkscape:connector-curvature="0"
     transform="translate(0,308.2677)" /></g></svg>
