<?xml version="1.0" encoding="UTF-8" standalone="no"?>
<!-- Generator: Adobe Illustrator 18.0.0, SVG Export Plug-In . SVG Version: 6.00 Build 0)  -->

<svg
   version="1.1"
   id="Capa_1"
   x="0px"
   y="0px"
   viewBox="0 0 38 42"
   xml:space="preserve"
   sodipodi:docname="pdf-icon.svg"
   width="38"
   height="42"
   inkscape:version="1.1.1 (3bf5ae0d25, 2021-09-20)"
   xmlns:inkscape="http://www.inkscape.org/namespaces/inkscape"
   xmlns:sodipodi="http://sodipodi.sourceforge.net/DTD/sodipodi-0.dtd"
   xmlns="http://www.w3.org/2000/svg"
   xmlns:svg="http://www.w3.org/2000/svg"><defs
   id="defs47">





	
	
	
	
	










</defs><sodipodi:namedview
   id="namedview45"
   pagecolor="#000000"
   bordercolor="#666666"
   borderopacity="1.0"
   inkscape:pageshadow="2"
   inkscape:pageopacity="0"
   inkscape:pagecheckerboard="0"
   showgrid="false"
   inkscape:zoom="12.557241"
   inkscape:cx="25.483305"
   inkscape:cy="25.324034"
   inkscape:window-width="1920"
   inkscape:window-height="1051"
   inkscape:window-x="1366"
   inkscape:window-y="0"
   inkscape:window-maximized="1"
   inkscape:current-layer="Capa_1" />
<g
   id="g2443"
   transform="translate(-4)"><path
     d="m 40.95,12.687001 -0.771,-0.771 -10.095,-10.0950005 -0.771,-0.771 c -0.349,-0.349 -0.833,-0.55 -1.328,-0.55 H 6.963 c -1.186,0 -2.4698006,0.9160115 -2.463,2.926 L 4.6275792,41.133179 c 4.2334528,0.0074 31.1402868,0.120292 36.7620668,0.01422 L 41.5,14.478001 c 0.0032,-0.766993 -0.092,-1.333 -0.55,-1.791 z m -3.015,-0.187 H 29.5 V 4.0650005 Z M 6.5,39.5 V 3.4260005 c 0,-0.217 0.033,-0.926 0.463,-0.926 h 20.595 c -0.033,0.126 -0.08092,0.2579599 -0.058,0.391 V 14.500001 h 11.609 c 0.135,0 0.264,-0.025 0.39,-0.058 0,0.015 10e-4,0.021 10e-4,0.036 V 39.5 Z"
     id="path2"
     style="fill:#ffffff;stroke:#ffffff;stroke-width:0;stroke-miterlimit:4;stroke-dasharray:none"
     sodipodi:nodetypes="sccssssccsscccccsscscscscc" /><path
     d="m 31.327596,23.461 c -0.919,0 -2.047,0.12 -3.358,0.358 -1.83,-1.942 -3.74,-4.778 -5.088,-7.562 1.337,-5.629 0.668,-6.4259995 0.373,-6.8019995 -0.314,-0.4 -0.757,-1.049 -1.261,-1.049 -0.211,0 -0.787,0.096 -1.016,0.172 -0.576,0.192 -0.886,0.636 -1.134,1.215 -0.707,1.6530005 0.263,4.4710005 1.261,6.6429995 -0.853,3.393 -2.284,7.454 -3.788,10.75 -3.79,1.736 -5.803,3.441 -5.985,5.068 -0.066,0.592 0.074,1.461 1.115,2.242 0.285,0.213 0.619,0.326 0.967,0.326 v 0 c 0.875,0 1.759,-0.67 2.782,-2.107 0.746,-1.048 1.547,-2.477 2.383,-4.251 2.678,-1.171 5.991,-2.229 8.828,-2.822 1.58,1.517 2.995,2.285 4.211,2.285 0.896,0 1.664,-0.412 2.22,-1.191 0.579,-0.811 0.711,-1.537 0.39,-2.16 -0.385,-0.749 -1.334,-1.115 -2.9,-1.115 z m -17.892,9.673 c -0.468,-0.359 -0.441,-0.601 -0.431,-0.692 0.062,-0.556 0.933,-1.543 3.07,-2.744 -1.62,2.992 -2.49,3.389001 -2.639,3.436 z m 8.2,-22.921999 c 0.043,-0.014 1.045,1.100999 0.096,3.216 -1.426,-1.459 -0.194,-3.183 -0.096,-3.216 z m -2.067,16.025999 c 1.015,-2.419 1.959,-5.09 2.674,-7.564 1.123,2.018 2.472,3.976 3.822,5.544 -2.134,0.501 -4.406,1.208 -6.496,2.02 z m 12.901,-0.479 c -0.308,0.431 -0.976,0.441 -1.21,0.441 -0.533,0 -0.732,-0.317 -1.547,-0.944 0.672,-0.086 1.306,-0.108 1.811,-0.108 0.889,0 1.052,0.131 1.175,0.197 -0.022,0.071 -0.08,0.205 -0.229,0.414 z"
     id="path10"
     style="fill:#ffffff;stroke:#ffffff" /></g>















</svg>
