<?xml version="1.0" encoding="UTF-8" standalone="no"?>
<svg
   width="511.31497"
   height="100.1811"
   viewBox="0 0 135.28598 26.506268"
   version="1.1"
   id="svg8"
   inkscape:version="1.1.1 (3bf5ae0d25, 2021-09-20)"
   sodipodi:docname="showcase.svg"
   xmlns:inkscape="http://www.inkscape.org/namespaces/inkscape"
   xmlns:sodipodi="http://sodipodi.sourceforge.net/DTD/sodipodi-0.dtd"
   xmlns="http://www.w3.org/2000/svg"
   xmlns:svg="http://www.w3.org/2000/svg"
   xmlns:rdf="http://www.w3.org/1999/02/22-rdf-syntax-ns#"
   xmlns:cc="http://creativecommons.org/ns#"
   xmlns:dc="http://purl.org/dc/elements/1.1/">
  <defs
     id="defs2" />
  <sodipodi:namedview
     id="base"
     pagecolor="#000000"
     bordercolor="#666666"
     borderopacity="1.0"
     inkscape:pageopacity="0"
     inkscape:pageshadow="2"
     inkscape:zoom="1.979899"
     inkscape:cx="412.39477"
     inkscape:cy="26.769042"
     inkscape:document-units="mm"
     inkscape:current-layer="layer1"
     inkscape:document-rotation="0"
     showgrid="false"
     units="px"
     height="100mm"
     inkscape:pagecheckerboard="false"
     inkscape:window-width="1920"
     inkscape:window-height="1051"
     inkscape:window-x="1366"
     inkscape:window-y="0"
     inkscape:window-maximized="1" />
  <metadata
     id="metadata5">
    <rdf:RDF>
      <cc:Work
         rdf:about="">
        <dc:format>image/svg+xml</dc:format>
        <dc:type
           rdf:resource="http://purl.org/dc/dcmitype/StillImage" />
      </cc:Work>
    </rdf:RDF>
  </metadata>
  <g
     inkscape:label="Calque 1"
     inkscape:groupmode="layer"
     id="layer1">
    <g
       aria-label="Showcase"
       id="text835"
       style="font-style:normal;font-weight:normal;font-size:33.4241px;line-height:1.25;font-family:sans-serif;letter-spacing:0px;word-spacing:0px;fill:#ffffff;fill-opacity:1;stroke:none;stroke-width:0.83561">
      <path
         d="m 5.5290211,10.712898 4.2432938,1.942123 q 1.5667551,0.701775 2.4970151,2.154287 0.946581,1.452512 0.946581,3.231432 0,2.464374 -1.762599,4.226973 -1.7462785,1.746279 -4.210653,1.746279 -2.4806949,0 -4.2269735,-1.746279 Q 1.2857273,20.505114 1.2857273,18.04074 h 1.1097845 q 0,2.007404 1.4198714,3.427275 1.4198714,1.419872 3.4272758,1.419872 1.991084,0 3.410955,-1.419872 1.436192,-1.419871 1.436192,-3.427275 0,-1.436192 -0.767057,-2.643899 -0.750736,-1.207706 -1.9747635,-1.746278 L 5.0883714,11.790041 Q 3.6195389,11.153547 2.7545598,9.7989574 1.8895806,8.4443675 1.8895806,6.8123314 q 0,-2.2848505 1.583075,-3.8516051 1.583075,-1.5667547 3.8352848,-1.5667547 2.2358895,0 3.8026436,1.583075 1.566755,1.583075 1.566755,3.8352848 h -1.093464 q 0,-1.7789193 -1.256668,-3.0519075 -1.2566676,-1.2729881 -3.0192666,-1.2729881 -1.7789193,0 -3.0519074,1.2729881 -1.2729882,1.2729882 -1.2729882,3.0519075 0,2.7255003 2.5459763,3.9005666 z"
         style="font-style:normal;font-variant:normal;font-weight:normal;font-stretch:normal;font-family:'UKIJ Elipbe';-inkscape-font-specification:'UKIJ Elipbe';fill:#ffffff;fill-opacity:1;stroke-width:0.83561"
         id="path973" />
      <path
         d="m 16.431022,23.850788 v -7.24624 h -0.03264 l -0.505931,0.864979 -0.962901,-0.571213 1.468832,-2.431733 V 5.4740618 q 0,-1.7789193 0.799698,-2.9539853 0.734416,-1.0608234 1.680997,-1.0608234 0.864979,0 1.517794,1.0771438 0.652814,1.0608234 0.652814,2.6602188 0,2.4154134 -1.109784,5.0103503 -0.669135,1.550435 -2.399094,4.455459 v 0.832338 q 1.729959,-2.839742 4.080091,-2.839742 1.468832,0 2.497015,1.109784 1.175066,1.191386 1.175066,3.133509 v 4.373857 q 0,0.636494 0.391689,1.109785 0.408009,0.47329 0.816018,0.47329 0.995542,0 1.534113,-0.946581 l 2.937665,-5.010351 0.930261,0.571213 -2.905024,5.010351 q -0.864979,1.468832 -2.497015,1.468832 -1.109785,0 -1.77892,-0.995542 -0.538572,-0.832338 -0.538572,-1.680997 v -4.373857 q 0,-1.436191 -0.767057,-2.26853 -0.767057,-0.832338 -1.795239,-0.832338 -1.713638,0 -3.215111,2.399093 -0.86498,1.37091 -0.86498,2.480695 v 5.173554 z M 17.508166,5.4740618 V 12.524458 Q 19.9399,8.1995621 19.9399,5.2782175 v -0.081602 q 0,-1.2077067 -0.391689,-1.9747637 -0.342728,-0.6691348 -0.669135,-0.6691348 -0.408009,0 -0.848659,0.7344163 -0.522251,0.8812995 -0.522251,2.1869285 z"
         style="font-style:normal;font-variant:normal;font-weight:normal;font-stretch:normal;font-family:'UKIJ Elipbe';-inkscape-font-specification:'UKIJ Elipbe';fill:#ffffff;fill-opacity:1;stroke-width:0.83561"
         id="path975" />
      <path
         d="m 40.634119,19.264767 q -0.391689,1.974763 -1.729959,3.280392 -1.436191,1.370911 -3.313033,1.370911 -2.170608,0 -3.492557,-1.501474 -1.321949,-1.501473 -1.321949,-3.884246 0,-2.431733 1.517793,-4.161692 1.517794,-1.746278 3.688402,-1.746278 0.505931,0 1.011862,0.09792 l -0.228485,1.109785 q -0.342727,-0.114243 -0.783377,-0.114243 -1.729958,0 -2.921345,1.436192 -1.175066,1.419871 -1.175066,3.378314 0,2.072686 1.093464,3.215112 1.011863,1.077143 2.611258,1.077143 1.942123,0 3.133509,-1.713638 0.701776,-0.962901 0.8813,-2.26853 -1.011862,-0.603853 -1.713638,-1.909482 -0.701775,-1.305629 -0.701775,-2.399093 0,-1.240347 0.864979,-1.240347 0.946581,0 1.81156,1.403551 0.89762,1.436191 0.89762,3.231431 v 0.244806 q 0.767056,0.326407 1.615715,0.326407 2.170608,0 3.100869,-1.599396 l 0.979221,0.571213 q -1.272988,2.137967 -4.047449,2.137967 -1.044503,0 -1.778919,-0.342727 z m -0.89762,-1.664677 q -0.03264,-0.962901 -0.603854,-2.121647 -0.48961,-0.995542 -0.734416,-0.995542 -0.03264,0 -0.06528,0.01632 -0.09792,0.06528 -0.09792,0.293767 0,0.538572 0.48961,1.468832 0.505932,0.930261 1.011863,1.33827 z"
         style="font-style:normal;font-variant:normal;font-weight:normal;font-stretch:normal;font-family:'UKIJ Elipbe';-inkscape-font-specification:'UKIJ Elipbe';fill:#ffffff;fill-opacity:1;stroke-width:0.83561"
         id="path977" />
      <path
         d="m 63.678469,14.058572 q 0,1.060823 0.799698,1.942123 0.799697,0.864979 1.909482,1.501473 -0.195844,-1.501473 -1.142425,-2.70918 -0.832339,-1.077144 -1.33827,-1.077144 -0.228485,0 -0.228485,0.342728 z m 8.519228,2.839742 0.979222,0.571213 q -1.142425,1.974764 -3.672081,1.974764 -0.669135,0 -1.485153,-0.146884 -0.326407,-0.06528 -0.522252,-0.130562 -0.277446,2.007404 -1.517793,3.378314 -1.224027,1.370911 -2.905024,1.370911 -2.67654,0 -4.080091,-2.937665 -1.224027,2.937665 -3.900566,2.937665 -1.909482,0 -3.264072,-1.648357 -1.35459,-1.664677 -1.35459,-3.998488 v -3.068228 q 0,-1.37091 -1.240347,-1.37091 -0.701776,0 -1.126105,0.734416 l -1.680997,2.905024 -0.962902,-0.571213 1.81156,-3.068227 q 0.669135,-1.142426 2.105327,-1.142426 2.203249,0 2.203249,2.807102 v 2.774462 q 0,1.81156 1.011862,3.18247 1.028183,1.37091 2.497015,1.37091 1.175066,0 2.105327,-1.044503 1.240347,-1.37091 1.240347,-3.002946 v -6.054854 h 1.126105 v 5.548923 q 0,1.81156 0.995542,3.18247 1.011862,1.37091 2.513336,1.37091 1.207706,0 2.105326,-1.044503 1.077144,-1.207706 1.240348,-3.002946 -1.844201,-0.8813 -2.70918,-1.974764 -1.126105,-1.436192 -1.126105,-2.74182 0,-1.468833 1.191386,-1.468833 1.142425,0 2.284851,1.501473 1.224027,1.632036 1.468832,3.949528 0.130563,0.03264 0.375368,0.09792 0.261126,0.06528 0.359048,0.09792 0.701776,0.09792 1.272988,0.09792 1.860522,0 2.660219,-1.436192 z"
         style="font-style:normal;font-variant:normal;font-weight:normal;font-stretch:normal;font-family:'UKIJ Elipbe';-inkscape-font-specification:'UKIJ Elipbe';fill:#ffffff;fill-opacity:1;stroke-width:0.83561"
         id="path979" />
      <path
         d="m 83.393464,17.502168 0.375368,-0.603854 0.962901,0.571213 -0.45697,0.734416 q -1.534114,2.399093 -3.443596,3.949528 -2.235889,1.82788 -4.390177,1.82788 -1.468832,0 -2.839743,-1.207707 -1.664677,-1.501473 -1.664677,-3.933207 0,-2.937665 1.876842,-4.781865 1.501473,-1.436192 2.937665,-1.436192 1.272988,0 2.121647,0.620174 0.848659,0.620173 0.848659,1.583075 0,0.375368 -0.130563,0.767057 l -1.028183,-0.359048 q 0.06528,-0.212165 0.06528,-0.375369 0,-1.142425 -1.8442,-1.142425 -1.142426,0 -2.301171,1.272988 -1.403551,1.534114 -1.403551,3.851605 0,1.697318 1.044503,2.856063 1.060823,1.158746 2.317491,1.158746 1.648356,0 3.6068,-1.566755 1.974763,-1.583075 3.345675,-3.786323 z"
         style="font-style:normal;font-variant:normal;font-weight:normal;font-stretch:normal;font-family:'UKIJ Elipbe';-inkscape-font-specification:'UKIJ Elipbe';fill:#ffffff;fill-opacity:1;stroke-width:0.83561"
         id="path981" />
      <path
         d="m 92.581829,12.720302 h 1.109784 v 8.58451 q 0,0.571212 0.310087,1.060823 0.326407,0.489611 0.848659,0.489611 1.044503,0 1.550434,-0.91394 l 2.872384,-5.042992 0.962903,0.571213 -2.872386,5.010351 q -0.832338,1.468832 -2.513335,1.468832 -1.093464,0 -1.762599,-0.995542 -0.505931,-0.750736 -0.505931,-1.550434 v -0.09792 q -1.827881,2.643898 -4.569701,2.643898 -1.942123,0 -3.264073,-1.436191 -1.321949,-1.436192 -1.321949,-3.541519 0,-2.643898 1.81156,-4.55338 1.697318,-1.827881 3.867926,-1.827881 2.26853,0 3.476237,1.664677 z m -3.508878,0.930261 q -1.599395,0 -3.002946,1.468832 -1.501474,1.583075 -1.501474,3.721042 0,1.762599 0.930261,2.888704 0.930261,1.126105 2.366452,1.126105 1.680998,0 3.198791,-1.37091 1.517794,-1.370911 1.517794,-3.215111 0,-4.618662 -3.508878,-4.618662 z"
         style="font-style:normal;font-variant:normal;font-weight:normal;font-stretch:normal;font-family:'UKIJ Elipbe';-inkscape-font-specification:'UKIJ Elipbe';fill:#ffffff;fill-opacity:1;stroke-width:0.83561"
         id="path983" />
      <path
         d="m 103.81024,11.447314 q 0.62017,1.044503 1.86052,2.25221 1.24034,1.191386 1.61571,1.860521 0.70178,1.175066 0.70178,2.937665 0,1.974763 -1.01186,3.443596 3.37831,-1.436192 5.41835,-5.042992 l 0.93027,0.571213 q -3.03559,5.41836 -8.92724,6.381261 -0.58753,0.09792 -0.86498,0.09792 -2.77446,0 -3.949528,-2.905024 l 0.946578,-0.538572 q 0.16321,0.375368 0.35905,0.669135 0.47329,0.767057 1.14243,1.224027 0.66913,0.45697 1.40355,0.45697 0.26112,0 0.73441,-0.0816 1.07715,-0.293766 1.77892,-1.256667 0.93026,-1.272989 0.93026,-3.019267 0,-1.33827 -0.37537,-2.072686 -0.35904,-0.734416 -1.48515,-1.81156 -1.10978,-1.093464 -1.90948,-2.154288 l -2.8887,5.010351 -0.962905,-0.571213 3.182465,-5.451 z"
         style="font-style:normal;font-variant:normal;font-weight:normal;font-stretch:normal;font-family:'UKIJ Elipbe';-inkscape-font-specification:'UKIJ Elipbe';fill:#ffffff;fill-opacity:1;stroke-width:0.83561"
         id="path985" />
      <path
         d="m 113.22708,18.49771 v 0.114242 q 0,1.827881 0.99554,3.002947 1.01186,1.207706 2.74182,1.207706 1.66468,0 3.80265,-1.583075 1.87684,-1.338269 2.98662,-2.970305 l 0.93026,-1.370911 0.9629,0.571213 q -0.3264,0.505931 -0.99554,1.436192 -1.27299,1.729958 -3.18247,3.16615 -2.46437,1.844201 -4.50442,1.844201 -2.20325,0 -3.54152,-1.534114 -1.33827,-1.534114 -1.33827,-3.786324 0,-2.23589 1.4362,-4.096411 1.43619,-1.876841 3.37831,-1.876841 4.04745,0 4.04745,3.051907 v 0.04896 q 0,1.680998 -1.37091,2.545977 -1.17507,0.734416 -3.05191,0.734416 -0.70177,0 -3.29671,-0.505931 z m 0.0653,-1.060824 q 0.16321,0.03264 1.69732,0.261126 1.01186,0.163204 1.71364,0.163204 3.06822,0 3.13351,-2.137968 v -0.09792 q 0,-0.91394 -0.57122,-1.37091 -0.63649,-0.505931 -1.97476,-0.505931 -0.17952,0 -0.39169,0.01632 -1.07714,0.03264 -2.20325,1.207707 -1.10978,1.158745 -1.40355,2.464374 z"
         style="font-style:normal;font-variant:normal;font-weight:normal;font-stretch:normal;font-family:'UKIJ Elipbe';-inkscape-font-specification:'UKIJ Elipbe';fill:#ffffff;fill-opacity:1;stroke-width:0.83561"
         id="path987" />
    </g>
    <g
       id="g9126">
      <path
         sodipodi:nodetypes="cssscc"
         inkscape:connector-curvature="0"
         id="path4530"
         d="m 126.56264,10.843875 c -0.68146,-0.02293 -1.40702,-0.600842 -1.37814,-1.2760229 0.0289,-0.6751796 0.54636,-1.3365983 1.22783,-1.3136677 0.34073,0.011464 0.74549,0.1233403 0.9516,0.3453265 0.21653,0.2332151 0.3043,0.3911153 0.28986,0.7287066 -0.39604,0.5456569 -0.71646,0.9771045 -1.09115,1.5156575 z"
         style="fill:#ffff00;fill-opacity:1;stroke:none;stroke-width:0.0828487;stroke-linejoin:round;stroke-miterlimit:4;stroke-dasharray:none;stroke-opacity:1" />
      <path
         sodipodi:nodetypes="cssscc"
         inkscape:connector-curvature="0"
         id="path4530-3"
         d="m 127.09278,10.10137 c -0.72896,-0.05703 -1.53213,-0.6908192 -1.53425,-1.3884721 -0.002,-0.697653 0.51826,-1.3571914 1.24722,-1.3001649 0.36449,0.028514 0.80226,0.1641162 1.03324,0.4040201 0.24266,0.2520411 0.34411,0.4198127 0.34517,0.7686411 -0.39634,0.5456144 -0.71749,0.9766716 -1.09138,1.5159758 z"
         style="fill:#ffff00;stroke:none;stroke-width:0.0870292;stroke-linejoin:round;stroke-miterlimit:4;stroke-dasharray:none;stroke-opacity:1" />
      <path
         sodipodi:nodetypes="cssscc"
         inkscape:connector-curvature="0"
         id="path4530-7"
         d="m 130.82915,13.940466 c 0.23798,0.638972 1.01625,1.143654 1.64737,0.902026 0.63113,-0.241627 1.09416,-0.942244 0.85618,-1.581217 -0.11899,-0.319486 -0.35352,-0.667835 -0.62943,-0.792851 -0.28987,-0.131343 -0.46746,-0.16447 -0.78303,-0.04366 -0.39179,0.548716 -0.69927,0.989482 -1.09109,1.515696 z"
         style="fill:#ffff00;fill-opacity:1;stroke:none;stroke-width:0.0828487;stroke-linejoin:round;stroke-miterlimit:4;stroke-dasharray:none;stroke-opacity:1" />
      <path
         sodipodi:nodetypes="cssscc"
         inkscape:connector-curvature="0"
         id="path4530-3-5"
         d="m 131.36506,13.202113 c 0.28539,0.673198 1.14128,1.233745 1.80355,1.014397 0.66228,-0.219349 1.1226,-0.922132 0.83722,-1.595331 -0.14269,-0.336599 -0.4102,-0.708724 -0.71099,-0.85164 -0.31602,-0.150147 -0.50731,-0.193118 -0.83845,-0.08344 -0.39165,0.548992 -0.69854,0.990329 -1.09133,1.516017 z"
         style="fill:#ffff00;fill-opacity:1;stroke:none;stroke-width:0.0870292;stroke-linejoin:round;stroke-miterlimit:4;stroke-dasharray:none;stroke-opacity:1" />
      <path
         style="fill:#ffffff;stroke:#ffffff;stroke-width:0.0786324;stroke-linecap:butt;stroke-linejoin:miter;stroke-miterlimit:4;stroke-dasharray:none;stroke-opacity:1"
         d="m 126.61646,14.942363 c 0.0161,0.108261 0.0206,0.213637 -0.0357,0.30391 l -1.07467,1.441948 1.43503,-1.25577 c 0.092,-0.0684 0.14542,-0.08331 0.19729,-0.09601"
         id="path4575"
         inkscape:connector-curvature="0"
         sodipodi:nodetypes="ccccc" />
      <path
         style="fill:#ffffff;fill-opacity:1;stroke:#2d5086;stroke-width:0.0414898px;stroke-linecap:butt;stroke-linejoin:miter;stroke-opacity:1"
         d="m 129.34866,7.0220764 3.04275,2.1904532 c 0.49052,0.2903713 0.8271,0.6328771 0.36238,1.2467374 l -2.8995,3.900855 c -0.55195,0.78104 -1.16462,1.245434 -1.8475,1.396717"
         id="path4579"
         inkscape:connector-curvature="0"
         sodipodi:nodetypes="ccccc" />
      <path
         style="fill:#ffffff;fill-opacity:1;stroke:#2d5086;stroke-width:0.0198576;stroke-linejoin:round;stroke-miterlimit:4;stroke-dasharray:none;stroke-opacity:1"
         d="m 127.34344,15.537498 c -6.4e-4,-0.0039 -0.45529,-0.343461 -1.00827,-0.741925 -0.5823,-0.419636 -0.97122,-0.851738 -1.02805,-0.900062 -0.26389,-0.369449 -0.32562,-0.605121 -0.22241,-0.929542 0.0552,-0.173495 -0.053,-0.01821 2.00181,-2.871876 1.22871,-1.7063874 1.93317,-2.6782244 1.99182,-2.7478625 0.0499,-0.059258 0.11449,-0.1286591 0.14352,-0.1542217 0.0685,-0.06025 0.13616,-0.1094861 0.14336,-0.1042361 0.004,0.00343 1.01024,5.4273783 -0.63913,7.7233283 l -0.68917,0.959335 -0.28525,0.01989 c -0.16203,0.0113 -0.40761,-0.248939 -0.40823,-0.25283 z"
         id="path4581"
         inkscape:connector-curvature="0"
         sodipodi:nodetypes="scccccccscss" />
      <path
         style="opacity:0.982916;fill:#ffffff;fill-opacity:1;stroke:#2d5086;stroke-width:0.0198576;stroke-linejoin:round;stroke-miterlimit:4;stroke-dasharray:none;stroke-opacity:1"
         d="m 128.03692,15.770436 c 0,0 0.0404,-0.01413 0.0856,-0.02574 0.21255,-0.0545 0.53437,-0.203785 0.74412,-0.345185 0.26106,-0.175991 0.49767,-0.393218 0.7444,-0.683426 0.11043,-0.129895 2.98644,-3.998176 3.1665,-4.25901 0.14762,-0.213835 0.17953,-0.280959 0.2024,-0.425751 0.0299,-0.1893082 -0.0247,-0.3477253 -0.17712,-0.5141954 -0.0522,-0.056983 -0.20671,-0.1700099 -1.72352,-1.2605921 l -1.66621,-1.1979948 0.0347,-0.017639 c 0.0191,-0.0097 0.0784,-0.02477 0.13174,-0.033481 0.11004,-0.017968 0.33421,-0.00365 0.46116,0.041328 0.69947,0.1707468 1.27815,0.6125182 1.75882,0.9215761 1.60238,1.2319222 1.50269,1.4692149 1.61898,1.6331945 0.15969,0.2251919 0.17087,0.4618677 0.0339,0.7179057 -0.0346,0.0647 -0.51255,0.731493 -2.06914,2.886731 l -2.02416,2.802596 -0.0683,0.05442 c -0.10623,0.08468 -0.18901,0.157236 -0.29795,0.175019 -0.15424,0.02517 -0.29334,0.03394 -0.54368,-0.06229 -0.0749,-0.0072 -0.73489,-0.38545 -0.73489,-0.38545 z"
         id="path4583"
         inkscape:connector-curvature="0"
         sodipodi:nodetypes="sccssscscscccccscccccs" />
      <path
         style="fill:#ffff00;stroke:none;stroke-width:0.0786324;stroke-linecap:butt;stroke-linejoin:miter;stroke-miterlimit:4;stroke-dasharray:none;stroke-opacity:1"
         d="m 130.23437,7.1036661 c -0.73178,-0.295285 -0.98733,-0.099134 -1.32559,0.3915554 l -3.60047,4.9886795 c -0.47466,0.592921 -0.41346,1.071101 0.1909,1.629752 0.82967,0.723181 1.68456,1.414443 2.68417,1.96894 0.80575,0.416624 1.18013,0.06702 1.49418,-0.434981 l 3.60047,-4.988681 c 0.40493,-0.484865 0.33678,-0.945847 -0.24203,-1.5841613 -0.75896,-0.8453447 -1.77744,-1.5910262 -2.80163,-1.9711036 z"
         id="path4528"
         inkscape:connector-curvature="0"
         sodipodi:nodetypes="ccccccccc" />
      <path
         sodipodi:nodetypes="cccccccccc"
         inkscape:connector-curvature="0"
         id="path4585"
         d="m 130.47343,10.062011 c -0.24253,0.0695 -0.50969,0.09593 -0.83096,-0.1968205 -0.62399,-0.6422801 -0.0532,-1.2224805 0.0528,-1.3862483 0.18998,-0.2697962 0.58672,-0.5957 1.25253,-0.1729658 0.42657,0.3234985 0.3708,0.6296408 0.19688,0.9315393 0.23531,-0.1113574 0.47286,-0.2089845 0.77055,0.062711 0.14816,0.1435858 0.21647,0.2743675 0.18219,0.6102218 -0.0636,0.3971925 -0.51226,0.6982285 -0.64769,0.7378535 -0.28738,0.0926 -0.56063,0.04295 -0.78865,-0.127519 -0.14217,-0.09546 -0.1888,-0.259869 -0.18763,-0.45877 z"
         style="fill:#ffffff;fill-opacity:0.76253;stroke:#0a121f;stroke-width:0.0416095px;stroke-linecap:butt;stroke-linejoin:miter;stroke-opacity:1" />
      <ellipse
         ry="0.35807896"
         rx="0.28377631"
         cy="-68.710579"
         cx="111.49115"
         id="path4587"
         style="fill:#000000;fill-opacity:1;stroke:#0a121f;stroke-width:0.1055;stroke-linejoin:round;stroke-miterlimit:4;stroke-dasharray:none;stroke-opacity:1"
         transform="rotate(35.749855)" />
      <ellipse
         ry="0.28060344"
         rx="0.239737"
         cy="-68.478386"
         cx="112.00569"
         id="path4587-3"
         style="fill:#000000;fill-opacity:1;stroke:#0a121f;stroke-width:0.0858403;stroke-linejoin:round;stroke-miterlimit:4;stroke-dasharray:none;stroke-opacity:1"
         transform="rotate(35.749855)" />
      <path
         style="fill:none;stroke:#ffffff;stroke-width:0.167487;stroke-linecap:round;stroke-linejoin:round;stroke-miterlimit:4;stroke-dasharray:none;stroke-opacity:1"
         d="m 131.32857,5.3413494 0.63446,0.1977952 -0.0602,2.4037599 1.3159,-1.072522 -0.0924,0.5420201"
         id="path4611"
         inkscape:connector-curvature="0" />
      <path
         style="fill:#ffff00;stroke:#000000;stroke-width:0.183213;stroke-linecap:round;stroke-linejoin:round;stroke-miterlimit:4;stroke-dasharray:none;stroke-opacity:1"
         d="m 130.61548,12.274738 -0.0649,-0.953038 -0.53313,0.147053 -0.23952,-0.962236 -0.28857,0.07711 -0.0382,-0.234676 -1.32686,0.404301"
         id="path4613"
         inkscape:connector-curvature="0" />
      <path
         style="fill:#ffff00;fill-opacity:1;stroke:#ffff00;stroke-width:0.0654332;stroke-linecap:round;stroke-linejoin:round;stroke-miterlimit:4;stroke-dasharray:none;stroke-opacity:1"
         d="m 126.24336,15.781688 c 0.35372,-0.479109 0.4042,-0.552386 0.41626,-0.604374 0.008,-0.03253 0.0152,-0.06121 0.017,-0.06372 0.001,-0.0025 0.0744,0.04665 0.16136,0.109243 0.14573,0.10491 0.15623,0.114964 0.13442,0.128815 -0.013,0.0083 -0.20737,0.175271 -0.43192,0.371137 -0.22455,0.195866 -0.47384,0.411918 -0.55397,0.480117 l -0.14569,0.123998 z"
         id="path4708"
         inkscape:connector-curvature="0" />
    </g>
  </g>
</svg>
