<?xml version="1.0" encoding="UTF-8" standalone="no"?>
<svg
   width="50"
   height="50"
   viewBox="0 0 50 50"
   mirror-in-rtl="true"
   version="1.1"
   id="svg4"
   sodipodi:docname="table-of-contents-svgrepo-com.svg"
   inkscape:version="1.1.1 (3bf5ae0d25, 2021-09-20)"
   xmlns:inkscape="http://www.inkscape.org/namespaces/inkscape"
   xmlns:sodipodi="http://sodipodi.sourceforge.net/DTD/sodipodi-0.dtd"
   xmlns="http://www.w3.org/2000/svg"
   xmlns:svg="http://www.w3.org/2000/svg">
  <defs
     id="defs8" />
  <sodipodi:namedview
     id="namedview6"
     pagecolor="#000000"
     bordercolor="#666666"
     borderopacity="1.0"
     inkscape:pageshadow="2"
     inkscape:pageopacity="0"
     inkscape:pagecheckerboard="0"
     showgrid="false"
     inkscape:zoom="10.449467"
     inkscape:cx="25.551543"
     inkscape:cy="24.163912"
     inkscape:window-width="1920"
     inkscape:window-height="1051"
     inkscape:window-x="1366"
     inkscape:window-y="0"
     inkscape:window-maximized="1"
     inkscape:current-layer="svg4" />
  <path
     fill="#494c4e"
     d="M 47.239141,0.02313684 H 2.7947115 A 2.7777771,2.7777771 0 0 0 0.01693587,2.8009123 V 47.245342 A 2.7777771,2.7777771 0 0 0 2.7947115,50.023135 H 47.239141 a 2.7777771,2.7777771 0 0 0 2.777795,-2.777793 V 2.8009123 A 2.7777771,2.7777771 0 0 0 47.239141,0.02313684 Z M 8.3502777,44.467584 a 2.7777791,2.7777791 0 0 1 0,-5.555548 2.7777791,2.7777791 0 0 1 0,5.555548 z m 0,-11.111103 a 2.6249996,2.6249996 0 0 1 -2.7777875,-2.777793 2.6249996,2.6249996 0 0 1 2.7777875,-2.777796 2.6249996,2.6249996 0 0 1 2.7777613,2.777796 2.6249996,2.6249996 0 0 1 -2.7777613,2.777793 z m 0,-11.111139 A 2.6249996,2.6249996 0 0 1 5.5724902,19.467586 2.6249996,2.6249996 0 0 1 8.3502777,16.68979 2.6249996,2.6249996 0 0 1 11.128039,19.467586 2.6249996,2.6249996 0 0 1 8.3502777,22.245342 Z m 0,-11.111102 A 2.6249996,2.6249996 0 0 1 5.5724902,8.3564787 2.6249996,2.6249996 0 0 1 8.3502777,5.5786914 2.6249996,2.6249996 0 0 1 11.128039,8.3564787 2.6249996,2.6249996 0 0 1 8.3502777,11.13424 Z M 41.683584,44.467584 H 19.461385 a 2.7777791,2.7777791 0 0 1 0,-5.555548 h 22.222199 a 2.7777791,2.7777791 0 0 1 0,5.555548 z m 0,-11.111103 H 19.461385 a 2.7777953,2.7777953 0 0 1 0,-5.555589 h 22.222199 a 2.7777953,2.7777953 0 0 1 0,5.555589 z m 0,-11.111139 H 19.461385 a 2.7777771,2.7777771 0 0 1 0,-5.555552 h 22.222199 a 2.7777771,2.7777771 0 0 1 0,5.555552 z m 0,-11.111102 H 19.461385 a 2.7777785,2.7777785 0 0 1 0,-5.5555486 h 22.222199 a 2.7777785,2.7777785 0 0 1 0,5.5555486 z"
     id="path2"
     style="fill:#ffffff;stroke-width:2.77779" />
</svg>
