<?xml version="1.0" encoding="UTF-8" standalone="no"?>
<svg
   width="10"
   height="10"
   viewBox="0 0 10 10"
   mirror-in-rtl="true"
   version="1.1"
   id="svg4"
   sodipodi:docname="table-of-contents-svgrepo-com.svg"
   inkscape:version="1.1.1 (3bf5ae0d25, 2021-09-20)"
   xmlns:inkscape="http://www.inkscape.org/namespaces/inkscape"
   xmlns:sodipodi="http://sodipodi.sourceforge.net/DTD/sodipodi-0.dtd"
   xmlns="http://www.w3.org/2000/svg"
   xmlns:svg="http://www.w3.org/2000/svg">
  <defs
     id="defs8" />
  <sodipodi:namedview
     id="namedview6"
     pagecolor="#000000"
     bordercolor="#666666"
     borderopacity="1.0"
     inkscape:pageshadow="2"
     inkscape:pageopacity="0"
     inkscape:pagecheckerboard="0"
     showgrid="false"
     inkscape:zoom="59.111111"
     inkscape:cx="4.9906015"
     inkscape:cy="6.3016917"
     inkscape:window-width="1920"
     inkscape:window-height="1051"
     inkscape:window-x="1366"
     inkscape:window-y="0"
     inkscape:window-maximized="1"
     inkscape:current-layer="svg4" />
  <path
     fill="#494c4e"
     d="M 9.4415431,0.02313684 H 0.57132429 A 0.55438873,0.55438873 0 0 0 0.01693587,0.57752526 V 9.4477441 A 0.55438873,0.55438873 0 0 0 0.57132429,10.002136 H 9.4415431 A 0.55438873,0.55438873 0 0 0 9.9959354,9.4477441 V 0.57752526 A 0.55438873,0.55438873 0 0 0 9.4415431,0.02313684 Z M 1.6801042,8.8933596 a 0.55438914,0.55438914 0 0 1 0,-1.1087768 0.55438914,0.55438914 0 0 1 0,1.1087768 z m 0,-2.2175537 A 0.52389739,0.52389739 0 0 1 1.1257134,6.1214136 0.52389739,0.52389739 0 0 1 1.6801042,5.5670212 0.52389739,0.52389739 0 0 1 2.2344897,6.1214136 0.52389739,0.52389739 0 0 1 1.6801042,6.6758059 Z m 0,-2.2175616 A 0.52389739,0.52389739 0 0 1 1.1257134,3.9038599 0.52389739,0.52389739 0 0 1 1.6801042,3.3494675 0.52389739,0.52389739 0 0 1 2.2344897,3.9038599 0.52389739,0.52389739 0 0 1 1.6801042,4.4582443 Z m 0,-2.2175536 A 0.52389739,0.52389739 0 0 1 1.1257134,1.6863052 0.52389739,0.52389739 0 0 1 1.6801042,1.1319144 0.52389739,0.52389739 0 0 1 2.2344897,1.6863052 0.52389739,0.52389739 0 0 1 1.6801042,2.2406907 Z m 6.652661,6.6526689 H 3.8976589 a 0.55438914,0.55438914 0 0 1 0,-1.1087768 h 4.4351063 a 0.55438914,0.55438914 0 0 1 0,1.1087768 z m 0,-2.2175537 H 3.8976589 a 0.55439238,0.55439238 0 0 1 0,-1.1087847 h 4.4351063 a 0.55439238,0.55439238 0 0 1 0,1.1087847 z m 0,-2.2175616 H 3.8976589 a 0.55438873,0.55438873 0 0 1 0,-1.1087768 h 4.4351063 a 0.55438873,0.55438873 0 0 1 0,1.1087768 z m 0,-2.2175536 H 3.8976589 a 0.55438903,0.55438903 0 0 1 0,-1.1087763 h 4.4351063 a 0.55438903,0.55438903 0 0 1 0,1.1087763 z"
     id="path2"
     style="fill:#ffffff;stroke-width:0.554392" />
</svg>
