<?xml version="1.0" encoding="UTF-8" standalone="no"?>
<!-- Created with Inkscape (http://www.inkscape.org/) -->

<svg
   width="348.608"
   height="124.972"
   viewBox="0 0 348.608 124.972"
   version="1.1"
   id="svg5"
   sodipodi:docname="website-angrybee-art-and-tech.svg"
   inkscape:version="1.1.1 (3bf5ae0d25, 2021-09-20)"
   xmlns:inkscape="http://www.inkscape.org/namespaces/inkscape"
   xmlns:sodipodi="http://sodipodi.sourceforge.net/DTD/sodipodi-0.dtd"
   xmlns="http://www.w3.org/2000/svg"
   xmlns:svg="http://www.w3.org/2000/svg">
  <sodipodi:namedview
     id="namedview7"
     pagecolor="#080e17"
     bordercolor="#666666"
     borderopacity="1.0"
     inkscape:pageshadow="2"
     inkscape:pageopacity="0"
     inkscape:pagecheckerboard="0"
     inkscape:document-units="px"
     showgrid="false"
     inkscape:zoom="1.2502642"
     inkscape:cx="154.36737"
     inkscape:cy="60.387237"
     inkscape:window-width="1920"
     inkscape:window-height="1056"
     inkscape:window-x="1366"
     inkscape:window-y="0"
     inkscape:window-maximized="1"
     inkscape:current-layer="layer1"
     inkscape:snap-nodes="false" />
  <defs
     id="defs2" />
  <g
     inkscape:label="Calque 1"
     inkscape:groupmode="layer"
     id="layer1">
    <g
       id="g36570"
       transform="matrix(1.4628219,0,0,1.4628219,-131.92245,-24.034238)">
      <path
         d="M 144.97707,92.28168 V 60.16956 h 3.95485 v 4.83506 q 1.43813,-3.19296 4.04473,-4.6526 2.15719,-1.00351 5.03345,-1.00351 v 4.2877 q -2.06731,0 -3.86497,0.91228 -1.79766,0.82104 -2.87625,2.28069 -2.33696,2.91928 -2.33696,6.65961 v 18.79289 z"
         id="path846"
         style="font-size:78.7809px;line-height:1.25;font-family:'UKIJ Qolyazma Tuz';-inkscape-font-specification:'UKIJ Qolyazma Tuz';letter-spacing:0px;word-spacing:0px;fill:#ffffff;fill-opacity:1;stroke-width:1.84642" />
      <path
         d="M 166.27929,92.28168 V 63.81867 h -6.74122 v -3.64911 h 6.74122 V 48.85734 h 3.95485 v 11.31222 h 7.55016 v 3.64911 h -7.55016 v 28.463 z"
         id="path848"
         style="font-size:78.7809px;line-height:1.25;font-family:'UKIJ Qolyazma Tuz';-inkscape-font-specification:'UKIJ Qolyazma Tuz';letter-spacing:0px;word-spacing:0px;fill:#ffffff;fill-opacity:1;stroke-width:1.84642" />
    </g>
    <path
       style="font-variation-settings:normal;fill:none;fill-opacity:1;stroke:#5f8dca;stroke-width:6;stroke-linecap:butt;stroke-linejoin:miter;stroke-miterlimit:4;stroke-dasharray:none;stroke-dashoffset:0;stroke-opacity:1;stop-color:#000000"
       d="M 14.857348,120.97071 C 12.09127,97.75229 19.629249,69.178317 26.265282,47.297793 c 3.369595,-8.8366 8.403268,-18.0411 17.059955,-22.589306 6.868681,-3.535201 15.406953,0.01551 18.373555,6.957664 4.62104,9.496098 4.404864,18.996732 2.753426,30.877142 -2.106317,15.434951 -4.944265,26.158796 -2.512704,38.652437 1.211817,7.92573 10.528354,14.59839 17.171876,13.90713"
       id="path13218"
       sodipodi:nodetypes="ccccccc" />
    <g
       aria-label=" ech"
       transform="matrix(1.452001,0,0,1.4737234,-131.92245,-24.051053)"
       id="text825"
       style="font-size:78.7809px;line-height:1.25;font-family:'UKIJ Qolyazma Tuz';-inkscape-font-specification:'UKIJ Qolyazma Tuz';letter-spacing:0px;word-spacing:0px;fill:#ffffff;stroke-width:1.84642;stop-color:#000000">
      <path
         d="m 252.36155,76.352314 h -29.06743 q 0,4.618191 3.80321,8.149748 3.89377,3.531558 8.60251,3.531558 4.16543,0 7.42533,-2.263819 2.89769,-1.992161 4.07487,-5.342613 h 4.16543 q -1.62995,4.889849 -5.88593,8.059196 -4.25598,3.078793 -9.7797,3.078793 -6.79145,0 -11.6813,-4.799296 -4.88985,-4.799296 -4.88985,-11.862411 0,-6.791457 4.7993,-11.771858 4.88984,-4.980402 11.77185,-4.980402 4.88985,0 8.87417,2.535477 3.35046,2.263819 5.34262,5.614271 1.26774,1.992161 1.90161,4.437085 0.63386,2.354372 0.63386,4.527638 z m -29.15799,-3.62211 h 25.08312 q -0.90553,-5.342613 -4.7993,-8.330854 -3.441,-2.62603 -7.78754,-2.62603 -4.16542,0 -7.69698,2.62603 -3.89377,3.078794 -4.7993,8.330854 z"
         style="font-family:Mallanna;-inkscape-font-specification:Mallanna"
         id="path38022" />
      <path
         d="m 285.77548,81.604374 h 4.34653 q -1.99216,3.984321 -5.07095,6.519799 -4.43709,3.531557 -10.68523,3.531557 -7.42533,0 -12.31517,-4.799296 -4.88985,-4.889849 -4.88985,-11.862411 0,-6.791457 4.9804,-11.771859 5.07095,-4.980401 12.22462,-4.980401 4.70874,0 8.78362,2.354371 4.88985,2.807136 6.97256,7.968643 h -4.34653 q -1.81106,-3.350452 -5.16151,-5.070954 -2.89769,-1.62995 -6.24814,-1.62995 -5.07095,0 -8.96472,3.350452 -4.25598,3.803216 -4.25598,9.689145 0,5.523718 3.80321,9.417487 3.80322,3.803216 9.41749,3.803216 4.52764,0 7.69698,-2.354372 2.26382,-1.539397 3.71267,-4.165427 z"
         style="font-family:Mallanna;-inkscape-font-specification:Mallanna"
         id="path38024" />
      <path
         d="M 296.09848,91.65573 V 48.462065 h 3.98432 v 15.575074 q 1.44885,-1.992161 3.44101,-3.350452 2.89769,-1.720502 6.5198,-1.720502 3.2599,0 5.52371,0.905527 2.35438,0.814975 4.52764,2.988241 1.99216,1.811055 2.98824,4.708744 1.08664,2.807135 1.08664,6.519798 V 91.65573 h -4.07488 V 74.088495 q 0,-3.078794 -0.81497,-5.161507 -0.81498,-2.173266 -2.26382,-3.531558 -1.35829,-1.448844 -3.35045,-2.082713 -1.99216,-0.724422 -3.62211,-0.724422 -1.72051,0 -3.53156,0.633869 -1.81106,0.63387 -3.44101,2.082714 -1.26773,1.358291 -2.17326,3.531557 -0.81498,2.173266 -0.81498,4.980402 V 91.65573 Z"
         style="font-family:Mallanna;-inkscape-font-specification:Mallanna"
         id="path38026" />
    </g>
    <path
       style="font-variation-settings:normal;fill:none;fill-opacity:1;stroke:#ffffff;stroke-width:0.896629;stroke-linecap:butt;stroke-linejoin:miter;stroke-miterlimit:4;stroke-dasharray:none;stroke-dashoffset:0;stroke-opacity:1;stop-color:#000000"
       d="m 153.61973,68.849425 c -0.70192,-3.377614 -4.85395,-5.726221 -8.03338,-4.172874 -1.53379,0.931929 -2.29328,2.380674 -2.47242,4.027599 -0.14321,3.033198 1.9537,4.82475 3.47872,6.420555 1.14065,1.275182 2.44637,1.77158 0.74632,2.000976 -4.30334,0.393152 -8.32979,3.884757 -8.80952,8.269842 -0.3944,3.3585 1.3124,6.953986 4.43091,8.420164 2.55756,1.322653 6.01172,1.362784 8.22214,-0.535122 1.41998,-1.159499 3.23286,-4.663845 1.65617,-6.901689 -0.81961,-1.159596 -2.61313,-1.722771 -3.85609,-1.268351"
       id="path907"
       sodipodi:nodetypes="cccccccccc" />
    <path
       style="font-variation-settings:normal;fill:none;fill-opacity:1;stroke:#5f8dca;stroke-width:6;stroke-linecap:butt;stroke-linejoin:miter;stroke-miterlimit:4;stroke-dasharray:none;stroke-dashoffset:0;stroke-opacity:1;stop-color:#000000"
       d="m 185.68487,21.700454 c -6.92263,13.11574 -16.33811,17.498055 -36.63536,19.336619"
       id="path3793"
       sodipodi:nodetypes="cc" />
    <path
       style="font-variation-settings:normal;fill:none;fill-opacity:1;stroke:#5f8dca;stroke-width:6;stroke-linecap:butt;stroke-linejoin:miter;stroke-miterlimit:4;stroke-dasharray:none;stroke-dashoffset:0;stroke-opacity:1;stop-color:#000000"
       d="M 255.98967,34.964405 C 247.34599,13.4868 219.54836,4.7142409 198.73623,11.397729 c -17.0024,8.103892 -20.55803,23.563023 -21.5411,38.771183 -0.33621,33.582898 1.92065,38.310971 -4.38894,53.277288 0,0 -5.23325,10.06846 -13.35741,13.54365"
       id="path3793-9"
       sodipodi:nodetypes="ccccc" />
  </g>
</svg>
