<?xml version="1.0" encoding="UTF-8" standalone="no"?>
<!-- Created with Inkscape (http://www.inkscape.org/) -->

<svg
   width="88.161263"
   height="88.161263"
   viewBox="0 0 23.326 23.326"
   version="1.1"
   id="svg29015"
   inkscape:version="1.1.1 (3bf5ae0d25, 2021-09-20)"
   sodipodi:docname="website-angrybee-news.svg"
   inkscape:export-filename="/home/vissol/eclipse-workspace/angrybeewebsite/src/main/webapp/pictures/website-angrybee-menu-search.png"
   inkscape:export-xdpi="90"
   inkscape:export-ydpi="90"
   xmlns:inkscape="http://www.inkscape.org/namespaces/inkscape"
   xmlns:sodipodi="http://sodipodi.sourceforge.net/DTD/sodipodi-0.dtd"
   xmlns:xlink="http://www.w3.org/1999/xlink"
   xmlns="http://www.w3.org/2000/svg"
   xmlns:svg="http://www.w3.org/2000/svg">
  <sodipodi:namedview
     id="namedview29017"
     pagecolor="#080e17"
     bordercolor="#666666"
     borderopacity="1.0"
     inkscape:pageshadow="2"
     inkscape:pageopacity="0"
     inkscape:pagecheckerboard="0"
     inkscape:document-units="mm"
     showgrid="false"
     inkscape:zoom="5.5749209"
     inkscape:cx="6.3678033"
     inkscape:cy="26.637149"
     inkscape:window-width="1920"
     inkscape:window-height="1056"
     inkscape:window-x="1366"
     inkscape:window-y="0"
     inkscape:window-maximized="1"
     inkscape:current-layer="layer1"
     units="px" />
  <defs
     id="defs29012">
    <linearGradient
       inkscape:collect="always"
       xlink:href="#linearGradient908"
       id="linearGradient910"
       x1="130.95653"
       y1="90.140602"
       x2="315.41122"
       y2="90.655304"
       gradientUnits="userSpaceOnUse"
       gradientTransform="matrix(0.24589184,0,0,0.24589184,-11.907343,-4.2099033)" />
    <linearGradient
       inkscape:collect="always"
       id="linearGradient908">
      <stop
         style="stop-color:#00ccff;stop-opacity:1;"
         offset="0"
         id="stop904" />
      <stop
         style="stop-color:#00ff00;stop-opacity:1"
         offset="1"
         id="stop906" />
    </linearGradient>
  </defs>
  <g
     inkscape:label="Calque 1"
     inkscape:groupmode="layer"
     id="layer1">
    <path
       style="font-variation-settings:normal;fill:none;fill-opacity:1;stroke:url(#linearGradient910);stroke-width:0.490488;stroke-linecap:round;stroke-linejoin:miter;stroke-miterlimit:4;stroke-dasharray:none;stroke-dashoffset:0;stroke-opacity:1;stop-color:#000000"
       d="M 0.29816059,22.562021 C 5.1601398,21.704347 6.4324589,13.720045 7.0526481,9.6203918 7.7068994,5.265268 8.6375454,4.8613876 13.828816,4.9835041 17.961363,4.9552171 14.356478,19.215681 18.047829,20.655995"
       id="path1148"
       sodipodi:nodetypes="cccc" />
    <g
       id="g8285"
       transform="matrix(0.04839238,0.00799827,-0.00799827,0.04839238,-9.8110754,-4.2610473)">
      <path
         sodipodi:nodetypes="cssscc"
         inkscape:connector-curvature="0"
         id="path8255"
         d="m 380.43212,313.47264 c -16.79067,11.24994 -44.2532,9.91266 -55.25124,-6.82982 -10.9981,-16.74238 -10.00371,-41.61541 6.78698,-52.86536 8.39535,-5.62499 20.07001,-9.94339 28.87251,-8.17255 9.24787,1.86035 14.09371,4.13892 19.59273,12.51019 -0.0777,19.98512 -0.31401,35.91312 -9.8e-4,55.35754 z"
         style="fill:#9ed1fa;fill-opacity:1;stroke:none;stroke-width:2.45575;stroke-linejoin:round;stroke-miterlimit:4;stroke-dasharray:none;stroke-opacity:1" />
      <path
         sodipodi:nodetypes="cssscc"
         inkscape:connector-curvature="0"
         id="path8257"
         d="m 380.32572,286.42974 c -18.52381,11.25228 -48.82102,9.91471 -60.95429,-6.83127 -12.13331,-16.74595 -11.0363,-41.62419 7.48756,-52.87652 9.26191,-5.62615 22.14164,-9.94546 31.8527,-8.17427 10.20244,1.86076 15.54848,4.1398 21.61509,12.51284 -0.0857,19.98933 -0.34645,35.92068 -10e-4,55.36922 z"
         style="fill:#ffffff;stroke:none;stroke-width:2.57966;stroke-linejoin:round;stroke-miterlimit:4;stroke-dasharray:none;stroke-opacity:1" />
    </g>
    <path
       style="fill:none;stroke:#e1faff;stroke-width:0.26637;stroke-linecap:round;stroke-linejoin:round;stroke-miterlimit:4;stroke-dasharray:none;stroke-opacity:1"
       d="m 13.860999,12.429472 c -0.05616,-0.385529 -0.199748,-1.298 -1.021438,-1.590534 l -0.504154,0.626369 C 12.121318,11.124103 11.835794,10.797211 11.235432,10.53339 l -0.274993,0.336101 -0.244438,-0.244436 c -1.142175,0.355391 -1.2370312,1.338292 -1.3716243,1.954603"
       id="path8259"
       inkscape:connector-curvature="0"
       sodipodi:nodetypes="ccccccc" />
    <g
       id="g8267"
       transform="matrix(0.13013589,0,0,0.13013589,-13.356953,6.9959943)">
      <path
         sodipodi:nodetypes="cccsscssscssscssscccc"
         inkscape:connector-curvature="0"
         id="path8261"
         d="m 193.26198,17.951936 c -1.74536,2.213222 -3.99514,4.196576 -8.81888,3.639255 -9.84998,-1.750578 -8.46212,-10.736621 -8.56985,-12.9134728 -0.0192,-1.8431525 0.33868,-4.1508615 1.80087,-6.0619047 0.73109,-0.9555217 1.68465,-1.94020907 3.11243,-2.46141277 0.63247,-0.2308794 0,0 1.39424,-0.5199098 0.79919,0.1793268 0.82642,0.3239644 1.81334,0.6997515 0.98691,0.3757871 2.91659,1.22158037 3.69329,1.61311637 0.90993,0.4586943 2.33431,1.1022198 3.31135,1.7857266 0.72878,0.509838 2.08932,1.3646522 2.96758,2.3619258 0.52616,-0.4074974 0.71054,-0.5249234 1.18815,-0.8176645 0.37367,-0.2290271 0.7207,-0.417227 1.32307,-0.7604321 0.54243,-0.3090516 1.07104,-0.5600737 1.77385,-0.8916382 0.73866,-0.3484738 1.58333,-0.7888063 2.62821,-1.1164787 0.55117,-0.1741051 1.64836,-0.4523282 2.06058,-0.5145227 0.51036,-0.077002 0.9449,0.3935716 1.38915,0.7112952 0.44425,0.3177236 0.87602,0.727134 1.31433,1.2614157 0.43831,0.5342816 0.88315,1.1934346 1.35353,2.0106433 2.01578,4.016524 -0.0872,9.6744318 -1.05656,10.9177638 -2.00118,2.715359 -4.80285,4.048725 -7.98288,3.991419 -1.91216,0.06239 -3.40812,-1.123821 -4.6958,-2.934876 z"
         style="fill:#e1fbff;fill-opacity:0.4;stroke:none;stroke-width:0.464861px;stroke-linecap:butt;stroke-linejoin:miter;stroke-opacity:1" />
      <ellipse
         ry="4.0004606"
         rx="3.1703508"
         cy="10.713887"
         cx="190.17194"
         id="ellipse8263"
         style="fill:#0a121f;fill-opacity:1;stroke:#0a121f;stroke-width:1.17865;stroke-linejoin:round;stroke-miterlimit:4;stroke-dasharray:none;stroke-opacity:1" />
      <ellipse
         ry="3.1349037"
         rx="2.6783435"
         cy="13.307969"
         cx="195.92046"
         id="ellipse8265"
         style="fill:#0a121f;fill-opacity:1;stroke:#0a121f;stroke-width:0.959011;stroke-linejoin:round;stroke-miterlimit:4;stroke-dasharray:none;stroke-opacity:1" />
    </g>
    <path
       style="font-variation-settings:normal;vector-effect:none;fill:#9ed1fb;fill-opacity:0.984314;stroke:none;stroke-width:0.0344317px;stroke-linecap:butt;stroke-linejoin:miter;stroke-miterlimit:4;stroke-dasharray:none;stroke-dashoffset:0;stroke-opacity:1;-inkscape-stroke:none;stop-color:#000000"
       d="m 10.23491,6.7289347 1.505487,0.7338642 0.0605,-0.1033034 -1.363119,-1.0033317 z"
       id="path8269"
       sodipodi:nodetypes="ccccc" />
    <path
       style="font-variation-settings:normal;vector-effect:none;fill:#9ed1fb;fill-opacity:0.984314;stroke:none;stroke-width:0.0344317px;stroke-linecap:butt;stroke-linejoin:miter;stroke-miterlimit:4;stroke-dasharray:none;stroke-dashoffset:0;stroke-opacity:1;-inkscape-stroke:none;stop-color:#000000"
       d="m 11.969724,7.3598539 0.869835,-0.7943956 0.230334,0.3342059 -1.037942,0.5651423 z"
       id="path8271"
       sodipodi:nodetypes="ccccc" />
    <path
       style="fill:none;stroke:#e1faff;stroke-width:0.26637;stroke-linecap:round;stroke-linejoin:round;stroke-miterlimit:4;stroke-dasharray:none;stroke-opacity:1"
       d="m 13.860999,12.429472 c -0.05616,-0.385529 -0.199748,-1.573453 -1.021438,-1.865989 l -0.504154,0.62637 c -0.214089,-0.341204 -0.499613,-0.668096 -1.099975,-0.931917 l -0.274993,0.336101 -0.244438,-0.244436 c -1.142175,0.35539 -1.2370312,1.613746 -1.3716243,2.230057"
       id="path8281"
       inkscape:connector-curvature="0"
       sodipodi:nodetypes="ccccccc" />
    <g
       id="g8289"
       transform="matrix(0.04902006,-0.0016819,0.0016819,0.04902006,-11.260549,-0.71452227)">
      <path
         sodipodi:nodetypes="cssscc"
         inkscape:connector-curvature="0"
         id="path8251"
         d="m 554.47394,314.0779 c 16.7907,11.24994 44.25312,9.91263 55.25114,-6.82982 10.99799,-16.7424 10.00362,-41.61541 -6.78699,-52.86538 -8.39529,-5.62497 -20.0699,-9.94337 -28.87238,-8.17255 -9.24787,1.86038 -14.0937,4.13893 -19.59272,12.51021 0.0775,19.9851 0.314,35.9131 9.5e-4,55.35754 z"
         style="fill:#9ed1fa;fill-opacity:1;stroke:none;stroke-width:2.45575;stroke-linejoin:round;stroke-miterlimit:4;stroke-dasharray:none;stroke-opacity:1" />
      <path
         sodipodi:nodetypes="cssscc"
         inkscape:connector-curvature="0"
         id="path8253"
         d="m 554.50321,287.03498 c 18.52386,11.25228 48.82092,9.91471 60.95413,-6.83125 12.13323,-16.74595 11.03622,-41.62421 -7.48751,-52.87654 -9.26185,-5.62615 -22.1415,-9.94546 -31.85257,-8.17427 -10.20246,1.86076 -15.54844,4.13981 -21.61509,12.51284 0.0857,19.98933 0.34643,35.9207 10e-4,55.36922 z"
         style="fill:#ffffff;fill-opacity:1;stroke:none;stroke-width:2.57966;stroke-linejoin:round;stroke-miterlimit:4;stroke-dasharray:none;stroke-opacity:1" />
    </g>
    <rect
       style="fill:none;fill-opacity:1;stroke:#00ccff;stroke-width:0.374695;stroke-linecap:round;stroke-linejoin:round;stroke-opacity:1;paint-order:stroke fill markers"
       id="rect1274"
       width="3.9890721"
       height="2.1123528"
       x="9.6360741"
       y="16.486086" />
    <path
       style="font-variation-settings:normal;fill:#00ccff;fill-opacity:1;stroke:#00ccff;stroke-width:0.390949;stroke-linecap:butt;stroke-linejoin:miter;stroke-miterlimit:4;stroke-dasharray:none;stroke-dashoffset:0;stroke-opacity:1;stop-color:#000000"
       d="m 13.000315,16.431902 c 0.311747,-1.109933 1.006651,-3.282785 -1.305136,-3.252239 -2.6316565,-0.01347 -1.8811464,2.094224 -1.507238,3.253531 z"
       id="path1507"
       sodipodi:nodetypes="cccc" />
    <path
       style="font-variation-settings:normal;fill:none;fill-opacity:1;stroke:#00ccff;stroke-width:0.390949;stroke-linecap:butt;stroke-linejoin:miter;stroke-miterlimit:4;stroke-dasharray:none;stroke-dashoffset:0;stroke-opacity:1;stop-color:#000000"
       d="m 11.036789,18.514351 -0.01234,3.025452 c -0.0013,0.70508 1.184891,0.659146 1.179867,0 l 0.03535,-2.993588"
       id="path2386"
       sodipodi:nodetypes="cccc" />
    <path
       style="font-variation-settings:normal;opacity:1;fill:none;fill-opacity:1;stroke:#ffffff;stroke-width:0.565;stroke-linecap:round;stroke-linejoin:miter;stroke-miterlimit:4;stroke-dasharray:none;stroke-dashoffset:0;stroke-opacity:1;stop-color:#000000;stop-opacity:1"
       d="m 11.373814,13.562937 c 1.428619,-0.21894 1.772735,0.50257 1.522473,1.733236"
       id="path876"
       sodipodi:nodetypes="cc" />
    <path
       style="font-variation-settings:normal;opacity:1;vector-effect:none;fill:#00ccff;fill-opacity:1;stroke:#00ccff;stroke-width:0.264583px;stroke-linecap:round;stroke-linejoin:bevel;stroke-miterlimit:4;stroke-dasharray:none;stroke-dashoffset:0;stroke-opacity:1;-inkscape-stroke:none;stop-color:#000000;stop-opacity:1"
       d="M 6.6665966,8.7452396 7.1874238,6.2803952 C 6.5160921,6.1316499 5.8301477,5.940339 5.6431408,7.2024041 5.3353348,8.6341307 6.0701721,8.6229748 6.6665966,8.7452396 Z"
       id="path1560"
       sodipodi:nodetypes="cccc" />
    <path
       style="font-variation-settings:normal;opacity:1;vector-effect:none;fill:#00ccff;fill-opacity:1;stroke:#00ccff;stroke-width:0.264583px;stroke-linecap:round;stroke-linejoin:bevel;stroke-miterlimit:4;stroke-dasharray:none;stroke-dashoffset:0;stroke-opacity:1;-inkscape-stroke:none;stop-color:#000000;stop-opacity:1"
       d="M 16.571262,8.7452396 16.050434,6.2803952 c 0.671332,-0.1487453 1.357277,-0.3400562 1.544284,0.9220089 0.307806,1.4317266 -0.427031,1.4205707 -1.023456,1.5428355 z"
       id="path6895"
       sodipodi:nodetypes="cccc" />
    <path
       style="font-variation-settings:normal;opacity:1;vector-effect:none;fill:none;fill-opacity:1;stroke:#00ccff;stroke-width:0.264583px;stroke-linecap:butt;stroke-linejoin:miter;stroke-miterlimit:4;stroke-dasharray:none;stroke-dashoffset:0;stroke-opacity:1;-inkscape-stroke:none;stop-color:#000000;stop-opacity:1"
       d="M 7.1874236,6.2803952 C 7.8904431,2.7106287 8.4915037,1.5829879 11.845421,1.5636288 c 2.964513,0.066082 3.452613,1.0962672 4.205013,4.7167664"
       id="path6930"
       sodipodi:nodetypes="ccc" />
    <path
       style="font-variation-settings:normal;opacity:1;fill:none;fill-opacity:1;stroke:#ffffff;stroke-width:0.565;stroke-linecap:round;stroke-linejoin:miter;stroke-miterlimit:4;stroke-dasharray:none;stroke-dashoffset:0;stroke-opacity:1;stop-color:#000000;stop-opacity:1"
       d="m 11.544796,14.337782 c 0.534504,-0.03911 0.738166,0.241114 0.600276,0.740814"
       id="path1022"
       sodipodi:nodetypes="cc" />
    <text
       xml:space="preserve"
       style="font-size:1.67606px;line-height:1.25;font-family:'UKIJ Qolyazma Tuz';-inkscape-font-specification:'UKIJ Qolyazma Tuz';text-decoration-color:#000000;letter-spacing:0px;word-spacing:0px;fill:#ffffff;stroke-width:0.209508;-inkscape-stroke:none;stop-color:#000000"
       x="13.491334"
       y="13.268673"
       id="text2711"
       transform="scale(0.72355252,1.3820697)"><tspan
         sodipodi:role="line"
         id="tspan2709"
         style="font-style:normal;font-variant:normal;font-weight:normal;font-stretch:normal;font-size:1.67606px;font-family:Arial;-inkscape-font-specification:Arial;stroke-width:0.209508"
         x="13.491334"
         y="13.268673">NEWS</tspan></text>
  </g>
</svg>
