<?xml version="1.0" encoding="UTF-8" standalone="no"?>
<svg
   id="visual"
   viewBox="0 0 3000 3240.4761"
   width="3000"
   height="3240.4761"
   version="1.1"
   sodipodi:docname="website-background.svg"
   inkscape:version="1.1.1 (3bf5ae0d25, 2021-09-20)"
   xmlns:inkscape="http://www.inkscape.org/namespaces/inkscape"
   xmlns:sodipodi="http://sodipodi.sourceforge.net/DTD/sodipodi-0.dtd"
   xmlns="http://www.w3.org/2000/svg"
   xmlns:svg="http://www.w3.org/2000/svg">
  <defs
     id="defs9" />
  <sodipodi:namedview
     id="namedview7"
     pagecolor="#ffffff"
     bordercolor="#666666"
     borderopacity="1.0"
     inkscape:pageshadow="2"
     inkscape:pageopacity="0.0"
     inkscape:pagecheckerboard="0"
     showgrid="false"
     inkscape:zoom="0.086587845"
     inkscape:cx="1368.5524"
     inkscape:cy="1807.413"
     inkscape:window-width="1366"
     inkscape:window-height="700"
     inkscape:window-x="1920"
     inkscape:window-y="0"
     inkscape:window-maximized="1"
     inkscape:current-layer="visual" />
  <g
     id="g828"
     transform="matrix(0,3.3754956,-5.5555556,0,3000,0)">
    <rect
       x="0"
       y="0"
       width="960"
       height="540"
       fill="#224466"
       id="rect2" />
    <path
       d="m 0,212 8.7732523,7.4772 c 8.8729487,7.47721 26.4194527,22.43161 44.2650457,39.18055 17.745897,16.84863 35.691185,35.3921 53.437082,65.30091 17.84559,29.90882 35.3921,71.18298 53.0383,66.99575 17.6462,-4.18724 35.1927,-53.63648 53.0383,-53.53678 17.74589,0.19939 35.69118,50.04742 53.43708,33.89666 17.84559,-16.05107 35.3921,-98.20061 53.0383,-113.6535 17.6462,-15.45289 35.1927,35.79088 53.03829,44.76353 17.7459,8.97264 35.69119,-24.32584 53.43709,-5.38359 17.84559,18.94225 35.39209,90.12523 53.03829,114.15198 17.6462,24.12644 35.19271,1.19635 53.0383,-31.50396 17.7459,-32.8 35.69119,-75.27051 53.43708,-110.16413 17.8456,-34.89362 35.3921,-62.21033 53.0383,-44.26505 17.6462,17.94529 35.19271,81.15259 53.0383,100.19453 17.7459,19.14164 35.69118,-5.78237 53.43708,-1.09665 17.84559,4.58602 35.3921,38.88146 53.0383,47.15623 17.6462,8.27477 35.1927,-9.27173 53.0383,-1.69484 17.74589,7.6766 35.69118,40.5763 53.43708,58.02311 17.84559,17.4468 35.3921,19.44072 44.26504,20.43769 l 8.77326,0.99696 V 540 h -8.77326 c -8.87294,0 -26.41945,0 -44.26504,0 -17.7459,0 -35.69119,0 -53.43708,0 -17.8456,0 -35.3921,0 -53.0383,0 -17.6462,0 -35.19271,0 -53.0383,0 -17.7459,0 -35.69118,0 -53.43708,0 -17.84559,0 -35.3921,0 -53.0383,0 -17.6462,0 -35.1927,0 -53.0383,0 -17.74589,0 -35.69118,0 -53.43708,0 -17.84559,0 -35.3921,0 -53.0383,0 -17.6462,0 -35.1927,0 -53.03829,0 -17.7459,0 -35.69119,0 -53.43709,0 -17.84559,0 -35.39209,0 -53.03829,0 -17.6462,0 -35.19271,0 -53.0383,0 -17.7459,0 -35.69119,0 -53.43708,0 -17.8456,0 -35.3921,0 -53.0383,0 -17.6462,0 -35.19271,0 -53.0383,0 -17.745897,0 -35.691185,0 -53.437082,0 -17.845593,0 -35.392097,0 -44.2650457,0 H 0 Z"
       fill="#1c3854"
       stroke-linecap="round"
       stroke-linejoin="miter"
       id="path4"
       style="stroke-width:0.99696" />
  </g>
</svg>
